<?xml version="1.0" standalone="no"?>
<!DOCTYPE svg PUBLIC "-//W3C//DTD SVG 1.1//EN" "http://www.w3.org/Graphics/SVG/1.1/DTD/svg11.dtd" >
<svg>
<metadata>
Created by FontForge 20110222 at Tue Sep  2 11:03:02 2014
 By Orthosie Webhosting
Part of the digitally encoded machine readable outline data for producing the Typefaces provided is copyrighted (c) 1989, 2003, Linotype Library GmbH, www.linotype.com. All rights reserved. This software is the property of Linotype Library GmbH, and may not be reproduced, used, displayed, modified, disclosed or transferred Library GmbH. Copyright (c) 1989, 2003, Adobe Systems Incorporated. All rights reserved.
</metadata>
<defs>
<font id="SabonLTItalic" horiz-adv-x="556" >
  <font-face 
    font-family="SabonLTItalic"
    font-weight="400"
    font-style="italic"
    font-stretch="normal"
    units-per-em="1000"
    panose-1="2 0 5 3 2 0 0 9 0 3"
    ascent="800"
    descent="-200"
    x-height="457"
    cap-height="698"
    bbox="-146 -228.083 1059 927"
    underline-thickness="50"
    underline-position="-75"
    slope="-12"
    unicode-range="U+0020-FB02"
  />
<missing-glyph horiz-adv-x="278" 
 />
    <glyph glyph-name=".notdef" horiz-adv-x="278" 
 />
    <glyph glyph-name=".null" horiz-adv-x="0" 
 />
    <glyph glyph-name="nonmarkingreturn" horiz-adv-x="278" 
 />
    <glyph glyph-name="space" unicode=" " horiz-adv-x="278" 
 />
    <glyph glyph-name="space" unicode="&#xa0;" horiz-adv-x="278" 
 />
    <glyph glyph-name="exclam" unicode="!" horiz-adv-x="333" 
d="M121 -15q-26 0 -46 19t-20 46q0 26 20 46.5t46 20.5t46 -20t20 -47t-19.5 -46t-46.5 -19zM133 188l38 305q2 18 6.5 48t14.5 59t26 50t40 21q23 0 33.5 -16t10.5 -37q0 -26 -10.5 -62t-22.5 -68l-116 -300h-20z" />
    <glyph glyph-name="quotedbl" unicode="&#x22;" 
d="M410 488q-3 -23 -18 -23t-18 23l-17 150q-2 8 -2 17q0 15 6.5 29t30.5 14t30.5 -14t6.5 -29q0 -9 -2 -17zM283 488q-3 -23 -18 -23t-18 23l-17 150q-2 8 -2 17q0 15 6.5 29t30.5 14t30.5 -14t6.5 -29q0 -9 -2 -17z" />
    <glyph glyph-name="numbersign" unicode="#" 
d="M247 418l-21 -146h130l21 146h-130zM514 218h-104l-31 -218h-62l31 218h-129l-31 -218h-62l31 218h-104l8 54h104l21 146h-105l8 54h104l31 218h61l-31 -218h130l31 218h61l-31 -218h104l-7 -54h-104l-21 -146h104z" />
    <glyph glyph-name="dollar" unicode="$" 
d="M334 681q-50 0 -82 -26.5t-32 -78.5q0 -35 21 -69t50 -66zM246 11q25 2 48.5 12t40.5 26.5t27.5 39.5t10.5 50q0 41 -23.5 76.5t-55.5 70.5zM71 203h20q2 -34 6.5 -66t17.5 -58t36.5 -44t64.5 -24l53 303q-23 23 -45 47t-39.5 50t-28 54.5t-10.5 60.5q0 44 14 79t40 59
q24 22 46.5 32t41 14t32 3.5t19.5 -0.5l13 75h30l-13 -75q8 -1 26.5 -4.5t33.5 -8.5q17 -5 25.5 -8t15.5 -3q8 0 15 4.5t12 5.5h10l-33 -177h-20q0 19 0.5 43.5t-7 48t-26.5 41.5t-58 24l-47 -265q20 -22 41 -44t39.5 -44.5t33 -45t21.5 -45.5q5 -14 6.5 -27.5t1.5 -27.5
q0 -45 -18 -81t-48.5 -61.5t-70 -39t-81.5 -13.5l-13 -74h-31l14 77q-29 4 -57 13.5t-53 19.5l-44 -28h-12z" />
    <glyph glyph-name="percent" unicode="%" horiz-adv-x="1000" 
d="M689 713h47l-447 -736h-48zM624 110q0 -16 3.5 -34t11.5 -32.5t21 -24t33 -8.5q30 -1 51.5 18t35.5 47t21 59.5t7 55.5q0 17 -2.5 36t-10 34t-20.5 25t-35 9q-30 1 -52 -19t-36.5 -48.5t-21 -61t-6.5 -56.5zM170 494q0 -16 3.5 -34t11.5 -32.5t21 -24t33 -8.5
q30 -1 51.5 18t35.5 47t21 59.5t7 55.5q0 17 -2.5 36t-10 34t-20.5 25t-35 9q-30 1 -52 -19t-36.5 -48.5t-21 -61t-6.5 -56.5zM96 521q0 38 16 71.5t42.5 58.5t61 39.5t71.5 14.5q34 0 60 -11.5t44 -32t27.5 -48.5t9.5 -60q0 -38 -15.5 -71.5t-41.5 -58.5t-60 -39.5
t-71 -14.5q-32 0 -58.5 12t-45.5 33t-29.5 48.5t-10.5 58.5zM550 137q0 38 16 71.5t42.5 58.5t61 39.5t71.5 14.5q34 0 60 -11.5t44 -32t27.5 -48.5t9.5 -60q0 -38 -15.5 -71.5t-41.5 -58.5t-60 -39.5t-71 -14.5q-32 0 -58.5 12t-45.5 33t-29.5 48.5t-10.5 58.5z" />
    <glyph glyph-name="ampersand" unicode="&#x26;" horiz-adv-x="944" 
d="M298 484q-32 0 -58.5 -19t-46 -48.5t-30.5 -65.5t-11 -70q0 -10 0.5 -20t3.5 -20q41 55 86 102l94 99q5 5 5 11q0 12 -14 21.5t-29 9.5zM594 304q0 -20 -16.5 -28.5t-33.5 -8.5q-8 0 -18.5 3.5t-20.5 12.5t-17 23.5t-7 36.5q0 30 17 58.5t42.5 51t56.5 36.5t60 14
q40 0 66.5 -19.5t47.5 -43t39.5 -43t42.5 -19.5q16 0 25 12t9 26q0 7 -4.5 13t-9.5 13t-9.5 15.5t-4.5 19.5q0 13 10 21.5t23 8.5q21 0 31.5 -16.5t10.5 -35.5q0 -24 -12.5 -46.5t-32 -39.5t-43.5 -27.5t-47 -10.5q-26 0 -48.5 19t-39.5 37q-2 -51 -11 -105t-38 -107
q-18 -31 -44 -64.5t-64.5 -61.5t-90 -46t-119.5 -18q-53 0 -99 18t-80 51.5t-53 81t-19 105.5q0 48 22 100t59 96t84.5 72.5t97.5 28.5q17 0 34 -5t30 -18q10 12 29 30t38 38t33 40t14 37q0 11 -4.5 25t-4.5 21q0 17 12 26.5t28 9.5t25.5 -11.5t9.5 -33.5q0 -15 -10.5 -34
t-25 -37.5t-30.5 -34.5l-26 -26l-207 -197l-39 -39l-48 -57q-16 -20 -26.5 -37.5t-10.5 -43.5q0 -20 12 -39t25 -33q13 -15 30.5 -26t37 -18.5t40.5 -11.5t40 -4q41 0 78.5 10t69 26.5t56.5 37t43 40.5q21 24 35 52t22.5 58t12.5 61.5t6 62.5q-2 8 -12 15.5t-23.5 13.5
t-27.5 9.5t-24 3.5q-13 0 -25.5 -5t-22.5 -13.5t-16 -20.5t-6 -25q0 -26 10.5 -34t22.5 -11.5t22.5 -9t10.5 -26.5z" />
    <glyph glyph-name="quotesingle" unicode="'" horiz-adv-x="278" 
d="M209 488q-3 -23 -18 -23t-18 23l-17 150q-2 8 -2 17q0 15 6.5 29t30.5 14t30.5 -14t6.5 -29q0 -9 -2 -17z" />
    <glyph glyph-name="parenleft" unicode="(" horiz-adv-x="333" 
d="M374 702q-49 -80 -89.5 -153.5t-70 -149t-45.5 -156.5t-16 -176q0 -63 9 -125.5t25 -122.5l-25 -12q-34 67 -54.5 139.5t-20.5 147.5q0 92 21 174t57.5 157.5t85 146.5t102.5 141z" />
    <glyph glyph-name="parenright" unicode=")" horiz-adv-x="333" 
d="M-31 -182q49 80 89.5 153.5t70 149t45.5 156.5t16 176q0 63 -9 125.5t-25 122.5l25 12q34 -67 54.5 -139.5t20.5 -147.5q0 -92 -21 -174t-57.5 -157.5t-85 -146.5t-102.5 -141z" />
    <glyph glyph-name="asterisk" unicode="*" 
d="M503 529q0 -17 -8 -27.5t-25 -10.5q-18 0 -50 9.5t-60 19.5q2 3 2 9q0 3 -2 9q28 10 55.5 20t54.5 10q14 0 23.5 -11t9.5 -28zM360 366q-19 0 -27 11t-8 26q0 24 0.5 49.5t1.5 51.5q2 -1 5 -1t6.5 1.5t5.5 3.5q26 -36 43.5 -63.5t17.5 -41.5q0 -17 -15 -27t-30 -10z
M180 472q0 13 16.5 22.5t37.5 16.5t41.5 11t28.5 6q0 -3 3.5 -8.5t6.5 -7.5q-7 -8 -18 -23t-24 -29t-27 -24.5t-26 -10.5q-18 0 -28.5 15t-10.5 32zM376 698q14 1 29.5 -8.5t15.5 -26.5q0 -11 -8 -26t-19.5 -30.5t-22.5 -29t-17 -20.5q-2 2 -8.5 4t-9.5 2q3 43 3 87
q0 21 9.5 34.5t27.5 13.5zM201 645q11 12 23.5 15.5t26.5 -7.5q22 -17 37 -42t31 -51q-3 0 -7 -5.5t-5 -8.5q-28 11 -56 20t-48 27q-10 8 -12 22q0 15 10 30z" />
    <glyph glyph-name="plus" unicode="+" 
d="M245 442h66v-188h188v-66h-188v-188h-66v188h-188v66h188v188z" />
    <glyph glyph-name="comma" unicode="," horiz-adv-x="278" 
d="M-7 -120q22 3 46 8.5t43.5 17t32 29.5t12.5 46q0 5 -1 10t-6 8q-8 4 -15 5.5t-13.5 3.5t-13.5 5.5t-14 11.5q-12 13 -12 34q0 18 6 29t16 17.5t21 9t22 2.5q19 0 33.5 -8t24 -21.5t14 -30.5t4.5 -35q0 -38 -17 -68.5t-44.5 -51.5t-62 -32t-69.5 -10z" />
    <glyph glyph-name="hyphen" unicode="-" horiz-adv-x="333" 
d="M57 272h236l-16 -66h-238z" />
    <glyph glyph-name="hyphen" unicode="&#xad;" horiz-adv-x="333" 
d="M57 272h236l-16 -66h-238z" />
    <glyph glyph-name="period" unicode="." horiz-adv-x="278" 
d="M116 -15q-26 0 -46 19t-20 46q0 26 20 46.5t46 20.5t46 -20t20 -47t-19.5 -46t-46.5 -19z" />
    <glyph glyph-name="slash" unicode="/" horiz-adv-x="278" 
d="M-16 -15l297 728h66l-297 -728h-66z" />
    <glyph glyph-name="zero" unicode="0" 
d="M139 199q0 -28 3 -60.5t13.5 -61t31.5 -47.5t57 -19t65 26t51.5 67t39 91.5t27.5 99.5t16 91.5t5 67.5q0 31 -1.5 69t-11.5 71.5t-30.5 56t-57.5 22.5q-39 0 -69.5 -27.5t-53.5 -71.5t-39.5 -97.5t-26.5 -106.5t-14.5 -98.5t-4.5 -72.5zM59 262q0 38 9 86t26 97t42 96
t57 83.5t70.5 58.5t83.5 22q50 0 84.5 -24t56 -64t31 -92.5t9.5 -109.5q0 -37 -8 -83.5t-24.5 -94t-41 -93t-57 -81t-73 -57t-89.5 -21.5q-51 0 -85 28t-54.5 69.5t-28.5 90t-8 89.5z" />
    <glyph glyph-name="one" unicode="1" 
d="M141 534l-13 24l266 147l10 -5l-105 -594q-3 -18 -4.5 -29.5t-1.5 -21.5q0 -21 19.5 -25.5t55.5 -4.5h41l-5 -25q-41 0 -80.5 1t-80.5 1q-42 0 -82 -0.5t-82 -1.5l5 25h32q40 0 59 5t26 35l100 550z" />
    <glyph glyph-name="two" unicode="2" 
d="M429 80l32 58l22 -6l-39 -132q-50 1 -99.5 1.5t-99.5 0.5q-56 0 -112 -0.5t-113 -1.5l3 35l141 133q32 31 69 72t68.5 87t52.5 95t21 96q0 25 -6.5 48.5t-20 40.5t-34 27.5t-48.5 10.5q-25 0 -45 -7t-37.5 -18t-33.5 -26t-33 -31l-16 23q22 23 44.5 44.5t47.5 38
t53.5 26.5t61.5 10q71 0 115 -41.5t44 -114.5q0 -46 -17.5 -90.5t-46.5 -86.5t-66 -81.5t-75.5 -76t-76 -70.5t-66.5 -64h310z" />
    <glyph glyph-name="three" unicode="3" 
d="M189 376q31 2 65 14t62 32t46 48.5t18 64.5q0 53 -25.5 88t-80.5 35q-39 0 -66.5 -18.5t-57.5 -40.5l-16 18q22 19 43 35t43 28t47 18.5t55 6.5q28 0 54.5 -9t46 -25.5t31.5 -41t12 -55.5q0 -41 -14.5 -72t-39 -54t-56 -40t-64.5 -30v-2q67 -9 109.5 -47.5t42.5 -111.5
q0 -46 -21 -88t-57 -74t-85 -51t-104 -19q-24 0 -42.5 1.5t-35.5 5.5t-34 12t-37 22l-11 51l42 13q17 -42 46 -60.5t73 -18.5q40 0 72.5 17t55 45t34.5 63t12 71q0 30 -8 56t-24 45.5t-39.5 30.5t-54.5 11q-11 0 -21 0.5t-21 -1.5z" />
    <glyph glyph-name="four" unicode="4" 
d="M379 593h-2l-273 -296h221zM313 231h-288l3 35l409 439h45l-76 -408h110l-13 -66h-109l-42 -231h-82z" />
    <glyph glyph-name="five" unicode="5" 
d="M278 610l-43 -107q35 -23 69 -51.5t61 -63t44 -74.5t17 -86q0 -50 -17.5 -94.5t-48.5 -77.5t-75 -52t-96 -19q-33 0 -58 5t-43 12.5t-29 15.5t-17 14l-10 43l43 15q24 -42 52 -60.5t76 -18.5q35 0 61.5 15.5t44.5 40.5t27.5 56t9.5 62q0 43 -14.5 80.5t-38.5 68.5
t-55.5 56t-66.5 44l104 256h252l-28 -80h-221z" />
    <glyph glyph-name="six" unicode="6" 
d="M212 345q26 16 62.5 28.5t71.5 12.5q29 0 56 -12t47.5 -34.5t33 -53.5t12.5 -68q0 -47 -18 -89t-49 -74t-72.5 -51t-89.5 -19q-50 0 -87.5 18.5t-62 49.5t-36.5 70.5t-12 81.5q0 89 40.5 170t106 146t147.5 109.5t165 59.5l8 -23q-103 -22 -182.5 -86t-128.5 -153
q-30 -57 -50 -121.5t-20 -129.5q0 -25 5 -54t18 -54t36 -41.5t59 -16.5q37 0 63 18t42.5 45.5t24 60.5t7.5 64q0 29 -7 54.5t-22 44.5t-38 30t-54 11q-26 0 -46.5 -8t-40.5 -24z" />
    <glyph glyph-name="seven" unicode="7" 
d="M118 690h451v-8l-426 -704l-40 22l373 610h-343l-24 -43h-25z" />
    <glyph glyph-name="eight" unicode="8" 
d="M220 554q0 -26 10.5 -51t27 -48.5t35.5 -44t36 -38.5q48 33 80.5 76t32.5 105q0 54 -27.5 87t-82.5 33q-24 0 -44.5 -10t-35.5 -26.5t-23.5 -38t-8.5 -44.5zM132 130q0 -50 31 -81.5t82 -31.5q55 0 90 33.5t35 94.5q0 25 -9.5 48.5t-25 45t-34.5 41.5t-38 38
q-28 -16 -52 -34.5t-41.5 -41.5t-27.5 -50.5t-10 -61.5zM66 131q0 42 15.5 74t41 56t58 42t66.5 33q-18 15 -36 35t-32.5 43t-23.5 50.5t-9 57.5q0 36 13.5 69t38.5 58.5t60 40.5t78 15q31 0 62 -9.5t55.5 -28t39.5 -45.5t15 -62q0 -38 -14 -68t-36.5 -54.5t-52 -43.5
t-59.5 -34q22 -21 41 -40t33 -40.5t22 -47.5t8 -60q0 -45 -17 -80t-46 -58.5t-67.5 -36t-82.5 -12.5q-31 0 -61.5 10t-55 29t-39.5 46t-15 61z" />
    <glyph glyph-name="nine" unicode="9" 
d="M366 345q-26 -16 -62.5 -28.5t-71.5 -12.5q-29 0 -56 12t-47.5 34.5t-33 53t-12.5 68.5q0 47 18 89t49 74t72.5 51t89.5 19q50 0 87.5 -18.5t62 -49.5t36.5 -70.5t12 -81.5q0 -89 -40.5 -170t-106 -146t-147.5 -109.5t-165 -59.5l-8 23q103 22 182.5 86t128.5 153
q30 57 50 121.5t20 129.5q0 25 -5 54t-18 54t-36 41.5t-59 16.5q-37 0 -63 -18t-42.5 -45.5t-24 -60.5t-7.5 -64q0 -29 7 -54.5t22 -44.5t38 -30t54 -11q26 0 46.5 8t40.5 24z" />
    <glyph glyph-name="colon" unicode=":" horiz-adv-x="278" 
d="M116 -15q-26 0 -46 19t-20 46q0 26 20 46.5t46 20.5t46 -20t20 -47t-19.5 -46t-46.5 -19zM170 279q-26 0 -46 19t-20 46q0 26 20 46.5t46 20.5t46 -20t20 -47t-19.5 -46t-46.5 -19z" />
    <glyph glyph-name="semicolon" unicode=";" horiz-adv-x="278" 
d="M170 279q-26 0 -46 19t-20 46q0 26 20 46.5t46 20.5t46 -20t20 -47t-19.5 -46t-46.5 -19zM-7 -120q22 3 46 8.5t43.5 17t32 29.5t12.5 46q0 5 -1 10t-6 8q-8 4 -15 5.5t-13.5 3.5t-13.5 5.5t-14 11.5q-12 13 -12 34q0 18 6 29t16 17.5t21 9t22 2.5q19 0 33.5 -8t24 -21.5
t14 -30.5t4.5 -35q0 -38 -17 -68.5t-44.5 -51.5t-62 -32t-69.5 -10z" />
    <glyph glyph-name="less" unicode="&#x3c;" 
d="M499 -5l-442 193v66l442 193v-71l-366 -155l366 -155v-71z" />
    <glyph glyph-name="equal" unicode="=" 
d="M499 88h-442v66h442v-66zM499 288h-442v66h442v-66z" />
    <glyph glyph-name="greater" unicode="&#x3e;" 
d="M423 221l-366 155v71l442 -193v-66l-442 -193v71z" />
    <glyph glyph-name="question" unicode="?" horiz-adv-x="444" 
d="M155 -15q-26 0 -46 19t-20 46q0 26 20 46.5t46 20.5t46 -20t20 -47t-19.5 -46t-46.5 -19zM216 627q-14 0 -22.5 9t-8.5 23q0 13 6 21t15 12t20 5t21 1q31 0 60.5 -12t52 -32.5t36 -48.5t13.5 -60q0 -38 -12 -64t-31.5 -42.5t-44.5 -27t-50 -18t-48.5 -14t-40.5 -15.5
q-17 -10 -27 -27t-10 -37q0 -17 8.5 -29t20 -19.5t24 -10.5t21.5 -3q13 0 19.5 2.5t14.5 2.5q13 0 17.5 -7t4.5 -18q0 -16 -8 -28t-25 -12q-21 0 -38.5 10t-37.5 27q-10 9 -21 24.5t-20 33.5t-15 36t-6 31q0 45 19.5 70t49 39t63.5 22t63.5 19t49 29.5t19.5 53.5
q0 32 -17.5 50.5t-51.5 18.5q-26 0 -45 -7.5t-38 -7.5z" />
    <glyph glyph-name="at" unicode="@" horiz-adv-x="800" 
d="M345 282q0 -48 19.5 -67t47.5 -19q16 0 37 14t40 41.5t31.5 69.5t12.5 99q0 33 -10 50.5t-33 17.5q-19 0 -44 -14t-47.5 -40.5t-38 -64.5t-15.5 -87zM670 45q-51 -23 -104.5 -41.5t-115.5 -18.5q-103 0 -177.5 34.5t-122.5 86.5t-71 112.5t-23 112.5q0 85 30.5 155.5
t83 121t122 78t147.5 27.5q73 0 136 -23.5t109.5 -65.5t73 -99.5t26.5 -124.5q0 -41 -13 -85.5t-37.5 -81.5t-61 -61.5t-83.5 -24.5q-26 0 -44 10t-29.5 22.5t-16 25t-4.5 17.5h-2q-5 -7 -15.5 -19t-26.5 -23.5t-36 -20.5t-43 -10q-11 0 -28 3.5t-33.5 17t-28 39.5t-11.5 71
q0 19 5.5 45t17 54.5t28.5 56t40 50t52 36t64 13.5q18 0 30 -5t20.5 -13t14 -17.5t10.5 -19.5l10 41h73l-65 -258q-6 -23 -6 -37q0 -17 8 -32t32 -15q32 0 58 21.5t44 54t27.5 71.5t9.5 74q0 46 -20.5 95.5t-59.5 90.5t-96 68t-129 27q-60 0 -114 -23t-94.5 -68.5
t-64.5 -113t-24 -155.5q0 -56 22 -109t62.5 -94.5t97 -66.5t125.5 -25q35 0 63.5 4t53 11t46.5 16.5t45 19.5z" />
    <glyph glyph-name="A" unicode="A" horiz-adv-x="722" 
d="M259 303h207l-44 298h-2zM441 702q9 2 18 4.5t18 6.5l6 -4l110 -621q5 -32 21 -48t51 -14l-5 -26q-32 0 -63 1t-63 1q-27 0 -54 -0.5t-54 -1.5l5 26h24q14 0 24.5 3.5t17 11.5t4.5 23l-30 198h-234l-82 -170q-11 -24 -11 -36q0 -20 15 -25t28 -5h30l-5 -26q-29 0 -59 1
t-59 1q-23 0 -46 -0.5t-46 -1.5l5 26q35 -1 55 18.5t35 48.5z" />
    <glyph glyph-name="B" unicode="B" horiz-adv-x="667" 
d="M261 385q22 -2 39 -2.5t34 -0.5q31 0 61 10.5t53.5 31.5t38 53t14.5 75q0 33 -13 55t-34 35t-47.5 18.5t-53.5 5.5q-10 0 -19.5 -0.5t-18.5 -1.5zM207 81q-3 -19 7 -29t26 -14.5t34 -5t30 -0.5q42 0 75 14.5t56 40t35 59.5t12 74q0 42 -14 68t-38 39.5t-55.5 18
t-66.5 4.5q-26 0 -53 -3zM217 628q3 15 -3.5 23.5t-17.5 13t-24 6t-23 1.5h-21l4 26q72 -3 144 -3q24 0 48.5 1.5t49.5 1.5q36 0 76 -6t73 -22.5t54.5 -45.5t21.5 -75q0 -41 -17 -72.5t-45 -53.5t-63 -35t-71 -16v-2q37 -4 69 -14t56 -29t38 -47.5t14 -69.5q0 -54 -24 -93.5
t-63 -65.5t-89 -38.5t-102 -12.5q-35 0 -70 1t-70 1t-69.5 -0.5t-69.5 -1.5l5 26h16q25 0 39.5 4t22 13t10.5 24t7 37z" />
    <glyph glyph-name="C" unicode="C" horiz-adv-x="722" 
d="M692 503l-20 6q3 33 -3.5 64t-35.5 60q-48 48 -131 48q-77 0 -135 -33t-97 -85t-58.5 -116t-19.5 -126q0 -65 14 -121t42.5 -96.5t72 -63.5t101.5 -23q48 0 84.5 12.5t65 36.5t50.5 57.5t40 75.5l22 -5l-40 -170q-5 3 -12 5.5t-15 2.5q-11 0 -30.5 -8.5t-37.5 -15.5
q-17 -6 -32 -10.5t-29.5 -7.5t-30.5 -4t-36 -1q-72 0 -133 24t-105.5 68t-69.5 106t-25 138q0 81 31.5 152.5t85.5 125t125.5 84t151.5 30.5q56 0 89.5 -7.5t54 -16t32.5 -16t24 -7.5q10 0 17 7t14 13l12 -7z" />
    <glyph glyph-name="D" unicode="D" horiz-adv-x="833" 
d="M211 94q-5 -22 5.5 -34.5t29.5 -18.5t44 -7.5t50 -1.5q78 0 139.5 29t104.5 78.5t65.5 116t22.5 140.5q0 51 -14 90.5t-35 68.5t-45 48.5t-44 28.5q-18 9 -33.5 15t-32 10.5t-36 6.5t-45.5 2q-30 0 -44.5 -1t-25.5 -2zM206 551q6 27 8 46t2 33q0 24 -17.5 31.5
t-52.5 10.5h-19l5 26q60 -3 119 -3q18 0 33.5 0.5t32.5 1t36.5 1t46.5 0.5q55 0 95.5 -7t70.5 -18t52 -24.5t39 -26.5q51 -38 82 -98t31 -142q0 -88 -32 -159t-87.5 -120.5t-130.5 -76t-161 -26.5q-33 0 -66.5 0.5t-66.5 0.5q-51 0 -101.5 -0.5t-101.5 -0.5l5 26h22
q18 1 30 3.5t20 10t13 21t9 35.5z" />
    <glyph glyph-name="E" unicode="E" horiz-adv-x="667" 
d="M24 26h14q24 0 38 4.5t22.5 13.5t12.5 21.5t7 27.5l94 515q2 7 2 12v13q0 12 -14 25.5t-51 13.5h-20l5 26q61 -1 121.5 -2.5t121.5 -1.5t121 1.5t121 2.5l-11 -139h-20v24q0 27 -8 43.5t-26 25t-47.5 11.5t-72.5 3h-122l-52 -284h130q35 -1 62 7t35 38l13 48h17l-41 -227
h-16l3 39q3 34 -19.5 44t-70.5 10h-119l-39 -223q-2 -10 -3.5 -19.5t-1.5 -18.5q0 -20 11 -34t46 -14h157q43 0 69.5 7t44.5 23t31 42t29 64h23l-45 -168q-17 0 -56 0.5t-87 0.5t-99.5 0.5t-94.5 0.5q-55 0 -110 -0.5t-110 -1.5z" />
    <glyph glyph-name="F" unicode="F" 
d="M24 26h12q21 0 34.5 1.5t21.5 7.5t13.5 18t10.5 32l93 500q4 20 4 39q0 33 -20 41.5t-57 6.5h-9l5 26q69 -3 136.5 -3.5t136.5 -0.5q41 0 80.5 2t80.5 2l-10 -137h-21q-2 22 -3.5 47.5t-19.5 41.5q-9 8 -28 11.5t-43.5 4.5t-51.5 0.5t-52 -0.5h-26l-51 -284h130
q30 1 47.5 4t28.5 12t17.5 24t14.5 40l5 16h21l-42 -242h-20q2 13 4 25.5t2 26.5q0 32 -21 42t-46 11h-150l-43 -254q-1 -7 -1.5 -12.5t-0.5 -10.5q0 -12 3 -19.5t11.5 -12t24 -5.5t39.5 -1h17l-5 -26h-48h-38q-17 0 -33 0.5t-34 0.5h-32q-17 0 -35 -0.5t-34 -0.5h-23z" />
    <glyph glyph-name="G" unicode="G" horiz-adv-x="833" 
d="M742 503h-20q0 80 -37 121q-14 15 -33.5 26t-41 18t-44 10t-41.5 3q-68 0 -128.5 -31t-106 -82t-72 -116t-26.5 -134q0 -54 16 -108t46 -97t74.5 -69.5t101.5 -26.5q27 0 52.5 3.5t46.5 14t36 29t21 48.5l16 101q3 18 -3.5 28t-18.5 14.5t-27 5.5t-29 1h-21l5 26
q82 -3 166 -3q26 0 52.5 1.5t52.5 1.5l-5 -25h-13q-21 0 -33.5 -6t-20.5 -17t-12.5 -26.5t-8.5 -33.5l-23 -141q-54 -22 -117.5 -38t-121.5 -16q-72 0 -133.5 23t-106.5 66t-70.5 104t-25.5 137q0 85 34 158t92 126t134 83.5t160 30.5q46 0 96.5 -9.5t89.5 -24.5
q30 -11 39 -11q8 0 13 4t7 4l16 -4z" />
    <glyph glyph-name="H" unicode="H" horiz-adv-x="833" 
d="M259 382h373l40 218q5 26 2.5 40.5t-9.5 21.5t-17.5 8.5t-22.5 1.5h-34l5 26q72 -3 141 -3q31 0 61 1.5t62 1.5l-5 -26h-18q-24 0 -37.5 -4.5t-21 -16t-12 -31t-10.5 -49.5l-83 -444q-6 -33 -8 -53.5t2.5 -31t15 -13.5t28.5 -3h37l-5 -26q-33 0 -66.5 1t-66.5 1
q-32 0 -64.5 -0.5t-64.5 -1.5l5 26h19q22 0 35 4t20.5 13.5t11.5 26t9 40.5l42 231h-371l-41 -214q-6 -33 -8 -53.5t2.5 -31t15 -13.5t28.5 -3h37l-5 -26q-33 0 -66.5 1t-66.5 1q-32 0 -64.5 -0.5t-64.5 -1.5l5 26h19q22 0 35 4t20.5 13.5t11.5 26t9 40.5l90 490
q5 26 2.5 40.5t-9.5 21.5t-17.5 8.5t-22.5 1.5h-34l5 26q72 -3 141 -3q31 0 61 1.5t62 1.5l-5 -26h-18q-24 0 -37.5 -4.5t-21 -16t-12 -31t-10.5 -49.5z" />
    <glyph glyph-name="I" unicode="I" horiz-adv-x="389" 
d="M28 26h17q21 0 33.5 3t20 10.5t12.5 21.5t10 36l97 529q3 19 -3 28.5t-16.5 13.5t-24.5 4h-23h-18l5 26q38 -2 74 -2h73q29 0 58 1t59 1l-5 -26h-19h-14t-21 -3.5t-21 -12.5t-14 -27l-98 -533q-4 -23 -3 -36.5t8.5 -21t22.5 -10t38 -2.5h15l-5 -26q-33 0 -66.5 1t-66.5 1
q-32 0 -65 -0.5t-65 -1.5z" />
    <glyph glyph-name="J" unicode="J" horiz-adv-x="389" 
d="M217 578q7 32 9 44.5t2 19.5q0 14 -13 22t-33 8h-47l5 26q67 -3 134 -3q32 0 64 1.5t64 1.5l-5 -26h-26q-16 0 -25.5 -4t-15.5 -12.5t-9 -20t-6 -26.5l-94 -478q-6 -35 -17.5 -77t-27.5 -83.5t-35.5 -79.5t-43.5 -65q-23 -26 -45 -40t-55 -14q-24 0 -46 14.5t-22 40.5
q0 15 11 26t27 11q20 0 27 -9.5t10 -20.5t7 -20.5t19 -9.5q8 0 16.5 7t17 23.5t16.5 43t16 66.5z" />
    <glyph glyph-name="K" unicode="K" horiz-adv-x="722" 
d="M135 698q35 -2 69 -2h69q30 0 60.5 1t60.5 1l-5 -26q-13 0 -27.5 -1.5t-27 -7.5t-22 -18t-13.5 -32l-46 -257h11q16 0 29.5 6t25 16t22 21t21.5 22q7 7 24 24.5t38.5 40.5t44.5 49t42 49t31.5 40.5t12.5 24.5q0 16 -11.5 20t-24.5 3h-14l5 26q25 -2 49 -2h50q27 0 54.5 1
t54.5 1l-5 -26q-13 0 -25.5 -1t-23.5 -6t-23.5 -14t-25 -19.5t-24 -21t-20.5 -18.5l-215 -221l201 -275q9 -12 18.5 -24t20.5 -22.5t24 -17t28 -6.5h12l-5 -26q-20 0 -40.5 1t-40.5 1q-11 0 -22 -1t-22 -1q-12 0 -27 17t-40 50q-38 52 -82.5 115t-92.5 127q-7 9 -13 15
t-17 6h-11l-36 -197q-3 -20 -6 -40.5t-3 -32.5q0 -6 2 -12t8.5 -11t20 -8t37.5 -3h15l-5 -26q-30 0 -59.5 1t-59.5 1q-35 0 -69 -0.5t-69 -1.5l5 26h4q20 1 35 1q16 0 30 17q5 6 8.5 16t6.5 21.5t5 23t4 19.5l88 479q4 19 4 34q0 13 -5.5 20.5t-14.5 11t-21 3.5h-25h-17z
" />
    <glyph glyph-name="L" unicode="L" horiz-adv-x="667" 
d="M574 0q-77 1 -153.5 1.5t-153.5 0.5h-118q-58 0 -117 -2l5 26h26q20 2 33 7.5t21.5 16t13.5 27.5t9 41l88 498q4 21 -4.5 33t-23 17.5t-31.5 6t-30 -0.5l5 26q38 0 75.5 -1t75.5 -1q32 0 64.5 1t64.5 1l-5 -26q-24 0 -40.5 -1t-27.5 -7t-18 -19.5t-13 -37.5l-105 -575
h212q72 0 114.5 37.5t62.5 104.5h24z" />
    <glyph glyph-name="M" unicode="M" horiz-adv-x="944" 
d="M19 26h11q21 0 35.5 3t25 12.5t19 28.5t16.5 52l124 496q-13 35 -35.5 44t-55.5 10h-13l5 26q23 -2 46 -2h48q22 0 43.5 1t43.5 1l136 -564l288 564q18 -2 36 -2h36q26 0 51.5 1t50.5 1l-5 -26h-11q-44 0 -59.5 -16.5t-17.5 -51.5l-32 -506q-2 -41 13 -56.5t56 -15.5h16
l-5 -26q-32 0 -65 1t-65 1q-36 0 -72 -0.5t-72 -1.5l5 26h12q22 0 37 2t25 9.5t15.5 21.5t7.5 37l37 497h-2l-304 -593h-34l-132 558h-2l-109 -464q-2 -8 -3.5 -15t-1.5 -14q0 -17 7.5 -28t32.5 -11h40l-5 -26q-22 0 -43.5 1t-43.5 1q-34 0 -68 -0.5t-68 -1.5z" />
    <glyph glyph-name="N" unicode="N" horiz-adv-x="833" 
d="M23 26h14q21 0 36 3.5t26 17t20 41t17 74.5l76 432q0 2 -4.5 10t-12 18t-17.5 19t-20 14q-17 8 -33 12.5t-23 4.5h-9l4 26q45 -3 91 -3q17 0 33.5 1.5t33.5 1.5l382 -567l71 417q4 17 5.5 33.5t1.5 33.5q0 19 -6 30.5t-15.5 17.5t-23 7.5t-28.5 1.5h-19l4 26
q55 -3 111 -3q29 0 59 1.5t59 1.5l-4 -26h-15q-25 0 -39 -9.5t-22 -26t-12.5 -38t-8.5 -45.5l-86 -467q13 -21 29.5 -40t41.5 -26l-5 -20q-15 1 -29.5 1.5t-29.5 0.5t-30 -0.5t-30 -1.5l-371 551l-66 -404q-3 -19 -6.5 -39.5t-3.5 -35.5q0 -20 14.5 -33t49.5 -13h32l-5 -26
q-30 0 -60.5 1t-60.5 1t-60 -0.5t-60 -1.5z" />
    <glyph glyph-name="O" unicode="O" horiz-adv-x="889" 
d="M186 294q0 -59 13.5 -109.5t43 -88t76 -58.5t112.5 -21q74 0 129.5 35.5t93 91t56 122.5t18.5 130q0 56 -14 107.5t-44 91t-76 63t-110 23.5q-78 0 -134 -35.5t-92.5 -91t-54 -124.5t-17.5 -136zM88 315q0 83 31 155.5t84.5 126.5t125.5 85t154 31q67 0 129.5 -22.5
t109.5 -64t75.5 -99.5t28.5 -129q0 -86 -30 -161t-83 -131t-126.5 -88.5t-160.5 -32.5q-75 0 -137 23t-107 65.5t-69.5 103.5t-24.5 138z" />
    <glyph glyph-name="P" unicode="P" horiz-adv-x="611" 
d="M28 26h21q13 1 23.5 3t18.5 7t14.5 16t10.5 30l94 530q3 18 -1.5 30t-15.5 18.5t-27.5 9t-36.5 2.5h-11l5 26q35 -2 70 -2h71t70 1t70 1q37 0 71 -9t59 -28t40 -49t15 -71q0 -50 -21 -88t-55 -64t-78 -39.5t-90 -13.5h-26q-12 0 -25 2l5 30h31q29 0 57.5 8.5t51.5 28.5
t37.5 53t14.5 82q0 66 -32 96t-101 30q-11 0 -23 -1t-23 -2l-68 -377l-32 -181l-5 -36q0 -17 7.5 -26t19.5 -13t26 -4h28h18l-5 -26q-35 1 -70.5 1.5t-70.5 0.5t-68.5 -0.5t-68.5 -1.5z" />
    <glyph glyph-name="Q" unicode="Q" horiz-adv-x="889" 
d="M186 294q0 -59 13.5 -109.5t43 -88t76 -59t112.5 -21.5q74 0 129.5 36t93 91.5t56 122.5t18.5 130q0 56 -14 107.5t-44 91t-76 63t-110 23.5q-78 0 -134 -35.5t-92.5 -91t-54 -124.5t-17.5 -136zM56 -81q32 6 75.5 14.5t85.5 18t77 17.5t50 12l26 7v2q-64 7 -116 33
t-89 68t-57 98.5t-20 125.5q0 83 31 155.5t84.5 126.5t125.5 85t154 31q67 0 129.5 -22.5t109.5 -64t75.5 -99.5t28.5 -129q0 -75 -24 -142.5t-70.5 -122.5t-115.5 -95.5t-159 -61.5q-50 -11 -102 -22.5t-120 -27.5v-2q37 -11 73.5 -21t73.5 -21q32 -9 68 -19.5t73.5 -20
t74 -16t69.5 -7.5q9 0 21 1.5t22.5 6t18 12t7.5 19.5q0 9 -2.5 18t-2.5 14q0 14 9.5 22.5t22.5 8.5q26 0 26 -26q0 -21 -16.5 -43.5t-45.5 -40.5t-68 -29t-83 -10q-35 1 -83 11.5t-99 25t-99.5 29.5t-84.5 26q-15 5 -35 10.5t-41.5 11t-42 9t-35.5 4.5v20z" />
    <glyph glyph-name="R" unicode="R" horiz-adv-x="722" 
d="M269 376h34q18 0 35 1q36 1 66.5 12.5t53.5 32t36 50t13 66.5q0 73 -44 100.5t-129 27.5h-13zM136 698q34 -2 67 -2h67q26 0 51.5 1t51.5 1q37 0 77 -7t73 -24t54.5 -46.5t21.5 -75.5q0 -44 -17.5 -77t-46.5 -55.5t-66 -36t-76 -19.5q52 -51 87 -113.5t72 -125.5
q10 -17 21 -35t25 -32t31.5 -21.5t41.5 -3.5l-5 -26h-123q-11 0 -25.5 14t-31 37.5t-34 53t-35.5 61.5t-35.5 63t-33.5 56.5t-29 42.5t-23 20q-8 2 -16 2h-16l-42 -246l-5 -39q0 -15 7.5 -22.5t18.5 -11.5t24.5 -4.5t25.5 -0.5h17l-5 -26q-35 1 -68.5 1.5t-68.5 0.5
q-34 0 -68 -0.5t-68 -1.5l5 26h10q17 0 30.5 1t23 8t17 21.5t12.5 41.5l90 496q4 17 4 33q0 29 -19.5 37t-57.5 8h-16z" />
    <glyph glyph-name="S" unicode="S" horiz-adv-x="500" 
d="M70 203q2 -30 3.5 -55.5t13.5 -54.5q14 -35 49 -55.5t74 -20.5q28 0 53 8t43.5 24t29.5 38.5t11 51.5q0 36 -16.5 67.5t-41.5 61t-53.5 59t-53.5 60.5t-41.5 66t-16.5 76q0 40 13.5 74t38.5 58.5t59 38t76 13.5q33 0 56.5 -4t52.5 -14q7 -2 14 -4.5t14 -2.5q8 0 11.5 3
t8.5 6h17l-31 -176h-22q0 11 1 21t1 21q0 56 -33.5 87t-88.5 31q-50 0 -79 -27t-29 -78q0 -35 17.5 -65.5t43.5 -60.5t56.5 -60t56.5 -62t43.5 -68t17.5 -77q0 -42 -16.5 -78.5t-46 -63t-68.5 -41.5t-84 -15q-48 0 -82.5 12t-62.5 24l-33 -30h-23l27 212h20z" />
    <glyph glyph-name="T" unicode="T" horiz-adv-x="667" 
d="M366 657h-169q-31 0 -49.5 -12t-29.5 -29.5t-16.5 -37t-10.5 -34.5h-26l37 169h18q27 -15 58 -15h469q13 0 28 3t26 12h17l-17 -171h-26v27q0 25 -3 42t-11.5 27t-24 14.5t-40.5 4.5h-137l-97 -535q0 -3 -1.5 -11t-3 -17t-3 -17t-1.5 -12q0 -23 17 -31t56 -8h26l-5 -26
q-40 0 -80 1t-80 1q-32 0 -65 -0.5t-65 -1.5l5 26h31q33 -1 49.5 15t24.5 63z" />
    <glyph glyph-name="U" unicode="U" horiz-adv-x="778" 
d="M200 557q3 18 5 34t2 28q0 20 -6 30.5t-16.5 15.5t-24 6t-28.5 1h-19l5 26q39 -2 78 -2h79q33 0 66 1t67 1l-5 -25h-23q-18 -1 -32 -5.5t-25 -18t-19.5 -37.5t-14.5 -63l-54 -335q-3 -21 -3 -40q0 -39 14.5 -67t37.5 -46t52 -26.5t59 -8.5q66 0 105 22t61.5 59.5t33 87
t18.5 103.5l48 274q2 13 2.5 21t0.5 17q0 33 -21.5 47.5t-63.5 14.5h-15l5 26q30 -2 61 -2h62q27 0 54.5 1t54.5 1l-5 -26h-13q-27 0 -42.5 -16.5t-24.5 -40.5t-13 -50.5t-7 -47.5l-44 -266q-7 -39 -13.5 -68.5t-15.5 -52.5t-21.5 -42t-31.5 -37q-30 -29 -77 -47.5
t-118 -18.5q-43 0 -85 10t-75.5 31.5t-54 56.5t-20.5 85q0 32 4.5 65t10.5 65z" />
    <glyph glyph-name="V" unicode="V" horiz-adv-x="722" 
d="M365 672h-5q-16 0 -30.5 -1.5t-25 -6t-16 -12.5t-2.5 -22l104 -513h2l235 484q5 11 8.5 20.5t3.5 20.5t-8.5 17t-21 9t-26 3.5t-22.5 0.5h-8l5 26q29 -2 56 -2h57q27 0 53.5 1t53.5 1l-5 -26q-33 2 -51 -10t-32 -41l-330 -636h-34l-129 615q-4 19 -9 32.5t-14 22.5
t-24.5 13t-39.5 4h-6l5 26q32 0 63.5 -1t63.5 -1q33 0 66.5 1t67.5 1z" />
    <glyph glyph-name="W" unicode="W" horiz-adv-x="1000" 
d="M343 672h-10q-20 0 -37.5 -5.5t-16.5 -24.5q1 -18 7 -38l112 -494l137 241l-76 284q-7 20 -21 27.5t-44 9.5h-12l5 26q30 -2 60.5 -1.5t61.5 -0.5q28 -1 53.5 0.5t41.5 1.5l-5 -26h-19q-15 -1 -22 -10.5t-4 -21.5l42 -182h2l82 150q13 28 13 39q0 17 -10.5 20.5
t-36.5 4.5h-9l5 26q22 -2 44 -1.5t45 -0.5q24 -1 47.5 -0.5t48.5 2.5l-5 -26h-15q-18 1 -30 -4t-21 -14.5t-16 -22t-16 -27.5q-3 -5 -15.5 -26.5t-28.5 -48.5t-32.5 -55t-26.5 -45t-11 -18l75 -301h2l231 480q6 13 11.5 26.5t5.5 28.5q0 16 -11.5 21t-49.5 6h-12l5 26
q23 -2 49 -2.5t52 0.5q23 1 45.5 1.5t45.5 0.5l-5 -26h-8q-27 -1 -40 -19t-28 -47l-318 -621h-28l-85 317l-184 -317h-26l-154 650q-5 20 -18.5 27.5t-43.5 9.5h-12l5 26q30 -2 60.5 -1.5t61.5 -0.5q28 -1 55.5 0.5t56.5 1.5z" />
    <glyph glyph-name="X" unicode="X" horiz-adv-x="778" 
d="M19 26h16q17 2 29 4.5t29 11.5q8 4 21 15.5t28 28.5l224 250l-158 287q-9 16 -17.5 25.5t-19 14.5t-24.5 7t-32 2h-13l5 26q32 -2 65 -1.5t66 -0.5q35 -1 68.5 -0.5t68.5 2.5l-5 -26h-8q-8 0 -17.5 -0.5t-18 -3t-14 -7t-5.5 -13.5q0 -5 3.5 -15.5t11.5 -24.5l110 -202
l185 216q12 15 12 24q0 3 -1.5 7.5t-7.5 8.5t-18.5 7t-33.5 3h-10l5 26q29 0 57.5 -1t57.5 -1q26 0 52 1t53 1l-5 -26h-15q-19 0 -41 -14t-35 -28l-236 -257l152 -273q21 -38 37.5 -56t47.5 -18h23l-5 -26q-32 0 -62.5 1t-62.5 1q-35 0 -68.5 -0.5t-68.5 -1.5l5 26h11h17
q10 0 18 2.5t13 7.5t5 15q0 14 -19 49l-109 201l-180 -215q-8 -8 -15 -18t-7 -22q0 -8 6 -12t14 -6t17 -2h18h9l-5 -26q-28 0 -56 1t-56 1q-29 0 -58 -0.5t-58 -1.5z" />
    <glyph glyph-name="Y" unicode="Y" horiz-adv-x="667" 
d="M346 672h-36q-15 0 -28.5 -8t-4.5 -29l128 -303l182 285q8 13 10.5 21.5t2.5 12.5q0 7 -6.5 11.5t-15.5 6.5t-20 2.5t-20 0.5h-17l4 26q30 -2 60 -2h61h37t37 2l-5 -26q-22 2 -38.5 -14t-28.5 -33l-10 -15l-220 -323l-37 -196q-5 -24 -0.5 -37.5t15.5 -19.5t27 -7t35 -1
h18l-5 -26q-38 0 -77 1t-77 1q-32 0 -64.5 -0.5t-64.5 -1.5l4 26h22q22 0 35.5 2.5t21.5 9.5t12 19t7 29l38 199l-154 352q-8 18 -28.5 26.5t-42.5 8.5h-10l4 26q31 -2 61 -2h62q33 0 65.5 1t65.5 1z" />
    <glyph glyph-name="Z" unicode="Z" horiz-adv-x="722" 
d="M21 8l548 652h-233q-42 0 -72 -2.5t-52.5 -13.5t-39.5 -33.5t-32 -63.5h-24l44 151h544v-8l-542 -649h316q27 0 45.5 3.5t31 9t20.5 12t14 11.5q9 7 17 19.5t15.5 27.5t14 30.5t10.5 28.5h23l-47 -183q-78 1 -154.5 1.5t-154.5 0.5q-73 0 -146 -1t-146 -1v8z" />
    <glyph glyph-name="bracketleft" unicode="[" horiz-adv-x="333" 
d="M206 -193q-21 0 -42 1t-42 1q-19 0 -40 -1t-38 -1l-3 11l169 887l7 8q17 0 37 -1t35 -1q19 0 38 1t38 1l-4 -26h-33q-31 0 -47 -6.5t-21 -35.5l-146 -764l-2 -12t-1 -12q0 -8 5 -13t13 -7.5t18 -3t19 -0.5h44z" />
    <glyph glyph-name="backslash" unicode="\" horiz-adv-x="278" 
d="M243 -15l-234 728h66l234 -728h-66z" />
    <glyph glyph-name="bracketright" unicode="]" horiz-adv-x="333" 
d="M137 713q21 0 42 -1t42 -1q19 0 40 1t38 1l3 -11l-169 -887l-7 -8q-17 0 -37 1t-35 1q-19 0 -38 -1t-38 -1l4 26h33q31 0 47 6.5t21 35.5l146 764l2 12t1 12q0 5 -1.5 10t-5.5 8q-7 5 -20 5.5t-28 0.5h-44z" />
    <glyph glyph-name="asciicircum" unicode="^" 
d="M67 325l181 365h60l181 -365h-68l-143 291l-143 -291h-68z" />
    <glyph glyph-name="underscore" unicode="_" horiz-adv-x="500" 
d="M0 -125v50h500v-50h-500z" />
    <glyph glyph-name="grave" unicode="`" horiz-adv-x="278" 
d="M272 546h-21q-6 0 -10 3t-7 5l-117 88q-12 10 -20.5 20t-8.5 19q0 11 9.5 21.5t20.5 10.5q13 0 19 -3t14 -13z" />
    <glyph glyph-name="a" unicode="a" horiz-adv-x="500" 
d="M313 177l1 -2h-2zM87 128q0 -26 11 -47.5t40 -21.5q24 0 50 16t50.5 42t46.5 58.5t38.5 66t26 64.5t9.5 53q0 19 -15 35t-35 16q-27 0 -54 -14t-51.5 -37t-46 -53t-37 -61t-24.5 -61.5t-9 -55.5zM414 456q3 5 8 12.5t14 7.5h21q9 0 9 -5q0 -2 -0.5 -3.5l-1.5 -4.5
l-99 -355q-4 -12 -4 -25q0 -5 2.5 -9.5t9.5 -4.5q11 0 21 7t19.5 16.5t18 19.5t15.5 16l16 -13q-15 -15 -33 -37.5t-38 -43t-42.5 -35t-46.5 -14.5q-11 0 -22.5 6.5t-11.5 21.5q0 13 5 32.5t12 40.5l29 91h-2q-19 -29 -45 -62.5t-56 -62.5t-61.5 -48t-61.5 -19
q-23 0 -37.5 8t-23 20t-12 26.5t-3.5 28.5q0 40 15 84t40.5 87.5t58.5 83t69 69t72.5 47.5t68.5 18q19 0 35.5 -9.5t27.5 -23.5z" />
    <glyph glyph-name="b" unicode="b" 
d="M432 346q0 29 -12.5 49.5t-47.5 20.5q-31 0 -61.5 -16t-57.5 -42t-50.5 -60t-40.5 -69.5t-26.5 -70t-9.5 -62.5q0 -15 3 -30.5t10 -27.5t19 -19.5t29 -7.5q31 0 61 17t57 44.5t50.5 63t40.5 73t26.5 73t9.5 64.5zM171 315l2 -2q20 23 45.5 48.5t54 46.5t60.5 35t66 14
q60 0 86.5 -35t26.5 -92q0 -60 -31 -121.5t-80 -111t-110 -81t-120 -31.5q-25 0 -46.5 6.5t-37.5 19.5t-25.5 33.5t-9.5 47.5q0 19 3.5 37.5t8.5 36.5l132 526l-47 29l3 18q16 2 35.5 5t41.5 8q14 3 32 7t32 9l8 -6z" />
    <glyph glyph-name="c" unicode="c" horiz-adv-x="444" 
d="M416 128q-24 -28 -51 -53.5t-57.5 -45.5t-64.5 -32t-73 -12q-60 0 -91 38.5t-31 97.5q0 51 18 98t48.5 86t70.5 69.5t84 48.5l25 10t30.5 11.5t30.5 9t26 3.5q17 0 33 -10t16 -30q0 -23 -13.5 -37.5t-32.5 -14.5q-13 0 -23 5t-19.5 11t-18.5 11t-21 5q-38 0 -70 -30
t-55 -72t-36 -87.5t-13 -76.5q0 -43 25 -67.5t70 -24.5q25 0 50 10t48.5 26t43.5 34.5t37 36.5z" />
    <glyph glyph-name="d" unicode="d" 
d="M116 131q0 -17 3.5 -33.5t12 -29.5t22.5 -21t34 -8q25 0 50 15.5t47.5 41t41.5 57t32.5 63.5t21.5 61.5t8 49.5q0 36 -15.5 62.5t-55.5 26.5q-28 0 -54 -14.5t-48.5 -38.5t-41 -54.5t-31.5 -62t-20 -62t-7 -53.5zM521 121q-13 -18 -32 -41.5t-41 -44.5t-46.5 -35.5
t-48.5 -14.5q-13 0 -22 8.5t-9 22.5q0 18 6.5 43t12.5 45l7 22h-2q-21 -25 -43.5 -50t-49 -45.5t-56.5 -33t-64 -12.5q-27 0 -45.5 10t-30 26.5t-16.5 38.5t-5 46q0 48 19.5 97t48.5 92q18 25 44.5 53.5t58.5 52.5t66 40t67 16q20 0 39.5 -6t36.5 -16l49 252l-60 32l5 14
q33 3 73 11q20 5 38 10t35 10l10 -4l-155 -647l-3.5 -17.5t-1.5 -15.5q0 -16 16 -16q10 0 22.5 8.5t24 19.5t22 23t16.5 20z" />
    <glyph glyph-name="e" unicode="e" horiz-adv-x="444" 
d="M129 219q34 2 72 12.5t69 30.5t51.5 49.5t20.5 70.5q0 20 -10.5 31.5t-30.5 11.5q-29 0 -57 -23t-51.5 -55.5t-40.5 -67.5t-23 -60zM386 115q-50 -55 -105.5 -92.5t-121.5 -37.5q-35 0 -58.5 11.5t-37.5 30.5t-20.5 43.5t-6.5 49.5q0 60 24.5 120t65 108.5t92.5 78.5
t106 30q17 0 34.5 -3.5t31.5 -11.5t23 -21.5t9 -34.5q0 -51 -31.5 -86t-77.5 -57.5t-97.5 -34t-91.5 -15.5q-5 -20 -6.5 -38.5t-1.5 -38.5q0 -38 23.5 -57.5t58.5 -19.5q44 0 87.5 25.5t86.5 67.5z" />
    <glyph glyph-name="f" unicode="f" horiz-adv-x="333" 
d="M352 442l-12 -41h-109l-167 -611l-61 -18l-3 6l154 623h-90l11 41h88q12 42 24 78.5t28.5 70t39.5 64.5t58 61q20 18 49 33t58 15q15 0 28 -7t13 -25q0 -5 -2 -13.5t-5.5 -16t-8.5 -13t-12 -5.5q-14 0 -30 10t-33 10q-23 0 -38.5 -11.5t-26 -29.5t-17 -40.5t-11.5 -43.5
l-35 -137h110z" />
    <glyph glyph-name="g" unicode="g" horiz-adv-x="500" 
d="M356 346q0 16 -4 31t-12 27t-22 19.5t-33 7.5q-30 1 -53.5 -15.5t-39.5 -42t-24.5 -55t-8.5 -54.5q0 -36 16 -62.5t57 -26.5q30 0 53 17t39 43t24 55.5t8 55.5zM169 10q-8 -3 -27.5 -12t-40.5 -23t-37 -32.5t-16 -39.5q0 -28 15 -47t38 -30.5t49.5 -16.5t49.5 -5
q18 0 43 3.5t47.5 12.5t38.5 25t16 40q0 20 -14.5 35t-34.5 25zM333 14q17 -9 31.5 -18t25 -20t16 -25.5t5.5 -36.5q0 -38 -23.5 -65t-57.5 -44t-73 -25t-69 -8q-27 0 -62.5 4.5t-67.5 17t-54 35t-22 58.5q0 27 16.5 49t41 38.5t51.5 28.5t48 20q-7 4 -16.5 9.5t-18.5 12
t-15 14.5t-6 19q0 14 9 27t21.5 23.5t26.5 19.5t24 16q-41 23 -63 50t-22 75q0 35 17 66t45 53.5t63 35.5t70 13q22 0 38.5 -3t30.5 -7.5t29 -10t34 -10.5q5 -2 10.5 -3.5t10.5 -1.5q9 0 17 3.5t16 8.5t15.5 8.5t15.5 3.5q10 0 13 -9t3 -20q0 -14 -6 -25.5t-18 -11.5
q-8 0 -16 3.5t-17 8t-20.5 8.5t-25.5 6q32 -35 32 -84q0 -39 -18 -71t-46.5 -54.5t-64.5 -34.5t-73 -12q-24 0 -46 3q-3 -1 -8.5 -5.5t-10.5 -9.5t-8.5 -10.5t-3.5 -9.5q0 -10 5.5 -14t13.5 -8z" />
    <glyph glyph-name="h" unicode="h" 
d="M154 233h2q11 17 28.5 40t40 48t48.5 49.5t52.5 43.5t53 31t49.5 12q40 0 56 -25t16 -62q0 -25 -9.5 -62.5t-26 -78.5t-38.5 -82t-47 -73.5t-51.5 -53t-52.5 -20.5q-14 0 -19 6.5t-5 15.5q0 5 1.5 10t3.5 10l21 49h69q12 23 25 55t24 66t18 67t7 59t-8.5 42.5t-31.5 16.5
q-17 0 -38 -11.5t-42.5 -30t-42.5 -42t-39.5 -46.5t-32.5 -43.5t-21 -34.5q-13 -24 -21 -43t-14.5 -38t-12 -40.5t-12.5 -49.5q-2 -7 -9.5 -11.5t-33.5 -4.5q-10 0 -21 4t-11 13q0 8 2 15.5t4 15.5l158 647l-49 28l3 13q12 2 29.5 4t36.5 5q18 3 35.5 7.5t35.5 9.5l11 -4z
" />
    <glyph glyph-name="i" unicode="i" horiz-adv-x="278" 
d="M229 690q19 0 32.5 -14.5t13.5 -32.5q0 -17 -14 -31t-32 -14t-32 14t-14 31q0 18 13.5 32.5t32.5 14.5zM49 327q11 16 29 38.5t39.5 43t45 34.5t44.5 14q18 0 24.5 -7t6.5 -18t-5 -28t-9 -28l-82 -254q-5 -14 -7.5 -24.5t-2.5 -17.5q0 -15 13 -15q5 0 16 8.5t23 20
t22.5 22l14.5 14.5l16 -13q-12 -16 -30 -38.5t-39.5 -43.5t-45 -35.5t-44.5 -14.5q-22 0 -30 11.5t-8 28.5q0 9 3 21.5t8 27.5l86 254q4 11 6.5 20.5t2.5 16.5q0 12 -12 12q-8 0 -18.5 -8t-20.5 -18.5t-19 -21t-13 -16.5z" />
    <glyph glyph-name="j" unicode="j" horiz-adv-x="278" 
d="M229 690q17 0 31.5 -13.5t14.5 -32.5q0 -18 -14 -32t-32 -14q-19 0 -32.5 14.5t-13.5 31.5q0 18 14 32t32 14zM-38 -206q19 11 35 34t26 61l115 440q2 8 5 17.5t3 18.5q0 12 -12 12q-8 0 -18.5 -8t-20.5 -18.5t-19 -21t-13 -16.5l-14 14q11 16 29 38.5t39.5 43t45 34.5
t44.5 14q18 0 24.5 -7t6.5 -18q0 -5 -2.5 -15t-6 -22.5l-7 -25t-6.5 -22.5l-104 -374q-9 -32 -16 -51.5t-14 -33t-15 -24.5t-19 -27q-15 -21 -35.5 -37.5t-43.5 -27.5z" />
    <glyph glyph-name="k" unicode="k" 
d="M405 350q0 20 -12.5 33.5t-40.5 13.5q-32 0 -63 -20.5t-56.5 -49.5t-44 -62.5t-25.5 -58.5q11 0 21 0.5t21 1.5q27 2 61.5 13.5t65.5 30t52 43.5t21 55zM208 685l-49 30l3 16q12 2 31 6t38.5 9t37.5 9.5t30 8.5l9 -4l-116 -443h2q13 19 36.5 43.5t52 46t60 36t61.5 14.5
q34 0 54.5 -19.5t20.5 -54.5q0 -38 -22.5 -69t-56.5 -55t-73 -40.5t-72 -24.5v-2q17 -7 34.5 -24t35 -38l35 -42t35.5 -36q19 -16 33.5 -21t40.5 -5q8 0 16 3.5t14 7.5v-26q-23 -14 -47.5 -20t-49.5 -6q-38 0 -67 17.5t-52 47.5l-71 94q-10 14 -22 26t-30 16l-49 -180
q-5 -20 -37 -20q-14 0 -24.5 6.5t-8.5 14.5z" />
    <glyph glyph-name="l" unicode="l" horiz-adv-x="278" 
d="M136 106q-1 -3 -2 -9t-1 -11q0 -8 2 -14.5t11 -6.5q7 0 18.5 10t23 23t21.5 25.5t14 18.5l12 -21q-12 -16 -28.5 -39.5t-36 -45t-41.5 -36.5t-45 -15t-30 14.5t-7 34.5q0 14 2.5 27t4.5 22l140 604l-60 32l5 14q33 3 73 11q20 5 38 10t35 10l7 -6z" />
    <glyph glyph-name="m" unicode="m" horiz-adv-x="833" 
d="M795 122l-31 -34q-15 -16 -31 -32t-33.5 -28.5t-36.5 -20t-40 -7.5q-14 0 -25.5 7t-11.5 27q0 8 3.5 20t8.5 27l81 232q4 11 7.5 22t3.5 19q0 12 -7.5 18t-15.5 6q-20 0 -45 -16.5t-50 -39t-46.5 -46t-33.5 -38.5q-35 -44 -58.5 -86t-44.5 -96l-19 -46q-2 -7 -14.5 -9.5
t-19.5 -2.5q-9 0 -21 4.5t-14 9.5l90 266q2 8 9.5 31t7.5 43q0 11 -4 18t-15 7q-20 0 -41 -11.5t-40.5 -28t-36 -34.5t-28.5 -31q-42 -45 -73.5 -96t-51.5 -108l-20 -57q-2 -6 -15 -8.5t-22 -2.5q-8 0 -18 4t-14 9l106 319q1 5 2.5 11.5t1.5 13.5q0 8 -3.5 14t-12.5 6
q-16 0 -30 -10.5t-28 -24.5l-27 -30l-15 18q14 18 34 40t42.5 41.5t47.5 32.5t50 13q18 0 26 -10.5t8 -24.5q0 -13 -4 -26t-7 -22l-52 -151h2q18 26 52.5 65.5t75 77t82.5 64.5t75 27q23 0 34 -9.5t11 -23.5q0 -12 -3 -26t-8 -28l-48 -149h2q14 17 34.5 41t46 50.5t54 52
t57 46t56 33.5t51.5 13q23 0 31.5 -12t8.5 -29q0 -12 -3 -25t-7 -24l-80 -234q-4 -12 -9 -25.5t-5 -21.5q0 -6 5.5 -9t10.5 -3q7 0 19 7.5t25.5 18t25 21t17.5 16.5z" />
    <glyph glyph-name="n" unicode="n" 
d="M30 331q14 18 34 39.5t42.5 41t47.5 32.5t50 13q18 0 26 -10t8 -24q0 -13 -4 -26t-7 -22l-52 -151h2q18 26 52.5 65.5t76 77t85 64t80.5 26.5q23 0 31.5 -12t8.5 -29q0 -12 -3 -25t-7 -24l-80 -220q-7 -18 -11 -30.5t-4 -21.5t3.5 -15t14.5 -6q10 0 22.5 7.5t25 18.5
t22.5 23t16 21l17 -13l-36 -44q-13 -16 -28.5 -31.5t-33.5 -28t-37 -20t-40 -7.5q-20 0 -29 9.5t-9 23.5q0 12 3 26t11 36l78 213q2 7 7.5 23t5.5 27q0 10 -7.5 14.5t-15.5 4.5q-21 0 -42 -11t-40 -27t-35.5 -34t-28.5 -32q-42 -45 -73.5 -96t-51.5 -108l-20 -57
q-2 -6 -15 -8.5t-22 -2.5q-8 0 -18 4t-14 9l98 295q5 14 8.5 27.5t3.5 22.5q0 8 -3.5 13t-12.5 5q-16 0 -30 -10t-28 -24l-27 -30z" />
    <glyph glyph-name="o" unicode="o" 
d="M128 152q0 -28 5.5 -53.5t19 -45t36 -31t55.5 -11.5q48 0 83 29t57.5 72t33 91t10.5 87q0 27 -5.5 52t-18.5 45t-35 32t-54 12q-50 0 -85.5 -28t-58 -70t-33 -91t-10.5 -90zM48 186q0 54 21.5 103t58 86.5t85.5 59.5t103 22q43 0 78.5 -15.5t61 -43t39 -64.5t13.5 -80
q0 -53 -21 -101.5t-57 -86t-83.5 -59.5t-101.5 -22q-45 0 -81.5 14.5t-62 40.5t-39.5 63.5t-14 82.5z" />
    <glyph glyph-name="p" unicode="p" 
d="M170 159q-3 -17 -7 -34.5t-4 -46.5q0 -8 3.5 -19.5t10.5 -22t17 -18t24 -7.5q26 0 51 17t47.5 44.5t41.5 62.5t33 70.5t21.5 69t7.5 57.5q0 31 -10 49t-25 28t-32 13t-30 3q-27 0 -49.5 -4t-36.5 -11zM189 541l83 24l-31 -126q16 6 44 12t66 6q32 0 59.5 -6t48 -20.5
t32 -38.5t11.5 -59q0 -34 -11.5 -72.5t-31 -77t-47 -74.5t-59.5 -63.5t-68 -44t-72 -16.5q-22 0 -42.5 8t-37.5 21l-49 -195l81 -14l-5 -18q-21 -2 -41.5 -3.5t-46.5 -3.5q-22 -2 -37 -4t-32 -4l-6 8l152 607l-60 -22t-59 -26l7 39q29 13 59 23.5t61 19.5z" />
    <glyph glyph-name="q" unicode="q" 
d="M324 410q-40 0 -78.5 -29t-68.5 -71.5t-48.5 -90t-18.5 -84.5q0 -15 3.5 -30t11 -27t20 -19.5t30.5 -7.5q26 0 53 14.5t51.5 38t46 53.5t38 62t25.5 62.5t9 55.5q0 34 -19.5 53.5t-54.5 19.5zM460 467l60 19l-169 -679l67 -14l-5 -21q-26 2 -52 2h-52h-60t-60 -2l5 24
l78 11l97 361h-2q-19 -26 -46 -57.5t-59.5 -59.5t-67.5 -47t-70 -19q-21 0 -37.5 9.5t-28 23.5t-17 31.5t-5.5 34.5q0 52 16.5 100t43.5 89.5t61 75t70 58t70.5 37.5t61.5 13q29 0 47.5 -12t28.5 -44h2z" />
    <glyph glyph-name="r" unicode="r" horiz-adv-x="389" 
d="M28 323q9 14 27 36.5t39.5 44.5t44 37.5t40.5 15.5q19 0 30 -9t11 -29q0 -8 -2.5 -21.5t-7.5 -30.5l-38 -137h2q7 13 19 34.5t27 47t32.5 51.5t35.5 46.5t36 34t34 13.5q31 0 31 -34q0 -9 -2 -21.5t-7 -24t-13 -20t-20 -8.5q-9 0 -18.5 2t-18.5 2q-17 0 -34.5 -15
t-34 -39t-31.5 -55.5t-28.5 -64.5t-25 -65t-19.5 -57l-18 -64q-2 -5 -12 -6.5t-24 -1.5q-10 0 -21 5.5t-11 12.5q0 3 2 9l79 276q4 12 8 30t4 29q0 8 -4.5 17t-14.5 9t-22 -7.5t-24 -18.5t-22 -22.5t-16 -18.5z" />
    <glyph glyph-name="s" unicode="s" horiz-adv-x="389" 
d="M50 125q4 -21 17 -36.5t31 -25t38.5 -14t40.5 -4.5q10 0 25.5 1.5t29.5 6.5t24 14t10 23q0 17 -11 32.5t-28 29.5t-37.5 28t-40 27.5t-35.5 28.5t-23 31q-5 11 -7 23t-2 23q0 19 11.5 37t28.5 34t35.5 29t33.5 22q20 13 35 17.5t39 4.5q15 0 30.5 -2.5t28 -9t20.5 -18.5
t8 -30q0 -5 -1.5 -12.5t-4.5 -14.5t-7 -12.5t-8 -5.5h-12q-6 0 -8.5 4.5t-5.5 10.5q-7 14 -32 25t-50 11q-13 0 -26 -3.5t-24 -10.5t-18 -17.5t-7 -25.5q0 -21 13 -37t33 -30.5t42.5 -28.5t42.5 -30t33 -36t13 -46q0 -15 -6.5 -30t-16.5 -29t-21 -26.5t-21 -21.5
q-25 -25 -54.5 -35.5t-64.5 -10.5q-18 0 -40 3t-41.5 12t-32.5 24t-13 39q0 17 7.5 32t15.5 30h13z" />
    <glyph glyph-name="t" unicode="t" horiz-adv-x="333" 
d="M200 568h80l-41 -126h107l-12 -41h-106l-87 -289q-2 -7 -4 -15t-2 -16q0 -9 4.5 -15.5t15.5 -6.5q15 0 32.5 10t34.5 24t32 28.5t25 24.5l14 -17q-17 -19 -40 -43.5t-49.5 -47t-55 -38t-55.5 -15.5q-22 0 -33 16t-11 36q0 15 4.5 33t8.5 31l89 300h-98l12 41h97z" />
    <glyph glyph-name="u" unicode="u" 
d="M519 122q-15 -17 -34.5 -38t-41.5 -40t-46 -31.5t-49 -12.5q-37 0 -37 35q0 12 5.5 31t13.5 43l60 177h-2q-12 -16 -33 -43t-47.5 -59t-56.5 -64.5t-60 -59t-59.5 -43.5t-53.5 -17q-17 0 -29.5 11.5t-12.5 27.5q0 6 2.5 17.5t7.5 25.5l87 258q0 -1 2 6.5t2 15.5
q0 6 -2.5 10.5t-10.5 4.5q-11 0 -22.5 -7.5t-22.5 -18t-21 -21.5t-17 -18l-16 17l34 35q15 15 32.5 31.5t35.5 30t36.5 22.5t36.5 9q15 0 24 -8.5t9 -23.5q0 -12 -3.5 -24t-9.5 -28l-90 -269q-1 -4 -1.5 -7t-0.5 -7q0 -5 5 -7.5t12 -2.5q17 0 43 19.5t55.5 50.5t60 69.5
t57 77t46.5 73t29 56.5q5 14 12 22.5t22 8.5q13 0 25 -10.5t20 -18.5l-109 -326q-3 -8 -3 -14q0 -14 15 -14q10 0 22 7.5t24 17.5t22.5 20.5t18.5 16.5z" />
    <glyph glyph-name="v" unicode="v" horiz-adv-x="500" 
d="M25 344q16 15 35.5 34.5t41.5 37t45 29.5t47 12q18 0 25.5 -10t7.5 -27q0 -11 -3.5 -25.5t-8.5 -31.5l-68 -229q-5 -13 -8.5 -25.5t-3.5 -26.5q0 -17 12.5 -27t31.5 -10q31 0 63.5 22t60.5 54t49.5 67.5t31.5 62.5q10 25 15 45.5t5 48.5q0 13 -1 26t-1 26q0 23 9.5 41.5
t35.5 18.5q21 0 29 -15.5t8 -33.5q0 -34 -15 -75t-37.5 -81t-48.5 -76t-48 -61q-17 -20 -41 -42.5t-51 -42t-55.5 -32.5t-56.5 -13q-34 0 -55 18.5t-21 55.5q0 22 11 60l61 195q8 29 8 44q0 10 -4 17.5t-15 7.5q-9 0 -19.5 -6t-21 -15t-19.5 -18.5t-15 -15.5z" />
    <glyph glyph-name="w" unicode="w" horiz-adv-x="778" 
d="M28 332q12 15 32.5 36t44 41t47.5 34t44 14q14 0 26 -7t12 -24q0 -11 -4 -23l-94 -289q-2 -8 -3 -14t-1 -14q0 -10 4.5 -15.5t17.5 -5.5q15 0 36 12t44 30.5t46.5 41t43 43.5t33.5 38t18 24q2 8 9 33t17 53.5t21 54.5t21 36q7 8 23 15t26 9q10 -2 18 -9.5t14 -15.5
q-1 -8 -5 -26t-13 -38q-4 -10 -11 -21.5t-14.5 -23t-14 -20.5t-9.5 -13l-40 -171q-2 -6 -3 -13t-1 -15q0 -18 9.5 -31t30.5 -13q28 0 54 14.5t49.5 36t42.5 46.5t33 46q21 32 36 68.5t15 75.5q0 19 -4 36.5t-4 36.5q0 17 14 33.5t32 16.5q25 0 33.5 -17.5t8.5 -38.5
q0 -35 -17 -76.5t-42 -83t-52.5 -78.5t-49.5 -62q-17 -19 -40.5 -39.5t-50.5 -37t-55.5 -27t-55.5 -10.5q-30 0 -48.5 19t-18.5 46q0 36 11 71.5t19 71.5h-2q-20 -20 -53.5 -54.5t-71.5 -69t-76 -59.5t-67 -25q-14 0 -22 6t-12 14t-5.5 17.5t-1.5 15.5q0 27 9 60l71 242
q1 2 1.5 7.5t0.5 7.5q0 16 -14 16q-6 0 -17 -7t-23 -16.5t-22 -19t-15 -13.5z" />
    <glyph glyph-name="x" unicode="x" 
d="M245 178l-68 -96q-11 -15 -25.5 -32t-31 -31.5t-33.5 -24t-32 -9.5q-28 0 -40.5 16.5t-12.5 35.5q0 23 15 41t35 26l11 -7q-2 -10 -2 -14q0 -11 7 -17.5t19 -6.5q20 0 40 17t40 42l69 90l-26 89q-10 32 -25 56t-38 24q-26 0 -42.5 -21t-26.5 -42l-19 10q6 21 17 44.5
t26.5 43t36 32.5t45.5 13q33 0 50.5 -24t28.5 -56l29 -89l49 65q14 18 29.5 36.5t33 32.5t36 23t38.5 9t31.5 -13t11.5 -32q0 -26 -15.5 -43.5t-32.5 -25.5l-8 5q-3 12 -8.5 20.5t-24.5 8.5q-26 0 -47 -20t-40 -44l-43 -57l36 -121q3 -12 7 -24.5t9.5 -22.5t14 -16.5
t20.5 -6.5q15 0 27 7.5t21.5 18t17.5 23t16 23.5l16 -12q-11 -18 -24.5 -41.5t-30 -45.5t-37 -37t-44.5 -15q-18 0 -30 9t-21 23t-15 31t-11 34z" />
    <glyph glyph-name="y" unicode="y" horiz-adv-x="500" 
d="M51 292l-24 14q0 25 5.5 51.5t18 48.5t33.5 36.5t51 14.5q35 0 59 -23.5t40 -61t25.5 -83.5t15.5 -91.5t10 -85t9 -63.5q16 28 35 61t35.5 67.5t27.5 69.5t11 68q0 28 -6 44.5t-6 37.5q0 23 12 41.5t35 18.5q22 0 30.5 -16.5t8.5 -36.5q0 -27 -12.5 -67t-32 -85t-45 -93
t-51 -91.5t-49.5 -80t-42 -58.5q-16 -21 -36.5 -48t-45 -51t-52 -41t-57.5 -17q-16 0 -28.5 11.5t-12.5 28.5t9 29t27 12q10 0 20 -3.5t22 -3.5q17 0 38.5 9.5t46.5 38.5l54 63l-3 52l-9 83q-6 43 -16 94t-24 94.5t-33.5 73t-43.5 29.5q-21 0 -34.5 -13t-13.5 -33t7 -38z
" />
    <glyph glyph-name="z" unicode="z" horiz-adv-x="444" 
d="M319 351q-30 -2 -57.5 7t-54.5 21q-13 5 -28 8.5t-29 3.5q-17 0 -31.5 -10.5t-14.5 -27.5q0 -3 5.5 -12t3.5 -18q-3 -22 -23 -22q-14 0 -20 11t-6 23q0 19 10 32t23 26q10 10 22 21.5t25.5 21t27.5 15.5t29 6q18 0 39 -8t41.5 -18t39.5 -18t35 -8q18 0 27 6q6 3 6 6
q0 4 1 11q1 14 6 24.5t22 10.5q19 0 19 -20q0 -5 -5.5 -13.5t-13 -18.5t-17 -20t-16.5 -17l-260 -269q23 2 51.5 -14.5t56.5 -37.5t54 -38.5t45 -17.5q16 0 27 10t3 27q-1 6 -8 18t-7 22q0 6 7 14t19 8q14 0 20.5 -12t6.5 -23q0 -22 -10 -45t-26.5 -42t-37.5 -31t-44 -12
t-49 20t-52.5 43.5t-52.5 43.5t-48 20q-8 0 -17.5 -5t-9.5 -14q0 -14 3.5 -19.5t3.5 -13.5q0 -10 -6 -15t-15 -6q-12 -2 -19 7t-7 20q0 14 3.5 23t14.5 20z" />
    <glyph glyph-name="braceleft" unicode="{" horiz-adv-x="333" 
d="M183 566q9 47 24 76t37 44.5t50 21t63 5.5l-3 -14q-49 -11 -71.5 -42t-32.5 -85l-32 -177q-5 -28 -12 -50t-18.5 -38.5t-29.5 -27.5t-45 -18l-1 -2q35 -10 49 -28.5t14 -47.5q0 -25 -6 -58l-32 -177q-2 -14 -3.5 -25.5t-1.5 -22.5q0 -32 14 -51.5t49 -27.5l-3 -14
q-29 0 -52 3.5t-39.5 13.5t-25.5 28t-9 47q0 23 6 55l34 186q2 14 3.5 25t1.5 22q0 28 -13.5 45t-45.5 28q24 7 40.5 17t27.5 24.5t17.5 33.5t11.5 45z" />
    <glyph glyph-name="bar" unicode="|" horiz-adv-x="222" 
d="M93 764h66v-779h-66v779z" />
    <glyph glyph-name="braceright" unicode="}" horiz-adv-x="333" 
d="M164 -46q-9 -47 -24 -76t-37 -45t-50.5 -21t-62.5 -5l3 14q49 11 71.5 42t32.5 85l32 177q5 28 12 49.5t19 38t30 28t45 18.5v2q-33 9 -48 26.5t-15 45.5q0 26 6 62l33 177q5 28 5 46q0 33 -14 53t-49 28l2 14q30 0 53 -3.5t39.5 -14t25 -30t8.5 -50.5q0 -11 -1.5 -23
t-3.5 -26l-34 -186q-3 -16 -4 -29t-1 -24q0 -26 14 -41.5t45 -25.5q-25 -7 -41.5 -17t-27.5 -24.5t-18 -34t-11 -44.5z" />
    <glyph glyph-name="asciitilde" unicode="~" 
d="M509 241q-11 -16 -23.5 -31.5t-27 -27.5t-33 -19.5t-41.5 -7.5q-30 0 -55.5 10.5t-50.5 22.5t-51.5 22.5t-59.5 10.5t-52.5 -22t-31.5 -48l-36 50q8 16 19.5 31.5t26.5 27.5t34.5 19.5t44.5 7.5q31 0 60.5 -10.5t56.5 -22.5t51 -22.5t45 -10.5q30 0 50.5 22t37.5 48z" />
    <glyph glyph-name="exclamdown" unicode="&#xa1;" horiz-adv-x="333" 
d="M199 485q26 0 46 -19t20 -46q0 -26 -20 -46.5t-46 -20.5t-46 20t-20 47t19.5 46t46.5 19zM187 282l-38 -305q-2 -18 -7 -48t-14.5 -59t-25.5 -50t-40 -21q-23 0 -33.5 16t-10.5 37q0 26 10.5 62t22.5 68l116 300h20z" />
    <glyph glyph-name="cent" unicode="&#xa2;" 
d="M311 395q-36 -3 -66 -32.5t-51.5 -70t-34 -83t-12.5 -71.5q0 -38 16 -63t52 -32zM436 127q-41 -47 -91 -86t-111 -51l-36 -132h-34l35 128q-4 -1 -9 -1q-60 0 -91.5 39t-31.5 97q0 57 21 107t56.5 91t81.5 71t96 47l34 125h35l-31 -113q26 8 41 8q19 0 34 -8.5t15 -32.5
q0 -19 -13.5 -35t-32.5 -16q-9 0 -16.5 3.5t-14.5 8t-14 8.5t-15 6l-96 -352q25 1 49 11t46.5 26t42 34.5t36.5 35.5z" />
    <glyph glyph-name="sterling" unicode="&#xa3;" 
d="M74 368l8 41h110q7 37 14.5 73.5t19 71t28 67t41.5 62.5q21 25 49.5 46t60.5 29q12 3 21 4.5t22 1.5q14 0 29.5 -3t28 -9.5t21 -18t8.5 -28.5t-10 -28t-26 -11q-6 0 -12 2t-11 4q-5 15 -5.5 25t-12.5 21q-7 6 -17.5 10.5t-19.5 4.5q-28 0 -47.5 -18.5t-33.5 -48
t-22.5 -66t-14 -72.5t-10 -68t-8.5 -51h136l-8 -41h-135q-13 -68 -39 -131.5t-68 -119.5q9 1 18.5 3.5t18.5 2.5q35 0 63.5 -14t54 -31.5t48.5 -31.5t46 -14q20 0 35 13t15 33q0 22 -11 30t-30 16q3 24 13 33.5t27 9.5q23 0 32 -18t9 -38q0 -29 -13 -52t-33.5 -39.5
t-46.5 -25.5t-52 -9q-41 0 -69.5 15t-51.5 33.5t-44 33.5t-47 15q-9 -9 -19.5 -23t-22.5 -27t-25.5 -22.5t-28.5 -9.5q-20 0 -20 19q0 16 10 30.5t24.5 27t30.5 21.5t29 13q3 3 7 12.5t9 20.5q8 18 14.5 51.5t11.5 68.5t8.5 64.5t4.5 39.5h-112z" />
    <glyph glyph-name="currency" unicode="&#xa4;" 
d="M111 345q0 -39 14.5 -73t39.5 -59.5t58.5 -40.5t71.5 -15t71 15.5t57 41.5t38 60t14 71t-14 71t-38.5 60t-57.5 41.5t-70 15.5q-38 0 -71.5 -15t-58.5 -40.5t-39.5 -60t-14.5 -72.5zM42 552l44 44l56 -55q31 26 71 39t82 13q41 0 79.5 -13t68.5 -39l56 55l44 -44l-57 -57
q29 -29 42 -68.5t13 -81.5q0 -41 -12.5 -79.5t-39.5 -70.5l55 -57l-43 -43l-54 57q-32 -28 -71 -41.5t-81 -13.5q-44 0 -83.5 13t-72.5 42l-54 -57l-43 43l55 57q-52 64 -52 150q0 41 12.5 80.5t41.5 69.5z" />
    <glyph glyph-name="yen" unicode="&#xa5;" 
d="M118 623q-7 15 -15.5 26.5t-26.5 16.5q-13 4 -27.5 4.5t-25.5 0.5l5 27q60 -3 122 -3q33 0 65.5 1.5t65.5 1.5l-5 -26q-29 0 -50 -2.5t-21 -19.5q0 -10 7 -26l123 -292l157 243q26 40 32 56.5t6 21.5q0 7 -10.5 11t-24 5.5t-26.5 2t-18 0.5l5 26q58 -3 120 -3q36 0 74 3
l-5 -26q-13 0 -24.5 -6t-21 -15.5t-17.5 -20.5t-14 -20l-189 -279h103l-8 -41h-125q-7 -12 -8 -20l-10 -57h130l-8 -41h-130l-16 -87q-1 -5 -1.5 -10.5t-0.5 -15.5q0 -12 7 -19t19 -10t27.5 -3.5t31.5 -0.5h16l-5 -26q-38 0 -77 1t-77 1q-32 0 -64.5 -0.5t-64.5 -1.5l5 26
h11q27 0 43 2.5t25 7.5t13 14t6 21l20 101h-132l8 41h132l14 72l-3 5h-126l8 41h103z" />
    <glyph glyph-name="brokenbar" unicode="&#xa6;" horiz-adv-x="222" 
d="M93 764h66v-282h-66v282zM93 267h66v-282h-66v282z" />
    <glyph glyph-name="section" unicode="&#xa7;" 
d="M327 27q0 -35 -8.5 -66.5t-25.5 -62.5l2 -2q41 39 64 89.5t23 112.5q0 56 -21 108t-44 102q-12 27 -23.5 51t-21 48t-16 49.5t-8.5 54.5q0 32 9 59.5t22 56.5l-2 2q-36 -34 -60 -82t-24 -102q0 -57 21 -109.5t46 -102.5q9 -21 21 -47t22 -53.5t17 -55t7 -50.5zM429 114
q0 -63 -23.5 -117t-63.5 -96q-36 -39 -88 -66.5t-106 -27.5q-13 0 -30 3t-32.5 10.5t-26 18.5t-10.5 28t10 29t28 12q16 0 26 -11t18.5 -23.5t19.5 -23.5t31 -11q27 0 46 14t30.5 35.5t16.5 49t5 54.5t-6 55.5t-16 56.5t-22 55t-24 51q-11 25 -23 51.5t-21.5 53t-15.5 54
t-6 56.5q0 61 24 113t66 90q29 28 53.5 45t45.5 26t38 11.5t32 2.5q17 0 34.5 -4t31 -11.5t22 -18.5t8.5 -26q0 -18 -9 -32t-29 -14q-17 0 -25.5 11.5t-15.5 25.5t-17 25.5t-30 11.5q-22 0 -37.5 -11t-25 -28t-13.5 -38.5t-4 -43.5q0 -29 6 -58t15.5 -57.5t21 -55.5
t23.5 -52q25 -54 46.5 -108.5t21.5 -114.5z" />
    <glyph glyph-name="dieresis" unicode="&#xa8;" horiz-adv-x="278" 
d="M264 610q0 21 14 35t34 14q21 0 35.5 -14t14.5 -35q0 -20 -14.5 -34.5t-35.5 -14.5q-20 0 -34 14.5t-14 34.5zM64 610q0 21 14 35t34 14q21 0 35.5 -14t14.5 -35q0 -20 -14.5 -34.5t-35.5 -14.5q-20 0 -34 14.5t-14 34.5z" />
    <glyph glyph-name="copyright" unicode="&#xa9;" horiz-adv-x="800" 
d="M580 260l-17 -74q-1 -9 -8 -12.5t-20 -7.5q-16 -5 -45.5 -11.5t-67.5 -6.5q-47 0 -88.5 11.5t-72.5 37t-49 65.5t-18 96q0 33 13.5 69t42.5 66t73 49.5t106 19.5q41 0 65 -6t46 -13t22 -22v-74h-20q-2 16 -9 33t-20.5 31t-35 22.5t-51.5 8.5q-39 0 -67.5 -13.5
t-47.5 -37.5t-28 -57t-9 -72q0 -42 9 -77.5t28 -61.5t49 -40.5t72 -14.5q54 0 84.5 27.5t45.5 64.5h18zM400 32q64 0 119.5 25.5t97 69t65 100.5t23.5 119q0 64 -23.5 122.5t-64.5 102t-97 69.5t-120 26t-119.5 -26t-97 -70t-65 -102t-23.5 -122q0 -62 23.5 -119t65 -100.5
t97 -69t119.5 -25.5zM400 -15q-76 0 -142.5 28.5t-115.5 77.5t-77.5 115t-28.5 140q0 76 28.5 143t77.5 116.5t115.5 78.5t142.5 29t142.5 -29t116 -78.5t77.5 -116.5t28 -143q0 -74 -28 -140t-77.5 -115t-116 -77.5t-142.5 -28.5z" />
    <glyph glyph-name="ordfeminine" unicode="&#xaa;" horiz-adv-x="325" 
d="M257 538h-1h1zM109 508q0 -8 6.5 -19.5t26.5 -11.5q24 0 49 18.5t46 45.5t34.5 56t13.5 49q0 11 -9.5 19t-22.5 8q-28 0 -54 -17.5t-46 -43t-32 -54t-12 -50.5zM353 500q-9 -9 -21 -22.5t-25 -25.5t-28 -20.5t-30 -8.5q-8 0 -15 4.5t-7 12.5q0 9 3.5 21.5t8.5 26t10 26.5
t9 24v2l-2 -2l-1 2q-11 -13 -26 -33t-34 -38.5t-42.5 -32t-52.5 -13.5q-44 0 -44 58q0 33 21.5 72t53.5 73t69.5 56.5t70.5 22.5q24 0 41 -20q5 8 9 18t15 10q20 0 19 -5l-66 -213q-1 -2 -2 -5.5t-1 -6.5q0 -6 8 -6q14 0 26.5 11.5t22.5 19.5z" />
    <glyph glyph-name="guillemotleft" unicode="&#xab;" 
d="M327 407l-141 -163l83 -167l-17 -10l-152 177l212 177zM487 407l-141 -163l83 -167l-17 -10l-152 177l212 177z" />
    <glyph glyph-name="logicalnot" unicode="&#xac;" 
d="M433 288h-376v66h442v-278h-66v212z" />
    <glyph glyph-name="registered" unicode="&#xae;" horiz-adv-x="800" 
d="M348 352h47q37 0 54 26t17 70q0 47 -22 64.5t-51 17.5h-45v-178zM401 159h-172v14q17 2 27.5 3.5t16 4.5t7.5 8.5t2 16.5v276q0 18 -0.5 27.5t-5.5 14.5t-15.5 6.5t-29.5 3.5v16h186q24 0 46 -5.5t39.5 -17.5t27.5 -30.5t10 -43.5q0 -41 -24 -70t-62 -41l60 -84
q21 -29 43 -54t37 -37v-8h-67q-13 0 -25 13t-26 36t-32.5 54.5t-43.5 69.5h-52v-126q0 -11 2 -16.5t7.5 -8.5t16 -4.5t27.5 -3.5v-14zM400 32q64 0 119.5 25.5t97 69t65 100.5t23.5 119q0 64 -23.5 122.5t-64.5 102t-97 69.5t-120 26t-119.5 -26t-97 -70t-65 -102
t-23.5 -122q0 -62 23.5 -119t65 -100.5t97 -69t119.5 -25.5zM400 -15q-76 0 -142.5 28.5t-115.5 77.5t-77.5 115t-28.5 140q0 76 28.5 143t77.5 116.5t115.5 78.5t142.5 29t142.5 -29t116 -78.5t77.5 -116.5t28 -143q0 -74 -28 -140t-77.5 -115t-116 -77.5t-142.5 -28.5z
" />
    <glyph glyph-name="macron" unicode="&#xaf;" horiz-adv-x="278" 
d="M87 586l8 47h259l-8 -47h-259z" />
    <glyph glyph-name="macron" unicode="&#x2c9;" horiz-adv-x="278" 
d="M87 586l8 47h259l-8 -47h-259z" />
    <glyph glyph-name="degree" unicode="&#xb0;" horiz-adv-x="400" 
d="M161 562q0 -22 7.5 -38.5t19.5 -28t27 -17t30 -5.5t30 5.5t27 17t19.5 28t7.5 38.5t-7.5 38.5t-19.5 28t-27 17t-30 5.5t-30 -5.5t-27 -17t-19.5 -28t-7.5 -38.5zM245 705q30 0 56 -11t45.5 -30.5t30.5 -45.5t11 -56t-11 -56t-30.5 -45.5t-45.5 -30.5t-56 -11t-56 11
t-45.5 30.5t-30.5 45.5t-11 56t11 56t30.5 45.5t45.5 30.5t56 11z" />
    <glyph glyph-name="plusminus" unicode="&#xb1;" 
d="M57 66h442v-66h-442v66zM245 409h66v-110h188v-66h-188v-110h-66v110h-188v66h188v110z" />
    <glyph glyph-name="twosuperior" unicode="&#xb2;" horiz-adv-x="361" 
d="M299 336l21 35l14 -4l-25 -85q-32 1 -65 1h-65h-69t-69 -1q-7 0 -7 6q0 4 0.5 8t0.5 10q1 3 2.5 5t3.5 4l86 74q19 16 42.5 39t44 49.5t34.5 55t14 55.5q0 31 -17 53.5t-52 22.5q-33 0 -53.5 -14t-43.5 -30l-10 14q28 27 59 49t75 22q49 0 78.5 -24.5t29.5 -69.5
q0 -42 -25.5 -80.5t-61.5 -73.5t-75.5 -65.5t-68.5 -55.5h202z" />
    <glyph glyph-name="threesuperior" unicode="&#xb3;" horiz-adv-x="361" 
d="M143 512q17 1 38 7.5t39 18t30 28t12 37.5q1 29 -15 49.5t-49 20.5q-26 0 -43 -11t-37 -25l-11 11q29 26 56 41.5t66 15.5q42 0 70.5 -20.5t28.5 -58.5q0 -26 -10.5 -44.5t-27.5 -32.5t-38 -23.5t-42 -16.5v-2q47 -5 76 -28t29 -67q0 -30 -15.5 -55.5t-40.5 -44
t-56.5 -29t-63.5 -10.5q-30 0 -52.5 4t-48.5 21l-7 34l27 8q11 -25 29.5 -36t44.5 -11q23 0 43 10t34.5 26t23 36t8.5 41q0 48 -29 69.5t-72 16.5z" />
    <glyph glyph-name="acute" unicode="&#xb4;" horiz-adv-x="278" 
d="M148 546l152 148q9 7 16.5 13t17.5 6q12 0 22 -9.5t10 -23.5t-13.5 -24t-21.5 -15l-115 -75q-12 -8 -24.5 -14t-17.5 -6h-26z" />
    <glyph glyph-name="mu" unicode="&#xb5;" 
d="M133 340q0 -1 2 6.5t2 15.5q0 6 -2.5 10.5t-10.5 4.5q-11 0 -22.5 -7.5t-22.5 -18t-21 -21.5t-17 -18l-16 17l34 35q15 15 32.5 31.5t35.5 30t36.5 22.5t36.5 9q15 0 24 -8.5t9 -23.5q0 -12 -3.5 -24t-9.5 -28l-90 -269q-1 -4 -1.5 -7t-0.5 -7q0 -5 5 -7.5t12 -2.5
q18 0 45 21t57.5 54t61 73t57 78.5t45.5 70.5t25 49q5 14 12 22.5t22 8.5q13 0 25 -10.5t20 -18.5l-109 -326q-3 -8 -3 -14q0 -14 15 -14q10 0 22 7.5t24 17.5t22.5 20.5t18.5 16.5l14 -14q-15 -17 -34.5 -38t-41.5 -40t-46 -31.5t-49 -12.5q-37 0 -37 35q0 12 5 31t14 43
l65 174h-2q-13 -15 -35 -42t-49 -58t-57 -64t-60.5 -59t-60 -43t-53.5 -17q-8 -42 -12.5 -86.5t-10.5 -79.5q-2 -9 -3.5 -19.5t-7 -20t-15 -16t-27.5 -6.5q-17 0 -25 9.5t-8 22.5q0 24 8 57t20 70t25.5 76t25.5 75z" />
    <glyph glyph-name="mu" unicode="&#x3bc;" 
d="M133 340q0 -1 2 6.5t2 15.5q0 6 -2.5 10.5t-10.5 4.5q-11 0 -22.5 -7.5t-22.5 -18t-21 -21.5t-17 -18l-16 17l34 35q15 15 32.5 31.5t35.5 30t36.5 22.5t36.5 9q15 0 24 -8.5t9 -23.5q0 -12 -3.5 -24t-9.5 -28l-90 -269q-1 -4 -1.5 -7t-0.5 -7q0 -5 5 -7.5t12 -2.5
q18 0 45 21t57.5 54t61 73t57 78.5t45.5 70.5t25 49q5 14 12 22.5t22 8.5q13 0 25 -10.5t20 -18.5l-109 -326q-3 -8 -3 -14q0 -14 15 -14q10 0 22 7.5t24 17.5t22.5 20.5t18.5 16.5l14 -14q-15 -17 -34.5 -38t-41.5 -40t-46 -31.5t-49 -12.5q-37 0 -37 35q0 12 5 31t14 43
l65 174h-2q-13 -15 -35 -42t-49 -58t-57 -64t-60.5 -59t-60 -43t-53.5 -17q-8 -42 -12.5 -86.5t-10.5 -79.5q-2 -9 -3.5 -19.5t-7 -20t-15 -16t-27.5 -6.5q-17 0 -25 9.5t-8 22.5q0 24 8 57t20 70t25.5 76t25.5 75z" />
    <glyph glyph-name="paragraph" unicode="&#xb6;" 
d="M299 666h-7q-42 0 -70.5 -23t-46.5 -57.5t-26.5 -74.5t-10.5 -74q-1 -31 6.5 -53t20 -36.5t29.5 -21t36 -6.5zM366 -103q-2 -6 -2 -10v-10q0 -19 16.5 -24.5t57.5 -10.5l-5 -20h-148l174 844h-93l-174 -844h-148l5 20q19 3 34 4.5t27 6.5t20 14.5t12 28.5l78 377
q-41 1 -70 13t-48.5 32.5t-28.5 49t-9 61.5q0 51 17.5 99.5t49 86t76 60.5t99.5 23h309l-4 -20q-26 -3 -42 -6t-26.5 -8t-16 -15.5t-9.5 -28.5z" />
    <glyph glyph-name="periodcentered" unicode="&#xb7;" horiz-adv-x="278" 
d="M205 295q0 -13 -5 -25t-14 -21t-21 -14.5t-25 -5.5q-28 0 -47.5 19.5t-19.5 46.5q0 28 19.5 47t46.5 19t46.5 -19.5t19.5 -46.5z" />
    <glyph glyph-name="periodcentered" unicode="&#x2219;" horiz-adv-x="278" 
d="M205 295q0 -13 -5 -25t-14 -21t-21 -14.5t-25 -5.5q-28 0 -47.5 19.5t-19.5 46.5q0 28 19.5 47t46.5 19t46.5 -19.5t19.5 -46.5z" />
    <glyph glyph-name="cedilla" unicode="&#xb8;" horiz-adv-x="278" 
d="M95 1h36l-44 -65l2 -2q4 2 13 3.5t18 1.5q29 0 49 -16.5t20 -49.5q0 -24 -10.5 -40.5t-27.5 -26.5t-37.5 -14.5t-41.5 -4.5q-23 0 -46 5.5t-44 15.5l18 26q13 -5 27.5 -10t28.5 -5q11 0 23 2.5t21.5 7.5t16 14t6.5 22q0 20 -13.5 31t-31.5 11q-11 0 -21 -2.5t-18 -6.5
l-7 10z" />
    <glyph glyph-name="onesuperior" unicode="&#xb9;" horiz-adv-x="361" 
d="M113 602l-10 15l176 88l12 -3l-69 -356q-3 -11 -4 -18.5t-1 -12.5q0 -13 27 -13q13 0 26 -0.5t26 -0.5l-4 -19q-31 0 -58 0.5t-54 0.5h-55q-26 0 -54 -1l4 19q12 1 23 1h23q16 0 22.5 5.5t8.5 17.5l67 326z" />
    <glyph glyph-name="ordmasculine" unicode="&#xba;" horiz-adv-x="361" 
d="M129 522q0 -15 3.5 -29t12 -25.5t22.5 -18t34 -6.5q30 0 52 17t36 42t21 53t7 50q0 14 -3.5 28.5t-12 26t-22 18.5t-32.5 7q-32 0 -54 -17t-36.5 -41.5t-21 -53t-6.5 -51.5zM70 543q0 32 14 61.5t38 52t56.5 35.5t69.5 13q60 0 94 -35t34 -87q0 -31 -13.5 -60t-37.5 -51
t-55.5 -35.5t-67.5 -13.5q-62 0 -97 33t-35 87z" />
    <glyph glyph-name="guillemotright" unicode="&#xbb;" 
d="M69 81l141 163l-83 167l17 10l152 -177l-212 -177zM229 81l141 163l-83 167l17 10l152 -177l-212 -177z" />
    <glyph glyph-name="onequarter" unicode="&#xbc;" horiz-adv-x="834" 
d="M666 350h-2l-177 -164h143zM122 602l-10 15l176 88l12 -3l-69 -356q-3 -11 -4 -18.5t-1 -12.5q0 -13 27 -13q13 0 26 -0.5t26 -0.5l-4 -19q-31 0 -58 0.5t-54 0.5h-55q-26 0 -54 -1l4 19q12 1 23 1h23q16 0 22.5 5.5t8.5 17.5l67 326zM616 713h47l-447 -736h-48zM622 139
h-188l3 29l270 255h34l-49 -237h62l-8 -47h-62l-27 -139h-62z" />
    <glyph glyph-name="onehalf" unicode="&#xbd;" horiz-adv-x="834" 
d="M129 602l-10 15l176 88l6 -3l-69 -356q-3 -11 -4 -18.5t-1 -12.5q0 -13 27 -13q13 0 26 -0.5t26 -0.5l-4 -19q-26 0 -52.5 0.5t-53.5 0.5h-55q-26 0 -54 -1l4 19q12 1 23 1h23q16 0 22.5 5.5t8.5 17.5l67 326zM616 713h47l-447 -736h-48zM713 54l21 35l14 -4l-25 -85
q-32 1 -65 1h-65h-69t-69 -1q-7 0 -7 6q0 4 0.5 8t0.5 10q1 3 2.5 5t3.5 4l86 74q19 16 42.5 39t44 49.5t34.5 55t14 55.5q0 31 -17 53.5t-52 22.5q-33 0 -53.5 -14t-43.5 -30l-10 14q28 27 59 49t75 22q49 0 78.5 -24.5t29.5 -69.5q0 -42 -25.5 -80.5t-61.5 -73.5
t-75.5 -65.5t-68.5 -55.5h202z" />
    <glyph glyph-name="threequarters" unicode="&#xbe;" horiz-adv-x="834" 
d="M666 350h-2l-177 -164h143zM646 713h47l-447 -736h-48zM177 512q17 1 38 7.5t39 18t30 28t12 37.5q1 29 -15 49.5t-49 20.5q-26 0 -43 -11t-37 -25l-11 11q29 26 56 41.5t66 15.5q42 0 70.5 -20.5t28.5 -58.5q0 -26 -10.5 -44.5t-27.5 -32.5t-38 -23.5t-42 -16.5v-2
q47 -5 76 -28t29 -67q0 -30 -15.5 -55.5t-40.5 -44t-56.5 -29t-63.5 -10.5q-30 0 -52.5 4t-48.5 21l-7 34l27 8q11 -25 29.5 -36t44.5 -11q23 0 43 10t34.5 26t23 36t8.5 41q0 48 -29 69.5t-72 16.5zM622 139h-188l3 29l270 255h34l-49 -237h62l-8 -47h-62l-27 -139h-62z
" />
    <glyph glyph-name="questiondown" unicode="&#xbf;" horiz-adv-x="444" 
d="M293 485q26 0 46 -19t20 -46q0 -26 -20 -46.5t-46 -20.5t-46 20t-20 47t19.5 46t46.5 19zM232 -157q14 0 22.5 -9t8.5 -23q0 -13 -6 -21t-15 -12t-20 -5t-21 -1q-31 0 -60.5 12t-52 32.5t-36 48.5t-13.5 60q0 38 12 64t31.5 42.5t44.5 27t50 18t48.5 13.5t40.5 16t27 27
t10 37q0 17 -8.5 29t-20 19.5t-24 10.5t-21.5 3q-13 0 -19.5 -2.5t-14.5 -2.5q-13 0 -17.5 7t-4.5 18q0 16 8 28t25 12q21 0 38.5 -10t37.5 -27q10 -9 21 -24.5t20 -33.5t15 -36t6 -31q0 -45 -19.5 -70t-49 -39t-63.5 -22t-63.5 -19t-49 -29.5t-19.5 -53.5q0 -32 17.5 -50.5
t51.5 -18.5q26 0 45 7.5t38 7.5z" />
    <glyph glyph-name="Agrave" unicode="&#xc0;" horiz-adv-x="722" 
d="M521 737h-21q-6 0 -10 3t-7 5l-117 88q-12 10 -20.5 20t-8.5 19q0 11 9.5 21.5t20.5 10.5q13 0 19 -3t14 -13zM259 303h207l-44 298h-2zM441 702q9 2 18 4.5t18 6.5l6 -4l110 -621q5 -32 21 -48t51 -14l-5 -26q-32 0 -63 1t-63 1q-27 0 -54 -0.5t-54 -1.5l5 26h24
q14 0 24.5 3.5t17 11.5t4.5 23l-30 198h-234l-82 -170q-11 -24 -11 -36q0 -20 15 -25t28 -5h30l-5 -26q-29 0 -59 1t-59 1q-23 0 -46 -0.5t-46 -1.5l5 26q35 -1 55 18.5t35 48.5z" />
    <glyph glyph-name="Aacute" unicode="&#xc1;" horiz-adv-x="722" 
d="M397 737l152 148q9 7 16.5 13t17.5 6q12 0 22 -9.5t10 -23.5t-13.5 -24t-21.5 -15l-115 -75q-12 -8 -24.5 -14t-17.5 -6h-26zM259 303h207l-44 298h-2zM441 702q9 2 18 4.5t18 6.5l6 -4l110 -621q5 -32 21 -48t51 -14l-5 -26q-32 0 -63 1t-63 1q-27 0 -54 -0.5t-54 -1.5
l5 26h24q14 0 24.5 3.5t17 11.5t4.5 23l-30 198h-234l-82 -170q-11 -24 -11 -36q0 -20 15 -25t28 -5h30l-5 -26q-29 0 -59 1t-59 1q-23 0 -46 -0.5t-46 -1.5l5 26q35 -1 55 18.5t35 48.5z" />
    <glyph glyph-name="Acircumflex" unicode="&#xc2;" horiz-adv-x="722" 
d="M593 737h-33l-82 107l-135 -107h-37l161 167h38zM259 303h207l-44 298h-2zM441 702q9 2 18 4.5t18 6.5l6 -4l110 -621q5 -32 21 -48t51 -14l-5 -26q-32 0 -63 1t-63 1q-27 0 -54 -0.5t-54 -1.5l5 26h24q14 0 24.5 3.5t17 11.5t4.5 23l-30 198h-234l-82 -170
q-11 -24 -11 -36q0 -20 15 -25t28 -5h30l-5 -26q-29 0 -59 1t-59 1q-23 0 -46 -0.5t-46 -1.5l5 26q35 -1 55 18.5t35 48.5z" />
    <glyph glyph-name="Atilde" unicode="&#xc3;" horiz-adv-x="722" 
d="M301 759q10 39 37.5 67.5t70.5 28.5q16 0 34 -7t36 -15t34 -15t28 -7q24 0 37 15t22 34h26q-3 -18 -12 -36t-23.5 -32t-32.5 -23t-37 -9q-14 0 -32 7t-36 15q-17 8 -34 17t-31 9q-26 0 -37.5 -13t-22.5 -36h-27zM259 303h207l-44 298h-2zM441 702q9 2 18 4.5t18 6.5l6 -4
l110 -621q5 -32 21 -48t51 -14l-5 -26q-32 0 -63 1t-63 1q-27 0 -54 -0.5t-54 -1.5l5 26h24q14 0 24.5 3.5t17 11.5t4.5 23l-30 198h-234l-82 -170q-11 -24 -11 -36q0 -20 15 -25t28 -5h30l-5 -26q-29 0 -59 1t-59 1q-23 0 -46 -0.5t-46 -1.5l5 26q35 -1 55 18.5t35 48.5z
" />
    <glyph glyph-name="Adieresis" unicode="&#xc4;" horiz-adv-x="722" 
d="M513 801q0 21 14 35t34 14q21 0 35.5 -14t14.5 -35q0 -20 -14.5 -34.5t-35.5 -14.5q-20 0 -34 14.5t-14 34.5zM313 801q0 21 14 35t34 14q21 0 35.5 -14t14.5 -35q0 -20 -14.5 -34.5t-35.5 -14.5q-20 0 -34 14.5t-14 34.5zM259 303h207l-44 298h-2zM441 702q9 2 18 4.5
t18 6.5l6 -4l110 -621q5 -32 21 -48t51 -14l-5 -26q-32 0 -63 1t-63 1q-27 0 -54 -0.5t-54 -1.5l5 26h24q14 0 24.5 3.5t17 11.5t4.5 23l-30 198h-234l-82 -170q-11 -24 -11 -36q0 -20 15 -25t28 -5h30l-5 -26q-29 0 -59 1t-59 1q-23 0 -46 -0.5t-46 -1.5l5 26
q35 -1 55 18.5t35 48.5z" />
    <glyph glyph-name="Aring" unicode="&#xc5;" horiz-adv-x="722" 
d="M464 763q27 0 46.5 19.5t19.5 46.5t-19.5 46.5t-46.5 19.5t-46.5 -19.5t-19.5 -46.5t19.5 -46.5t46.5 -19.5zM464 731q-41 0 -69.5 28.5t-28.5 69.5t28.5 69.5t69.5 28.5t69.5 -28.5t28.5 -69.5t-28.5 -69.5t-69.5 -28.5zM259 303h207l-44 298h-2zM441 702q9 2 18 4.5
t18 6.5l6 -4l110 -621q5 -32 21 -48t51 -14l-5 -26q-32 0 -63 1t-63 1q-27 0 -54 -0.5t-54 -1.5l5 26h24q14 0 24.5 3.5t17 11.5t4.5 23l-30 198h-234l-82 -170q-11 -24 -11 -36q0 -20 15 -25t28 -5h30l-5 -26q-29 0 -59 1t-59 1q-23 0 -46 -0.5t-46 -1.5l5 26
q35 -1 55 18.5t35 48.5z" />
    <glyph glyph-name="AE" unicode="&#xc6;" horiz-adv-x="1000" 
d="M503 382l46 270q1 5 1 8q0 4 -4 4q-5 0 -7.5 -4t-5.5 -9l-187 -269h157zM4 26h9q11 0 21 3t22 12t26 25.5t32 43.5l356 516q3 5 6 11t3 13q0 14 -16.5 18t-50.5 4h-14l5 26q71 -2 139.5 -2.5t128.5 0.5q61 1 121 1q61 0 122 1l-21 -139h-20v44q0 19 -7.5 31.5t-28.5 19.5
t-59 9.5t-99 2.5h-40l-49 -284h85q35 -1 59 7t32 38l13 48h23l-41 -227h-22l3 39q3 34 -19 44t-65 10h-75l-33 -224q-2 -10 -4 -24t-2 -22q0 -12 9.5 -19.5t24 -12t31.5 -6t32 -1.5h53q31 0 57.5 5.5t48 20t37 39.5t24.5 65h26l-41 -162q-63 2 -125 2h-124h-127
q-63 0 -127 -2l7 26h16q26 1 42 5.5t26 16.5t16 33.5t12 55.5l35 204h-179l-172 -269q-2 -3 -5.5 -9t-3.5 -14t6 -13t14.5 -7t16.5 -2.5t12 -0.5h15l-5 -26q-26 0 -51.5 1t-51.5 1q-23 0 -47 -0.5t-47 -1.5z" />
    <glyph glyph-name="Ccedilla" unicode="&#xc7;" horiz-adv-x="722" 
d="M359 -10q-60 9 -110 36.5t-85.5 70.5t-55.5 99.5t-20 124.5q0 81 31.5 152.5t85.5 125t125.5 84t151.5 30.5q56 0 89.5 -7.5t54 -16t32.5 -16t24 -7.5q10 0 17 7t14 13l12 -7l-33 -176l-20 6q3 33 -3.5 64t-35.5 60q-48 48 -131 48q-77 0 -135 -33t-97 -85t-58.5 -116
t-19.5 -126q0 -65 14 -121t42.5 -96.5t72 -63.5t101.5 -23q48 0 84.5 12.5t65 36.5t50.5 57.5t40 75.5l22 -5l-40 -170q-5 3 -12 5.5t-15 2.5q-11 0 -30.5 -8.5t-37.5 -15.5q-17 -6 -32 -10.5t-29.5 -7.5t-30.5 -4t-36 -1q-8 0 -14.5 0.5t-13.5 0.5l-34 -50l2 -2q4 2 13 3.5
t18 1.5q29 0 49 -16.5t20 -49.5q0 -24 -10.5 -40.5t-27.5 -26.5t-37.5 -14.5t-41.5 -4.5q-23 0 -46 5.5t-44 15.5l18 26q13 -5 27.5 -10t28.5 -5q11 0 23 2.5t21.5 7.5t16 14t6.5 22q0 20 -13.5 31t-31.5 11q-11 0 -21 -2.5t-18 -6.5l-7 10z" />
    <glyph glyph-name="Egrave" unicode="&#xc8;" horiz-adv-x="667" 
d="M467 737h-21q-6 0 -10 3t-7 5l-117 88q-12 10 -20.5 20t-8.5 19q0 11 9.5 21.5t20.5 10.5q13 0 19 -3t14 -13zM24 26h14q24 0 38 4.5t22.5 13.5t12.5 21.5t7 27.5l94 515q2 7 2 12v13q0 12 -14 25.5t-51 13.5h-20l5 26q61 -1 121.5 -2.5t121.5 -1.5t121 1.5t121 2.5
l-11 -139h-20v24q0 27 -8 43.5t-26 25t-47.5 11.5t-72.5 3h-122l-52 -284h130q35 -1 62 7t35 38l13 48h17l-41 -227h-16l3 39q3 34 -19.5 44t-70.5 10h-119l-39 -223q-2 -10 -3.5 -19.5t-1.5 -18.5q0 -20 11 -34t46 -14h157q43 0 69.5 7t44.5 23t31 42t29 64h23l-45 -168
q-17 0 -56 0.5t-87 0.5t-99.5 0.5t-94.5 0.5q-55 0 -110 -0.5t-110 -1.5z" />
    <glyph glyph-name="Eacute" unicode="&#xc9;" horiz-adv-x="667" 
d="M343 737l152 148q9 7 16.5 13t17.5 6q12 0 22 -9.5t10 -23.5t-13.5 -24t-21.5 -15l-115 -75q-12 -8 -24.5 -14t-17.5 -6h-26zM24 26h14q24 0 38 4.5t22.5 13.5t12.5 21.5t7 27.5l94 515q2 7 2 12v13q0 12 -14 25.5t-51 13.5h-20l5 26q61 -1 121.5 -2.5t121.5 -1.5
t121 1.5t121 2.5l-11 -139h-20v24q0 27 -8 43.5t-26 25t-47.5 11.5t-72.5 3h-122l-52 -284h130q35 -1 62 7t35 38l13 48h17l-41 -227h-16l3 39q3 34 -19.5 44t-70.5 10h-119l-39 -223q-2 -10 -3.5 -19.5t-1.5 -18.5q0 -20 11 -34t46 -14h157q43 0 69.5 7t44.5 23t31 42
t29 64h23l-45 -168q-17 0 -56 0.5t-87 0.5t-99.5 0.5t-94.5 0.5q-55 0 -110 -0.5t-110 -1.5z" />
    <glyph glyph-name="Ecircumflex" unicode="&#xca;" horiz-adv-x="667" 
d="M539 737h-33l-82 107l-135 -107h-37l161 167h38zM24 26h14q24 0 38 4.5t22.5 13.5t12.5 21.5t7 27.5l94 515q2 7 2 12v13q0 12 -14 25.5t-51 13.5h-20l5 26q61 -1 121.5 -2.5t121.5 -1.5t121 1.5t121 2.5l-11 -139h-20v24q0 27 -8 43.5t-26 25t-47.5 11.5t-72.5 3h-122
l-52 -284h130q35 -1 62 7t35 38l13 48h17l-41 -227h-16l3 39q3 34 -19.5 44t-70.5 10h-119l-39 -223q-2 -10 -3.5 -19.5t-1.5 -18.5q0 -20 11 -34t46 -14h157q43 0 69.5 7t44.5 23t31 42t29 64h23l-45 -168q-17 0 -56 0.5t-87 0.5t-99.5 0.5t-94.5 0.5q-55 0 -110 -0.5
t-110 -1.5z" />
    <glyph glyph-name="Edieresis" unicode="&#xcb;" horiz-adv-x="667" 
d="M259 801q0 21 14 35t34 14q21 0 35.5 -14t14.5 -35q0 -20 -14.5 -34.5t-35.5 -14.5q-20 0 -34 14.5t-14 34.5zM459 801q0 21 14 35t34 14q21 0 35.5 -14t14.5 -35q0 -20 -14.5 -34.5t-35.5 -14.5q-20 0 -34 14.5t-14 34.5zM24 26h14q24 0 38 4.5t22.5 13.5t12.5 21.5
t7 27.5l94 515q2 7 2 12v13q0 12 -14 25.5t-51 13.5h-20l5 26q61 -1 121.5 -2.5t121.5 -1.5t121 1.5t121 2.5l-11 -139h-20v24q0 27 -8 43.5t-26 25t-47.5 11.5t-72.5 3h-122l-52 -284h130q35 -1 62 7t35 38l13 48h17l-41 -227h-16l3 39q3 34 -19.5 44t-70.5 10h-119
l-39 -223q-2 -10 -3.5 -19.5t-1.5 -18.5q0 -20 11 -34t46 -14h157q43 0 69.5 7t44.5 23t31 42t29 64h23l-45 -168q-17 0 -56 0.5t-87 0.5t-99.5 0.5t-94.5 0.5q-55 0 -110 -0.5t-110 -1.5z" />
    <glyph glyph-name="Igrave" unicode="&#xcc;" horiz-adv-x="389" 
d="M353 737h-21q-6 0 -10 3t-7 5l-117 88q-12 10 -20.5 20t-8.5 19q0 11 9.5 21.5t20.5 10.5q13 0 19 -3t14 -13zM28 26h17q21 0 33.5 3t20 10.5t12.5 21.5t10 36l97 529q3 19 -3 28.5t-16.5 13.5t-24.5 4h-23h-18l5 26q38 -2 74 -2h73q29 0 58 1t59 1l-5 -26h-19h-14
t-21 -3.5t-21 -12.5t-14 -27l-98 -533q-4 -23 -3 -36.5t8.5 -21t22.5 -10t38 -2.5h15l-5 -26q-33 0 -66.5 1t-66.5 1q-32 0 -65 -0.5t-65 -1.5z" />
    <glyph glyph-name="Iacute" unicode="&#xcd;" horiz-adv-x="389" 
d="M229 737l152 148q9 7 16.5 13t17.5 6q12 0 22 -9.5t10 -23.5t-13.5 -24t-21.5 -15l-115 -75q-12 -8 -24.5 -14t-17.5 -6h-26zM28 26h17q21 0 33.5 3t20 10.5t12.5 21.5t10 36l97 529q3 19 -3 28.5t-16.5 13.5t-24.5 4h-23h-18l5 26q38 -2 74 -2h73q29 0 58 1t59 1l-5 -26
h-19h-14t-21 -3.5t-21 -12.5t-14 -27l-98 -533q-4 -23 -3 -36.5t8.5 -21t22.5 -10t38 -2.5h15l-5 -26q-33 0 -66.5 1t-66.5 1q-32 0 -65 -0.5t-65 -1.5z" />
    <glyph glyph-name="Icircumflex" unicode="&#xce;" horiz-adv-x="389" 
d="M425 737h-33l-82 107l-135 -107h-37l161 167h38zM28 26h17q21 0 33.5 3t20 10.5t12.5 21.5t10 36l97 529q3 19 -3 28.5t-16.5 13.5t-24.5 4h-23h-18l5 26q38 -2 74 -2h73q29 0 58 1t59 1l-5 -26h-19h-14t-21 -3.5t-21 -12.5t-14 -27l-98 -533q-4 -23 -3 -36.5t8.5 -21
t22.5 -10t38 -2.5h15l-5 -26q-33 0 -66.5 1t-66.5 1q-32 0 -65 -0.5t-65 -1.5z" />
    <glyph glyph-name="Idieresis" unicode="&#xcf;" horiz-adv-x="389" 
d="M145 801q0 21 14 35t34 14q21 0 35.5 -14t14.5 -35q0 -20 -14.5 -34.5t-35.5 -14.5q-20 0 -34 14.5t-14 34.5zM345 801q0 21 14 35t34 14q21 0 35.5 -14t14.5 -35q0 -20 -14.5 -34.5t-35.5 -14.5q-20 0 -34 14.5t-14 34.5zM28 26h17q21 0 33.5 3t20 10.5t12.5 21.5t10 36
l97 529q3 19 -3 28.5t-16.5 13.5t-24.5 4h-23h-18l5 26q38 -2 74 -2h73q29 0 58 1t59 1l-5 -26h-19h-14t-21 -3.5t-21 -12.5t-14 -27l-98 -533q-4 -23 -3 -36.5t8.5 -21t22.5 -10t38 -2.5h15l-5 -26q-33 0 -66.5 1t-66.5 1q-32 0 -65 -0.5t-65 -1.5z" />
    <glyph glyph-name="Eth" unicode="&#xd0;" horiz-adv-x="833" 
d="M468 341h-211l-46 -247q-5 -22 5.5 -34.5t29.5 -18.5t44 -7.5t50 -1.5q78 0 139.5 29t104.5 78.5t65.5 116t22.5 140.5q0 51 -14 90.5t-35 68.5t-45 48.5t-44 28.5q-18 9 -33.5 15t-32 10.5t-36 6.5t-45.5 2q-30 0 -44.5 -1t-25.5 -2l-52 -281h210zM167 341h-91l7 41h92
l31 169q6 27 8 46t2 33q0 24 -17.5 31.5t-52.5 10.5h-19l5 26q60 -3 119 -3q18 0 33.5 0.5t32.5 1t36.5 1t46.5 0.5q55 0 95.5 -7t70.5 -18t52 -24.5t39 -26.5q51 -38 82 -98t31 -142q0 -88 -32 -159t-87.5 -120.5t-130.5 -76t-161 -26.5q-33 0 -66.5 0.5t-66.5 0.5
q-51 0 -101.5 -0.5t-101.5 -0.5l5 26h22q18 1 30 3.5t20 10t13 21t9 35.5z" />
    <glyph glyph-name="Ntilde" unicode="&#xd1;" horiz-adv-x="833" 
d="M342 759q10 39 37.5 67.5t70.5 28.5q16 0 34 -7t36 -15t34 -15t28 -7q24 0 37 15t22 34h26q-3 -18 -12 -36t-23.5 -32t-32.5 -23t-37 -9q-14 0 -32 7t-36 15q-17 8 -34 17t-31 9q-26 0 -37.5 -13t-22.5 -36h-27zM23 26h14q21 0 36 3.5t26 17t20 41t17 74.5l76 432
q0 2 -4.5 10t-12 18t-17.5 19t-20 14q-17 8 -33 12.5t-23 4.5h-9l4 26q45 -3 91 -3q17 0 33.5 1.5t33.5 1.5l382 -567l71 417q4 17 5.5 33.5t1.5 33.5q0 19 -6 30.5t-15.5 17.5t-23 7.5t-28.5 1.5h-19l4 26q55 -3 111 -3q29 0 59 1.5t59 1.5l-4 -26h-15q-25 0 -39 -9.5
t-22 -26t-12.5 -38t-8.5 -45.5l-86 -467q13 -21 29.5 -40t41.5 -26l-5 -20q-15 1 -29.5 1.5t-29.5 0.5t-30 -0.5t-30 -1.5l-371 551l-66 -404q-3 -19 -6.5 -39.5t-3.5 -35.5q0 -20 14.5 -33t49.5 -13h32l-5 -26q-30 0 -60.5 1t-60.5 1t-60 -0.5t-60 -1.5z" />
    <glyph glyph-name="Ograve" unicode="&#xd2;" horiz-adv-x="889" 
d="M603 737h-21q-6 0 -10 3t-7 5l-117 88q-12 10 -20.5 20t-8.5 19q0 11 9.5 21.5t20.5 10.5q13 0 19 -3t14 -13zM186 294q0 -59 13.5 -109.5t43 -88t76 -58.5t112.5 -21q74 0 129.5 35.5t93 91t56 122.5t18.5 130q0 56 -14 107.5t-44 91t-76 63t-110 23.5q-78 0 -134 -35.5
t-92.5 -91t-54 -124.5t-17.5 -136zM88 315q0 83 31 155.5t84.5 126.5t125.5 85t154 31q67 0 129.5 -22.5t109.5 -64t75.5 -99.5t28.5 -129q0 -86 -30 -161t-83 -131t-126.5 -88.5t-160.5 -32.5q-75 0 -137 23t-107 65.5t-69.5 103.5t-24.5 138z" />
    <glyph glyph-name="Oacute" unicode="&#xd3;" horiz-adv-x="889" 
d="M479 737l152 148q9 7 16.5 13t17.5 6q12 0 22 -9.5t10 -23.5t-13.5 -24t-21.5 -15l-115 -75q-12 -8 -24.5 -14t-17.5 -6h-26zM186 294q0 -59 13.5 -109.5t43 -88t76 -58.5t112.5 -21q74 0 129.5 35.5t93 91t56 122.5t18.5 130q0 56 -14 107.5t-44 91t-76 63t-110 23.5
q-78 0 -134 -35.5t-92.5 -91t-54 -124.5t-17.5 -136zM88 315q0 83 31 155.5t84.5 126.5t125.5 85t154 31q67 0 129.5 -22.5t109.5 -64t75.5 -99.5t28.5 -129q0 -86 -30 -161t-83 -131t-126.5 -88.5t-160.5 -32.5q-75 0 -137 23t-107 65.5t-69.5 103.5t-24.5 138z" />
    <glyph glyph-name="Ocircumflex" unicode="&#xd4;" horiz-adv-x="889" 
d="M675 737h-33l-82 107l-135 -107h-37l161 167h38zM186 294q0 -59 13.5 -109.5t43 -88t76 -58.5t112.5 -21q74 0 129.5 35.5t93 91t56 122.5t18.5 130q0 56 -14 107.5t-44 91t-76 63t-110 23.5q-78 0 -134 -35.5t-92.5 -91t-54 -124.5t-17.5 -136zM88 315q0 83 31 155.5
t84.5 126.5t125.5 85t154 31q67 0 129.5 -22.5t109.5 -64t75.5 -99.5t28.5 -129q0 -86 -30 -161t-83 -131t-126.5 -88.5t-160.5 -32.5q-75 0 -137 23t-107 65.5t-69.5 103.5t-24.5 138z" />
    <glyph glyph-name="Otilde" unicode="&#xd5;" horiz-adv-x="889" 
d="M365 759q10 39 37.5 67.5t70.5 28.5q16 0 34 -7t36 -15t34 -15t28 -7q24 0 37 15t22 34h26q-3 -18 -12 -36t-23.5 -32t-32.5 -23t-37 -9q-14 0 -32 7t-36 15q-17 8 -34 17t-31 9q-26 0 -37.5 -13t-22.5 -36h-27zM186 294q0 -59 13.5 -109.5t43 -88t76 -58.5t112.5 -21
q74 0 129.5 35.5t93 91t56 122.5t18.5 130q0 56 -14 107.5t-44 91t-76 63t-110 23.5q-78 0 -134 -35.5t-92.5 -91t-54 -124.5t-17.5 -136zM88 315q0 83 31 155.5t84.5 126.5t125.5 85t154 31q67 0 129.5 -22.5t109.5 -64t75.5 -99.5t28.5 -129q0 -86 -30 -161t-83 -131
t-126.5 -88.5t-160.5 -32.5q-75 0 -137 23t-107 65.5t-69.5 103.5t-24.5 138z" />
    <glyph glyph-name="Odieresis" unicode="&#xd6;" horiz-adv-x="889" 
d="M595 801q0 21 14 35t34 14q21 0 35.5 -14t14.5 -35q0 -20 -14.5 -34.5t-35.5 -14.5q-20 0 -34 14.5t-14 34.5zM395 801q0 21 14 35t34 14q21 0 35.5 -14t14.5 -35q0 -20 -14.5 -34.5t-35.5 -14.5q-20 0 -34 14.5t-14 34.5zM186 294q0 -59 13.5 -109.5t43 -88t76 -58.5
t112.5 -21q74 0 129.5 35.5t93 91t56 122.5t18.5 130q0 56 -14 107.5t-44 91t-76 63t-110 23.5q-78 0 -134 -35.5t-92.5 -91t-54 -124.5t-17.5 -136zM88 315q0 83 31 155.5t84.5 126.5t125.5 85t154 31q67 0 129.5 -22.5t109.5 -64t75.5 -99.5t28.5 -129q0 -86 -30 -161
t-83 -131t-126.5 -88.5t-160.5 -32.5q-75 0 -137 23t-107 65.5t-69.5 103.5t-24.5 138z" />
    <glyph glyph-name="multiply" unicode="&#xd7;" 
d="M104 3l-47 46l176 172l-176 175l48 46l173 -175l173 175l48 -46l-176 -175l176 -172l-47 -46l-174 173z" />
    <glyph glyph-name="Oslash" unicode="&#xd8;" horiz-adv-x="889" 
d="M237 106q29 -42 77 -65.5t117 -23.5q74 0 129.5 35.5t93 91t56 122.5t18.5 130q0 43 -8 83t-25 75zM678 584q-29 44 -77 70.5t-117 26.5q-78 0 -134 -35.5t-92.5 -91t-54 -124.5t-17.5 -136q0 -45 8 -85t25 -74zM848 704l-102 -100q38 -41 59 -92.5t21 -113.5
q0 -86 -30 -161t-83 -131t-126.5 -88.5t-160.5 -32.5q-71 0 -129.5 20.5t-102.5 58.5l-98 -95l-24 23l98 95q-39 42 -60.5 99t-21.5 129q0 83 31 155.5t84.5 126.5t125.5 85t154 31q68 0 130 -22.5t109 -63.5l105 103z" />
    <glyph glyph-name="Ugrave" unicode="&#xd9;" horiz-adv-x="778" 
d="M547 737h-21q-6 0 -10 3t-7 5l-117 88q-12 10 -20.5 20t-8.5 19q0 11 9.5 21.5t20.5 10.5q13 0 19 -3t14 -13zM200 557q3 18 5 34t2 28q0 20 -6 30.5t-16.5 15.5t-24 6t-28.5 1h-19l5 26q39 -2 78 -2h79q33 0 66 1t67 1l-5 -25h-23q-18 -1 -32 -5.5t-25 -18t-19.5 -37.5
t-14.5 -63l-54 -335q-3 -21 -3 -40q0 -39 14.5 -67t37.5 -46t52 -26.5t59 -8.5q66 0 105 22t61.5 59.5t33 87t18.5 103.5l48 274q2 13 2.5 21t0.5 17q0 33 -21.5 47.5t-63.5 14.5h-15l5 26q30 -2 61 -2h62q27 0 54.5 1t54.5 1l-5 -26h-13q-27 0 -42.5 -16.5t-24.5 -40.5
t-13 -50.5t-7 -47.5l-44 -266q-7 -39 -13.5 -68.5t-15.5 -52.5t-21.5 -42t-31.5 -37q-30 -29 -77 -47.5t-118 -18.5q-43 0 -85 10t-75.5 31.5t-54 56.5t-20.5 85q0 32 4.5 65t10.5 65z" />
    <glyph glyph-name="Uacute" unicode="&#xda;" horiz-adv-x="778" 
d="M423 737l152 148q9 7 16.5 13t17.5 6q12 0 22 -9.5t10 -23.5t-13.5 -24t-21.5 -15l-115 -75q-12 -8 -24.5 -14t-17.5 -6h-26zM200 557q3 18 5 34t2 28q0 20 -6 30.5t-16.5 15.5t-24 6t-28.5 1h-19l5 26q39 -2 78 -2h79q33 0 66 1t67 1l-5 -25h-23q-18 -1 -32 -5.5
t-25 -18t-19.5 -37.5t-14.5 -63l-54 -335q-3 -21 -3 -40q0 -39 14.5 -67t37.5 -46t52 -26.5t59 -8.5q66 0 105 22t61.5 59.5t33 87t18.5 103.5l48 274q2 13 2.5 21t0.5 17q0 33 -21.5 47.5t-63.5 14.5h-15l5 26q30 -2 61 -2h62q27 0 54.5 1t54.5 1l-5 -26h-13
q-27 0 -42.5 -16.5t-24.5 -40.5t-13 -50.5t-7 -47.5l-44 -266q-7 -39 -13.5 -68.5t-15.5 -52.5t-21.5 -42t-31.5 -37q-30 -29 -77 -47.5t-118 -18.5q-43 0 -85 10t-75.5 31.5t-54 56.5t-20.5 85q0 32 4.5 65t10.5 65z" />
    <glyph glyph-name="Ucircumflex" unicode="&#xdb;" horiz-adv-x="778" 
d="M619 737h-33l-82 107l-135 -107h-37l161 167h38zM200 557q3 18 5 34t2 28q0 20 -6 30.5t-16.5 15.5t-24 6t-28.5 1h-19l5 26q39 -2 78 -2h79q33 0 66 1t67 1l-5 -25h-23q-18 -1 -32 -5.5t-25 -18t-19.5 -37.5t-14.5 -63l-54 -335q-3 -21 -3 -40q0 -39 14.5 -67t37.5 -46
t52 -26.5t59 -8.5q66 0 105 22t61.5 59.5t33 87t18.5 103.5l48 274q2 13 2.5 21t0.5 17q0 33 -21.5 47.5t-63.5 14.5h-15l5 26q30 -2 61 -2h62q27 0 54.5 1t54.5 1l-5 -26h-13q-27 0 -42.5 -16.5t-24.5 -40.5t-13 -50.5t-7 -47.5l-44 -266q-7 -39 -13.5 -68.5t-15.5 -52.5
t-21.5 -42t-31.5 -37q-30 -29 -77 -47.5t-118 -18.5q-43 0 -85 10t-75.5 31.5t-54 56.5t-20.5 85q0 32 4.5 65t10.5 65z" />
    <glyph glyph-name="Udieresis" unicode="&#xdc;" horiz-adv-x="778" 
d="M344 801q0 21 14 35t34 14q21 0 35.5 -14t14.5 -35q0 -20 -14.5 -34.5t-35.5 -14.5q-20 0 -34 14.5t-14 34.5zM544 801q0 21 14 35t34 14q21 0 35.5 -14t14.5 -35q0 -20 -14.5 -34.5t-35.5 -14.5q-20 0 -34 14.5t-14 34.5zM200 557q3 18 5 34t2 28q0 20 -6 30.5
t-16.5 15.5t-24 6t-28.5 1h-19l5 26q39 -2 78 -2h79q33 0 66 1t67 1l-5 -25h-23q-18 -1 -32 -5.5t-25 -18t-19.5 -37.5t-14.5 -63l-54 -335q-3 -21 -3 -40q0 -39 14.5 -67t37.5 -46t52 -26.5t59 -8.5q66 0 105 22t61.5 59.5t33 87t18.5 103.5l48 274q2 13 2.5 21t0.5 17
q0 33 -21.5 47.5t-63.5 14.5h-15l5 26q30 -2 61 -2h62q27 0 54.5 1t54.5 1l-5 -26h-13q-27 0 -42.5 -16.5t-24.5 -40.5t-13 -50.5t-7 -47.5l-44 -266q-7 -39 -13.5 -68.5t-15.5 -52.5t-21.5 -42t-31.5 -37q-30 -29 -77 -47.5t-118 -18.5q-43 0 -85 10t-75.5 31.5t-54 56.5
t-20.5 85q0 32 4.5 65t10.5 65z" />
    <glyph glyph-name="Yacute" unicode="&#xdd;" horiz-adv-x="667" 
d="M368 737l152 148q9 7 16.5 13t17.5 6q12 0 22 -9.5t10 -23.5t-13.5 -24t-21.5 -15l-115 -75q-12 -8 -24.5 -14t-17.5 -6h-26zM346 672h-36q-15 0 -28.5 -8t-4.5 -29l128 -303l182 285q8 13 10.5 21.5t2.5 12.5q0 7 -6.5 11.5t-15.5 6.5t-20 2.5t-20 0.5h-17l4 26
q30 -2 60 -2h61h37t37 2l-5 -26q-22 2 -38.5 -14t-28.5 -33l-10 -15l-220 -323l-37 -196q-5 -24 -0.5 -37.5t15.5 -19.5t27 -7t35 -1h18l-5 -26q-38 0 -77 1t-77 1q-32 0 -64.5 -0.5t-64.5 -1.5l4 26h22q22 0 35.5 2.5t21.5 9.5t12 19t7 29l38 199l-154 352
q-8 18 -28.5 26.5t-42.5 8.5h-10l4 26q31 -2 61 -2h62q33 0 65.5 1t65.5 1z" />
    <glyph glyph-name="Thorn" unicode="&#xde;" horiz-adv-x="611" 
d="M238 249q19 -2 40 -3t40 -1q29 0 57.5 9t51.5 29.5t37.5 54t14.5 82.5q0 63 -32 93t-101 30q-11 0 -23.5 -1t-30.5 -2zM215 629q3 16 -4.5 25t-20 13t-28 4.5t-28.5 0.5h-18l5 26q35 -1 70.5 -1.5t70.5 -0.5t68.5 0.5t68.5 1.5l-5 -26h-21q-26 0 -43 -9t-24 -47l-7 -44
q45 3 93 3q37 0 71 -8.5t59 -27t40 -48t15 -70.5q0 -51 -21 -90t-55 -65t-78 -39.5t-90 -13.5q-58 0 -100 6l-21 -114l-5 -36q0 -17 7.5 -26t19.5 -13t26 -4h28h18l-5 -26q-35 1 -70.5 1.5t-70.5 0.5t-68.5 -0.5t-68.5 -1.5l5 26h21q13 1 23.5 3t18.5 7t14.5 16t10.5 30z
" />
    <glyph glyph-name="germandbls" unicode="&#xdf;" 
d="M149 440q7 28 14.5 55t17.5 51q13 33 41 71t63.5 71t75 54.5t77.5 21.5q53 0 87.5 -31t34.5 -85q0 -34 -11.5 -59.5t-30 -45.5t-42 -37.5t-47.5 -35.5q-20 -15 -36 -32t-16 -43q0 -24 17 -51.5t37.5 -57.5t37.5 -62t17 -66q0 -33 -14 -60t-36 -50q-29 -29 -64 -46
t-77 -17q-12 0 -25 4t-23.5 11.5t-17.5 18t-7 24.5q0 33 28 52h8q16 -25 40.5 -40.5t54.5 -15.5t52 16t22 48t-19.5 63t-42.5 62.5t-42.5 64.5t-19.5 69q0 25 13.5 44.5t34 37.5t44 36t44 38.5t34 45t13.5 56.5q0 41 -25.5 62.5t-65.5 21.5q-36 0 -60.5 -17.5t-40 -44
t-25 -58.5t-16.5 -61l-181 -721l-60 -30h-9z" />
    <glyph glyph-name="agrave" unicode="&#xe0;" horiz-adv-x="500" 
d="M383 546h-21q-6 0 -10 3t-7 5l-117 88q-12 10 -20.5 20t-8.5 19q0 11 9.5 21.5t20.5 10.5q13 0 19 -3t14 -13zM87 128q0 -26 11 -47.5t40 -21.5q24 0 50 16t50.5 42t46.5 58.5t38.5 66t26 64.5t9.5 53q0 19 -15 35t-35 16q-27 0 -54 -14t-51.5 -37t-46 -53t-37 -61
t-24.5 -61.5t-9 -55.5zM313 177q-19 -29 -45 -62.5t-56 -62.5t-61.5 -48t-61.5 -19q-23 0 -37.5 8t-23 20t-12 26.5t-3.5 28.5q0 40 15 84t40.5 87.5t58.5 83t69 69t72.5 47.5t68.5 18q19 0 35.5 -9.5t27.5 -23.5l14 32q3 5 8 12.5t14 7.5h21q9 0 9 -5q0 -2 -0.5 -3.5
l-1.5 -4.5l-99 -355q-4 -12 -4 -25q0 -5 2.5 -9.5t9.5 -4.5q11 0 21 7t19.5 16.5t18 19.5t15.5 16l16 -13q-15 -15 -33 -37.5t-38 -43t-42.5 -35t-46.5 -14.5q-11 0 -22.5 6.5t-11.5 21.5q0 13 5 32.5t12 40.5l29 91h-2l1 -2h-2z" />
    <glyph glyph-name="aacute" unicode="&#xe1;" horiz-adv-x="500" 
d="M259 546l152 148q9 7 16.5 13t17.5 6q12 0 22 -9.5t10 -23.5t-13.5 -24t-21.5 -15l-115 -75q-12 -8 -24.5 -14t-17.5 -6h-26zM87 128q0 -26 11 -47.5t40 -21.5q24 0 50 16t50.5 42t46.5 58.5t38.5 66t26 64.5t9.5 53q0 19 -15 35t-35 16q-27 0 -54 -14t-51.5 -37t-46 -53
t-37 -61t-24.5 -61.5t-9 -55.5zM313 177q-19 -29 -45 -62.5t-56 -62.5t-61.5 -48t-61.5 -19q-23 0 -37.5 8t-23 20t-12 26.5t-3.5 28.5q0 40 15 84t40.5 87.5t58.5 83t69 69t72.5 47.5t68.5 18q19 0 35.5 -9.5t27.5 -23.5l14 32q3 5 8 12.5t14 7.5h21q9 0 9 -5
q0 -2 -0.5 -3.5l-1.5 -4.5l-99 -355q-4 -12 -4 -25q0 -5 2.5 -9.5t9.5 -4.5q11 0 21 7t19.5 16.5t18 19.5t15.5 16l16 -13q-15 -15 -33 -37.5t-38 -43t-42.5 -35t-46.5 -14.5q-11 0 -22.5 6.5t-11.5 21.5q0 13 5 32.5t12 40.5l29 91h-2l1 -2h-2z" />
    <glyph glyph-name="acircumflex" unicode="&#xe2;" horiz-adv-x="500" 
d="M455 546h-33l-82 107l-135 -107h-37l161 167h38zM87 128q0 -26 11 -47.5t40 -21.5q24 0 50 16t50.5 42t46.5 58.5t38.5 66t26 64.5t9.5 53q0 19 -15 35t-35 16q-27 0 -54 -14t-51.5 -37t-46 -53t-37 -61t-24.5 -61.5t-9 -55.5zM313 177q-19 -29 -45 -62.5t-56 -62.5
t-61.5 -48t-61.5 -19q-23 0 -37.5 8t-23 20t-12 26.5t-3.5 28.5q0 40 15 84t40.5 87.5t58.5 83t69 69t72.5 47.5t68.5 18q19 0 35.5 -9.5t27.5 -23.5l14 32q3 5 8 12.5t14 7.5h21q9 0 9 -5q0 -2 -0.5 -3.5l-1.5 -4.5l-99 -355q-4 -12 -4 -25q0 -5 2.5 -9.5t9.5 -4.5
q11 0 21 7t19.5 16.5t18 19.5t15.5 16l16 -13q-15 -15 -33 -37.5t-38 -43t-42.5 -35t-46.5 -14.5q-11 0 -22.5 6.5t-11.5 21.5q0 13 5 32.5t12 40.5l29 91h-2l1 -2h-2z" />
    <glyph glyph-name="atilde" unicode="&#xe3;" horiz-adv-x="500" 
d="M145 568q10 39 37.5 67.5t70.5 28.5q16 0 34 -7t36 -15t34 -15t28 -7q24 0 37 15t22 34h26q-3 -18 -12 -36t-23.5 -32t-32.5 -23t-37 -9q-14 0 -32 7t-36 15q-17 8 -34 17t-31 9q-26 0 -37.5 -13t-22.5 -36h-27zM87 128q0 -26 11 -47.5t40 -21.5q24 0 50 16t50.5 42
t46.5 58.5t38.5 66t26 64.5t9.5 53q0 19 -15 35t-35 16q-27 0 -54 -14t-51.5 -37t-46 -53t-37 -61t-24.5 -61.5t-9 -55.5zM313 177q-19 -29 -45 -62.5t-56 -62.5t-61.5 -48t-61.5 -19q-23 0 -37.5 8t-23 20t-12 26.5t-3.5 28.5q0 40 15 84t40.5 87.5t58.5 83t69 69
t72.5 47.5t68.5 18q19 0 35.5 -9.5t27.5 -23.5l14 32q3 5 8 12.5t14 7.5h21q9 0 9 -5q0 -2 -0.5 -3.5l-1.5 -4.5l-99 -355q-4 -12 -4 -25q0 -5 2.5 -9.5t9.5 -4.5q11 0 21 7t19.5 16.5t18 19.5t15.5 16l16 -13q-15 -15 -33 -37.5t-38 -43t-42.5 -35t-46.5 -14.5
q-11 0 -22.5 6.5t-11.5 21.5q0 13 5 32.5t12 40.5l29 91h-2l1 -2h-2z" />
    <glyph glyph-name="adieresis" unicode="&#xe4;" horiz-adv-x="500" 
d="M375 610q0 21 14 35t34 14q21 0 35.5 -14t14.5 -35q0 -20 -14.5 -34.5t-35.5 -14.5q-20 0 -34 14.5t-14 34.5zM175 610q0 21 14 35t34 14q21 0 35.5 -14t14.5 -35q0 -20 -14.5 -34.5t-35.5 -14.5q-20 0 -34 14.5t-14 34.5zM87 128q0 -26 11 -47.5t40 -21.5q24 0 50 16
t50.5 42t46.5 58.5t38.5 66t26 64.5t9.5 53q0 19 -15 35t-35 16q-27 0 -54 -14t-51.5 -37t-46 -53t-37 -61t-24.5 -61.5t-9 -55.5zM313 177q-19 -29 -45 -62.5t-56 -62.5t-61.5 -48t-61.5 -19q-23 0 -37.5 8t-23 20t-12 26.5t-3.5 28.5q0 40 15 84t40.5 87.5t58.5 83t69 69
t72.5 47.5t68.5 18q19 0 35.5 -9.5t27.5 -23.5l14 32q3 5 8 12.5t14 7.5h21q9 0 9 -5q0 -2 -0.5 -3.5l-1.5 -4.5l-99 -355q-4 -12 -4 -25q0 -5 2.5 -9.5t9.5 -4.5q11 0 21 7t19.5 16.5t18 19.5t15.5 16l16 -13q-15 -15 -33 -37.5t-38 -43t-42.5 -35t-46.5 -14.5
q-11 0 -22.5 6.5t-11.5 21.5q0 13 5 32.5t12 40.5l29 91h-2l1 -2h-2z" />
    <glyph glyph-name="aring" unicode="&#xe5;" horiz-adv-x="500" 
d="M362 558q27 0 46.5 19.5t19.5 46.5t-19.5 46.5t-46.5 19.5t-46.5 -19.5t-19.5 -46.5t19.5 -46.5t46.5 -19.5zM362 526q-41 0 -69.5 28.5t-28.5 69.5t28.5 69.5t69.5 28.5t69.5 -28.5t28.5 -69.5t-28.5 -69.5t-69.5 -28.5zM87 128q0 -26 11 -47.5t40 -21.5q24 0 50 16
t50.5 42t46.5 58.5t38.5 66t26 64.5t9.5 53q0 19 -15 35t-35 16q-27 0 -54 -14t-51.5 -37t-46 -53t-37 -61t-24.5 -61.5t-9 -55.5zM313 177q-19 -29 -45 -62.5t-56 -62.5t-61.5 -48t-61.5 -19q-23 0 -37.5 8t-23 20t-12 26.5t-3.5 28.5q0 40 15 84t40.5 87.5t58.5 83t69 69
t72.5 47.5t68.5 18q19 0 35.5 -9.5t27.5 -23.5l14 32q3 5 8 12.5t14 7.5h21q9 0 9 -5q0 -2 -0.5 -3.5l-1.5 -4.5l-99 -355q-4 -12 -4 -25q0 -5 2.5 -9.5t9.5 -4.5q11 0 21 7t19.5 16.5t18 19.5t15.5 16l16 -13q-15 -15 -33 -37.5t-38 -43t-42.5 -35t-46.5 -14.5
q-11 0 -22.5 6.5t-11.5 21.5q0 13 5 32.5t12 40.5l29 91h-2l1 -2h-2z" />
    <glyph glyph-name="ae" unicode="&#xe6;" horiz-adv-x="722" 
d="M618 381q0 21 -12 32.5t-32 11.5q-34 0 -64.5 -21t-54.5 -52.5t-41 -67t-24 -65.5q31 0 70.5 11.5t74.5 33t59 51.5t24 66zM96 113q0 -23 9 -38.5t37 -15.5q20 0 44.5 15t49 39t47 55.5t40 63.5t28 63t10.5 55q0 23 -12.5 37t-40.5 14t-55 -14.5t-50.5 -38.5t-43 -54.5
t-33.5 -62.5t-22 -63t-8 -55zM442 481l44 8l15 -5l-38 -81h2q30 20 67 37t78 17q34 0 61 -14t27 -51q0 -34 -16 -61.5t-42 -48.5t-59.5 -37t-68.5 -26.5t-69 -17t-60 -8.5q-3 -16 -5.5 -30.5t-2.5 -29.5q0 -44 19.5 -69t65.5 -25q25 0 49 7.5t46 19.5t42.5 27t40.5 30
l15 -15q-23 -25 -49 -47t-55 -39t-61 -27t-67 -10q-58 0 -89 30.5t-31 89.5q0 11 0.5 21.5t1.5 21.5h-2q-14 -20 -38 -48t-53.5 -53.5t-61 -43.5t-59.5 -18q-20 -1 -33 6t-20.5 20t-10.5 30t-3 36q0 35 13.5 76t36.5 81.5t54.5 78t66.5 66.5t73 46t75 17q23 0 38 -5.5
t32 -19.5z" />
    <glyph glyph-name="ccedilla" unicode="&#xe7;" horiz-adv-x="444" 
d="M167 -15q-59 2 -89 40t-30 96q0 51 18 98t48.5 86t70.5 69.5t84 48.5l25 10t30.5 11.5t30.5 9t26 3.5q17 0 33 -10t16 -30q0 -23 -13.5 -37.5t-32.5 -14.5q-13 0 -23 5t-19.5 11t-18.5 11t-21 5q-38 0 -70 -30t-55 -72t-36 -87.5t-13 -76.5q0 -43 25 -67.5t70 -24.5
q25 0 50 10t48.5 26t43.5 34.5t37 36.5l14 -18q-44 -50 -95 -90t-116 -50l-35 -52l2 -2q4 2 13 3.5t18 1.5q29 0 49 -16.5t20 -49.5q0 -24 -10.5 -40.5t-27.5 -26.5t-37.5 -14.5t-41.5 -4.5q-23 0 -46 5.5t-44 15.5l18 26q13 -5 27.5 -10t28.5 -5q11 0 23 2.5t21.5 7.5
t16 14t6.5 22q0 20 -13.5 31t-31.5 11q-11 0 -21 -2.5t-18 -6.5l-7 10z" />
    <glyph glyph-name="egrave" unicode="&#xe8;" horiz-adv-x="444" 
d="M355 546h-21q-6 0 -10 3t-7 5l-117 88q-12 10 -20.5 20t-8.5 19q0 11 9.5 21.5t20.5 10.5q13 0 19 -3t14 -13zM129 219q34 2 72 12.5t69 30.5t51.5 49.5t20.5 70.5q0 20 -10.5 31.5t-30.5 11.5q-29 0 -57 -23t-51.5 -55.5t-40.5 -67.5t-23 -60zM386 115
q-50 -55 -105.5 -92.5t-121.5 -37.5q-35 0 -58.5 11.5t-37.5 30.5t-20.5 43.5t-6.5 49.5q0 60 24.5 120t65 108.5t92.5 78.5t106 30q17 0 34.5 -3.5t31.5 -11.5t23 -21.5t9 -34.5q0 -51 -31.5 -86t-77.5 -57.5t-97.5 -34t-91.5 -15.5q-5 -20 -6.5 -38.5t-1.5 -38.5
q0 -38 23.5 -57.5t58.5 -19.5q44 0 87.5 25.5t86.5 67.5z" />
    <glyph glyph-name="eacute" unicode="&#xe9;" horiz-adv-x="444" 
d="M231 546l152 148q9 7 16.5 13t17.5 6q12 0 22 -9.5t10 -23.5t-13.5 -24t-21.5 -15l-115 -75q-12 -8 -24.5 -14t-17.5 -6h-26zM129 219q34 2 72 12.5t69 30.5t51.5 49.5t20.5 70.5q0 20 -10.5 31.5t-30.5 11.5q-29 0 -57 -23t-51.5 -55.5t-40.5 -67.5t-23 -60zM386 115
q-50 -55 -105.5 -92.5t-121.5 -37.5q-35 0 -58.5 11.5t-37.5 30.5t-20.5 43.5t-6.5 49.5q0 60 24.5 120t65 108.5t92.5 78.5t106 30q17 0 34.5 -3.5t31.5 -11.5t23 -21.5t9 -34.5q0 -51 -31.5 -86t-77.5 -57.5t-97.5 -34t-91.5 -15.5q-5 -20 -6.5 -38.5t-1.5 -38.5
q0 -38 23.5 -57.5t58.5 -19.5q44 0 87.5 25.5t86.5 67.5z" />
    <glyph glyph-name="ecircumflex" unicode="&#xea;" horiz-adv-x="444" 
d="M427 546h-33l-82 107l-135 -107h-37l161 167h38zM129 219q34 2 72 12.5t69 30.5t51.5 49.5t20.5 70.5q0 20 -10.5 31.5t-30.5 11.5q-29 0 -57 -23t-51.5 -55.5t-40.5 -67.5t-23 -60zM386 115q-50 -55 -105.5 -92.5t-121.5 -37.5q-35 0 -58.5 11.5t-37.5 30.5t-20.5 43.5
t-6.5 49.5q0 60 24.5 120t65 108.5t92.5 78.5t106 30q17 0 34.5 -3.5t31.5 -11.5t23 -21.5t9 -34.5q0 -51 -31.5 -86t-77.5 -57.5t-97.5 -34t-91.5 -15.5q-5 -20 -6.5 -38.5t-1.5 -38.5q0 -38 23.5 -57.5t58.5 -19.5q44 0 87.5 25.5t86.5 67.5z" />
    <glyph glyph-name="edieresis" unicode="&#xeb;" horiz-adv-x="444" 
d="M347 610q0 21 14 35t34 14q21 0 35.5 -14t14.5 -35q0 -20 -14.5 -34.5t-35.5 -14.5q-20 0 -34 14.5t-14 34.5zM147 610q0 21 14 35t34 14q21 0 35.5 -14t14.5 -35q0 -20 -14.5 -34.5t-35.5 -14.5q-20 0 -34 14.5t-14 34.5zM129 219q34 2 72 12.5t69 30.5t51.5 49.5
t20.5 70.5q0 20 -10.5 31.5t-30.5 11.5q-29 0 -57 -23t-51.5 -55.5t-40.5 -67.5t-23 -60zM386 115q-50 -55 -105.5 -92.5t-121.5 -37.5q-35 0 -58.5 11.5t-37.5 30.5t-20.5 43.5t-6.5 49.5q0 60 24.5 120t65 108.5t92.5 78.5t106 30q17 0 34.5 -3.5t31.5 -11.5t23 -21.5
t9 -34.5q0 -51 -31.5 -86t-77.5 -57.5t-97.5 -34t-91.5 -15.5q-5 -20 -6.5 -38.5t-1.5 -38.5q0 -38 23.5 -57.5t58.5 -19.5q44 0 87.5 25.5t86.5 67.5z" />
    <glyph glyph-name="igrave" unicode="&#xec;" horiz-adv-x="278" 
d="M272 546h-21q-6 0 -10 3t-7 5l-117 88q-12 10 -20.5 20t-8.5 19q0 11 9.5 21.5t20.5 10.5q13 0 19 -3t14 -13zM49 327q11 16 29 38.5t39.5 43t45 34.5t44.5 14q31 0 31 -25q0 -11 -5 -28t-9 -28l-82 -254q-5 -14 -7.5 -24.5t-2.5 -17.5q0 -15 13 -15q5 0 16 8.5t23 20
t22.5 22l14.5 14.5l16 -13q-12 -16 -30 -38.5t-39.5 -43.5t-45 -35.5t-44.5 -14.5q-22 0 -30 11.5t-8 28.5q0 18 11 49l86 254q4 11 6.5 20.5t2.5 16.5q0 12 -12 12q-8 0 -18.5 -8t-20.5 -18.5t-19 -21t-13 -16.5z" />
    <glyph glyph-name="iacute" unicode="&#xed;" horiz-adv-x="278" 
d="M148 546l152 148q9 7 16.5 13t17.5 6q12 0 22 -9.5t10 -23.5t-13.5 -24t-21.5 -15l-115 -75q-12 -8 -24.5 -14t-17.5 -6h-26zM49 327q11 16 29 38.5t39.5 43t45 34.5t44.5 14q31 0 31 -25q0 -11 -5 -28t-9 -28l-82 -254q-5 -14 -7.5 -24.5t-2.5 -17.5q0 -15 13 -15
q5 0 16 8.5t23 20t22.5 22l14.5 14.5l16 -13q-12 -16 -30 -38.5t-39.5 -43.5t-45 -35.5t-44.5 -14.5q-22 0 -30 11.5t-8 28.5q0 18 11 49l86 254q4 11 6.5 20.5t2.5 16.5q0 12 -12 12q-8 0 -18.5 -8t-20.5 -18.5t-19 -21t-13 -16.5z" />
    <glyph glyph-name="icircumflex" unicode="&#xee;" horiz-adv-x="278" 
d="M344 546h-33l-82 107l-135 -107h-37l161 167h38zM49 327q11 16 29 38.5t39.5 43t45 34.5t44.5 14q31 0 31 -25q0 -11 -5 -28t-9 -28l-82 -254q-5 -14 -7.5 -24.5t-2.5 -17.5q0 -15 13 -15q5 0 16 8.5t23 20t22.5 22l14.5 14.5l16 -13q-12 -16 -30 -38.5t-39.5 -43.5
t-45 -35.5t-44.5 -14.5q-22 0 -30 11.5t-8 28.5q0 18 11 49l86 254q4 11 6.5 20.5t2.5 16.5q0 12 -12 12q-8 0 -18.5 -8t-20.5 -18.5t-19 -21t-13 -16.5z" />
    <glyph glyph-name="idieresis" unicode="&#xef;" horiz-adv-x="278" 
d="M64 610q0 21 14 35t34 14q21 0 35.5 -14t14.5 -35q0 -20 -14.5 -34.5t-35.5 -14.5q-20 0 -34 14.5t-14 34.5zM264 610q0 21 14 35t34 14q21 0 35.5 -14t14.5 -35q0 -20 -14.5 -34.5t-35.5 -14.5q-20 0 -34 14.5t-14 34.5zM49 327q11 16 29 38.5t39.5 43t45 34.5t44.5 14
q31 0 31 -25q0 -11 -5 -28t-9 -28l-82 -254q-5 -14 -7.5 -24.5t-2.5 -17.5q0 -15 13 -15q5 0 16 8.5t23 20t22.5 22l14.5 14.5l16 -13q-12 -16 -30 -38.5t-39.5 -43.5t-45 -35.5t-44.5 -14.5q-22 0 -30 11.5t-8 28.5q0 18 11 49l86 254q4 11 6.5 20.5t2.5 16.5q0 12 -12 12
q-8 0 -18.5 -8t-20.5 -18.5t-19 -21t-13 -16.5z" />
    <glyph glyph-name="eth" unicode="&#xf0;" 
d="M128 152q0 -28 5.5 -53.5t19 -45t36 -31t55.5 -11.5q48 0 83 29t57.5 72t33 91t10.5 87q0 27 -5.5 52t-18.5 45t-35 32t-54 12q-50 0 -85.5 -28t-58 -70t-33 -91t-10.5 -90zM48 186q0 54 21.5 103t58 86.5t85.5 59.5t103 22q31 0 57.5 -9.5t48.5 -31.5h2q-11 60 -41 113
t-62 86l-145 -55l-20 34l132 51q-27 28 -59.5 55t-61.5 42l22 22q47 -19 82.5 -40t75.5 -56l132 53l19 -33l-120 -50q69 -70 99.5 -149.5t30.5 -162.5t-21 -146.5t-57 -106.5t-83.5 -65.5t-101.5 -22.5q-45 0 -81.5 14.5t-62 40.5t-39.5 63.5t-14 82.5z" />
    <glyph glyph-name="ntilde" unicode="&#xf1;" 
d="M173 568q10 39 37.5 67.5t70.5 28.5q16 0 34 -7t36 -15t34 -15t28 -7q24 0 37 15t22 34h26q-3 -18 -12 -36t-23.5 -32t-32.5 -23t-37 -9q-14 0 -32 7t-36 15q-17 8 -34 17t-31 9q-26 0 -37.5 -13t-22.5 -36h-27zM30 331q14 18 34 39.5t42.5 41t47.5 32.5t50 13
q18 0 26 -10t8 -24q0 -13 -4 -26t-7 -22l-52 -151h2q18 26 52.5 65.5t76 77t85 64t80.5 26.5q23 0 31.5 -12t8.5 -29q0 -12 -3 -25t-7 -24l-80 -220q-7 -18 -11 -30.5t-4 -21.5t3.5 -15t14.5 -6q10 0 22.5 7.5t25 18.5t22.5 23t16 21l17 -13l-36 -44q-13 -16 -28.5 -31.5
t-33.5 -28t-37 -20t-40 -7.5q-20 0 -29 9.5t-9 23.5q0 12 3 26t11 36l78 213q2 7 7.5 23t5.5 27q0 10 -7.5 14.5t-15.5 4.5q-21 0 -42 -11t-40 -27t-35.5 -34t-28.5 -32q-42 -45 -73.5 -96t-51.5 -108l-20 -57q-2 -6 -15 -8.5t-22 -2.5q-8 0 -18 4t-14 9l98 295
q5 14 8.5 27.5t3.5 22.5q0 8 -3.5 13t-12.5 5q-16 0 -30 -10t-28 -24l-27 -30z" />
    <glyph glyph-name="ograve" unicode="&#xf2;" 
d="M411 546h-21q-6 0 -10 3t-7 5l-117 88q-12 10 -20.5 20t-8.5 19q0 11 9.5 21.5t20.5 10.5q13 0 19 -3t14 -13zM128 152q0 -28 5.5 -53.5t19 -45t36 -31t55.5 -11.5q48 0 83 29t57.5 72t33 91t10.5 87q0 27 -5.5 52t-18.5 45t-35 32t-54 12q-50 0 -85.5 -28t-58 -70
t-33 -91t-10.5 -90zM48 186q0 54 21.5 103t58 86.5t85.5 59.5t103 22q43 0 78.5 -15.5t61 -43t39 -64.5t13.5 -80q0 -53 -21 -101.5t-57 -86t-83.5 -59.5t-101.5 -22q-45 0 -81.5 14.5t-62 40.5t-39.5 63.5t-14 82.5z" />
    <glyph glyph-name="oacute" unicode="&#xf3;" 
d="M287 546l152 148q9 7 16.5 13t17.5 6q12 0 22 -9.5t10 -23.5t-13.5 -24t-21.5 -15l-115 -75q-12 -8 -24.5 -14t-17.5 -6h-26zM128 152q0 -28 5.5 -53.5t19 -45t36 -31t55.5 -11.5q48 0 83 29t57.5 72t33 91t10.5 87q0 27 -5.5 52t-18.5 45t-35 32t-54 12q-50 0 -85.5 -28
t-58 -70t-33 -91t-10.5 -90zM48 186q0 54 21.5 103t58 86.5t85.5 59.5t103 22q43 0 78.5 -15.5t61 -43t39 -64.5t13.5 -80q0 -53 -21 -101.5t-57 -86t-83.5 -59.5t-101.5 -22q-45 0 -81.5 14.5t-62 40.5t-39.5 63.5t-14 82.5z" />
    <glyph glyph-name="ocircumflex" unicode="&#xf4;" 
d="M483 546h-33l-82 107l-135 -107h-37l161 167h38zM128 152q0 -28 5.5 -53.5t19 -45t36 -31t55.5 -11.5q48 0 83 29t57.5 72t33 91t10.5 87q0 27 -5.5 52t-18.5 45t-35 32t-54 12q-50 0 -85.5 -28t-58 -70t-33 -91t-10.5 -90zM48 186q0 54 21.5 103t58 86.5t85.5 59.5
t103 22q43 0 78.5 -15.5t61 -43t39 -64.5t13.5 -80q0 -53 -21 -101.5t-57 -86t-83.5 -59.5t-101.5 -22q-45 0 -81.5 14.5t-62 40.5t-39.5 63.5t-14 82.5z" />
    <glyph glyph-name="otilde" unicode="&#xf5;" 
d="M173 568q10 39 37.5 67.5t70.5 28.5q16 0 34 -7t36 -15t34 -15t28 -7q24 0 37 15t22 34h26q-3 -18 -12 -36t-23.5 -32t-32.5 -23t-37 -9q-14 0 -32 7t-36 15q-17 8 -34 17t-31 9q-26 0 -37.5 -13t-22.5 -36h-27zM128 152q0 -28 5.5 -53.5t19 -45t36 -31t55.5 -11.5
q48 0 83 29t57.5 72t33 91t10.5 87q0 27 -5.5 52t-18.5 45t-35 32t-54 12q-50 0 -85.5 -28t-58 -70t-33 -91t-10.5 -90zM48 186q0 54 21.5 103t58 86.5t85.5 59.5t103 22q43 0 78.5 -15.5t61 -43t39 -64.5t13.5 -80q0 -53 -21 -101.5t-57 -86t-83.5 -59.5t-101.5 -22
q-45 0 -81.5 14.5t-62 40.5t-39.5 63.5t-14 82.5z" />
    <glyph glyph-name="odieresis" unicode="&#xf6;" 
d="M403 610q0 21 14 35t34 14q21 0 35.5 -14t14.5 -35q0 -20 -14.5 -34.5t-35.5 -14.5q-20 0 -34 14.5t-14 34.5zM203 610q0 21 14 35t34 14q21 0 35.5 -14t14.5 -35q0 -20 -14.5 -34.5t-35.5 -14.5q-20 0 -34 14.5t-14 34.5zM128 152q0 -28 5.5 -53.5t19 -45t36 -31
t55.5 -11.5q48 0 83 29t57.5 72t33 91t10.5 87q0 27 -5.5 52t-18.5 45t-35 32t-54 12q-50 0 -85.5 -28t-58 -70t-33 -91t-10.5 -90zM48 186q0 54 21.5 103t58 86.5t85.5 59.5t103 22q43 0 78.5 -15.5t61 -43t39 -64.5t13.5 -80q0 -53 -21 -101.5t-57 -86t-83.5 -59.5
t-101.5 -22q-45 0 -81.5 14.5t-62 40.5t-39.5 63.5t-14 82.5z" />
    <glyph glyph-name="divide" unicode="&#xf7;" 
d="M212 51q0 28 19.5 47t47.5 19q26 0 45.5 -19.5t19.5 -46.5q0 -13 -5 -25t-14 -21t-21 -14.5t-25 -5.5q-28 0 -47.5 19.5t-19.5 46.5zM212 391q0 28 19.5 47t46.5 19t46.5 -19.5t19.5 -46.5q0 -26 -19.5 -46t-46.5 -20t-46.5 19.5t-19.5 46.5zM57 188v66h442v-66h-442z
" />
    <glyph glyph-name="oslash" unicode="&#xf8;" 
d="M410 374q-11 25 -34 41t-61 16q-50 0 -85.5 -28t-58 -70t-33 -91t-10.5 -90q0 -29 6 -54l276 276v0zM244 11q48 0 83 29t57.5 72t33 91t10.5 87q0 15 -1.5 29.5t-5.5 28.5l-276 -280q13 -26 37 -41.5t62 -15.5zM528 455l-66 -65q46 -55 46 -136q0 -53 -21 -101.5t-57 -86
t-83.5 -59.5t-101.5 -22q-84 0 -135 48l-61 -61l-21 20l62 62q-42 51 -42 132q0 54 21.5 103t58 86.5t85.5 59.5t103 22q39 0 71.5 -12.5t57.5 -35.5l63 64z" />
    <glyph glyph-name="ugrave" unicode="&#xf9;" 
d="M411 546h-21q-6 0 -10 3t-7 5l-117 88q-12 10 -20.5 20t-8.5 19q0 11 9.5 21.5t20.5 10.5q13 0 19 -3t14 -13zM519 122q-15 -17 -34.5 -38t-41.5 -40t-46 -31.5t-49 -12.5q-37 0 -37 35q0 12 5.5 31t13.5 43l60 177h-2q-12 -16 -33 -43t-47.5 -59t-56.5 -64.5t-60 -59
t-59.5 -43.5t-53.5 -17q-17 0 -29.5 11.5t-12.5 27.5q0 6 2.5 17.5t7.5 25.5l87 258q0 -1 2 6.5t2 15.5q0 6 -2.5 10.5t-10.5 4.5q-11 0 -22.5 -7.5t-22.5 -18t-21 -21.5t-17 -18l-16 17l34 35q15 15 32.5 31.5t35.5 30t36.5 22.5t36.5 9q15 0 24 -8.5t9 -23.5
q0 -12 -3.5 -24t-9.5 -28l-90 -269q-1 -4 -1.5 -7t-0.5 -7q0 -5 5 -7.5t12 -2.5q17 0 43 19.5t55.5 50.5t60 69.5t57 77t46.5 73t29 56.5q5 14 12 22.5t22 8.5q13 0 25 -10.5t20 -18.5l-109 -326q-3 -8 -3 -14q0 -14 15 -14q10 0 22 7.5t24 17.5t22.5 20.5t18.5 16.5z" />
    <glyph glyph-name="uacute" unicode="&#xfa;" 
d="M287 546l152 148q9 7 16.5 13t17.5 6q12 0 22 -9.5t10 -23.5t-13.5 -24t-21.5 -15l-115 -75q-12 -8 -24.5 -14t-17.5 -6h-26zM519 122q-15 -17 -34.5 -38t-41.5 -40t-46 -31.5t-49 -12.5q-37 0 -37 35q0 12 5.5 31t13.5 43l60 177h-2q-12 -16 -33 -43t-47.5 -59
t-56.5 -64.5t-60 -59t-59.5 -43.5t-53.5 -17q-17 0 -29.5 11.5t-12.5 27.5q0 6 2.5 17.5t7.5 25.5l87 258q0 -1 2 6.5t2 15.5q0 6 -2.5 10.5t-10.5 4.5q-11 0 -22.5 -7.5t-22.5 -18t-21 -21.5t-17 -18l-16 17l34 35q15 15 32.5 31.5t35.5 30t36.5 22.5t36.5 9q15 0 24 -8.5
t9 -23.5q0 -12 -3.5 -24t-9.5 -28l-90 -269q-1 -4 -1.5 -7t-0.5 -7q0 -5 5 -7.5t12 -2.5q17 0 43 19.5t55.5 50.5t60 69.5t57 77t46.5 73t29 56.5q5 14 12 22.5t22 8.5q13 0 25 -10.5t20 -18.5l-109 -326q-3 -8 -3 -14q0 -14 15 -14q10 0 22 7.5t24 17.5t22.5 20.5
t18.5 16.5z" />
    <glyph glyph-name="ucircumflex" unicode="&#xfb;" 
d="M483 546h-33l-82 107l-135 -107h-37l161 167h38zM519 122q-15 -17 -34.5 -38t-41.5 -40t-46 -31.5t-49 -12.5q-37 0 -37 35q0 12 5.5 31t13.5 43l60 177h-2q-12 -16 -33 -43t-47.5 -59t-56.5 -64.5t-60 -59t-59.5 -43.5t-53.5 -17q-17 0 -29.5 11.5t-12.5 27.5
q0 6 2.5 17.5t7.5 25.5l87 258q0 -1 2 6.5t2 15.5q0 6 -2.5 10.5t-10.5 4.5q-11 0 -22.5 -7.5t-22.5 -18t-21 -21.5t-17 -18l-16 17l34 35q15 15 32.5 31.5t35.5 30t36.5 22.5t36.5 9q15 0 24 -8.5t9 -23.5q0 -12 -3.5 -24t-9.5 -28l-90 -269q-1 -4 -1.5 -7t-0.5 -7
q0 -5 5 -7.5t12 -2.5q17 0 43 19.5t55.5 50.5t60 69.5t57 77t46.5 73t29 56.5q5 14 12 22.5t22 8.5q13 0 25 -10.5t20 -18.5l-109 -326q-3 -8 -3 -14q0 -14 15 -14q10 0 22 7.5t24 17.5t22.5 20.5t18.5 16.5z" />
    <glyph glyph-name="udieresis" unicode="&#xfc;" 
d="M203 610q0 21 14 35t34 14q21 0 35.5 -14t14.5 -35q0 -20 -14.5 -34.5t-35.5 -14.5q-20 0 -34 14.5t-14 34.5zM403 610q0 21 14 35t34 14q21 0 35.5 -14t14.5 -35q0 -20 -14.5 -34.5t-35.5 -14.5q-20 0 -34 14.5t-14 34.5zM519 122q-15 -17 -34.5 -38t-41.5 -40
t-46 -31.5t-49 -12.5q-37 0 -37 35q0 12 5.5 31t13.5 43l60 177h-2q-12 -16 -33 -43t-47.5 -59t-56.5 -64.5t-60 -59t-59.5 -43.5t-53.5 -17q-17 0 -29.5 11.5t-12.5 27.5q0 6 2.5 17.5t7.5 25.5l87 258q0 -1 2 6.5t2 15.5q0 6 -2.5 10.5t-10.5 4.5q-11 0 -22.5 -7.5
t-22.5 -18t-21 -21.5t-17 -18l-16 17l34 35q15 15 32.5 31.5t35.5 30t36.5 22.5t36.5 9q15 0 24 -8.5t9 -23.5q0 -12 -3.5 -24t-9.5 -28l-90 -269q-1 -4 -1.5 -7t-0.5 -7q0 -5 5 -7.5t12 -2.5q17 0 43 19.5t55.5 50.5t60 69.5t57 77t46.5 73t29 56.5q5 14 12 22.5t22 8.5
q13 0 25 -10.5t20 -18.5l-109 -326q-3 -8 -3 -14q0 -14 15 -14q10 0 22 7.5t24 17.5t22.5 20.5t18.5 16.5z" />
    <glyph glyph-name="yacute" unicode="&#xfd;" horiz-adv-x="500" 
d="M259 546l152 148q9 7 16.5 13t17.5 6q12 0 22 -9.5t10 -23.5t-13.5 -24t-21.5 -15l-115 -75q-12 -8 -24.5 -14t-17.5 -6h-26zM51 292l-24 14q0 25 5.5 51.5t18 48.5t33.5 36.5t51 14.5q35 0 59 -23.5t40 -61t25.5 -83.5t15.5 -91.5t10 -85t9 -63.5q16 28 35 61t35.5 67.5
t27.5 69.5t11 68q0 28 -6 44.5t-6 37.5q0 23 12 41.5t35 18.5q22 0 30.5 -16.5t8.5 -36.5q0 -27 -12.5 -67t-32 -85t-45 -93t-51 -91.5t-49.5 -80t-42 -58.5q-16 -21 -36.5 -48t-45 -51t-52 -41t-57.5 -17q-16 0 -28.5 11.5t-12.5 28.5t9 29t27 12q10 0 20 -3.5t22 -3.5
q17 0 38.5 9.5t46.5 38.5l54 63l-3 52l-9 83q-6 43 -16 94t-24 94.5t-33.5 73t-43.5 29.5q-21 0 -34.5 -13t-13.5 -33t7 -38z" />
    <glyph glyph-name="thorn" unicode="&#xfe;" 
d="M170 159q-3 -17 -7 -34.5t-4 -46.5q0 -8 3.5 -19.5t11 -22t19 -18t27.5 -7.5q27 0 53 17.5t48.5 45t41 63t31.5 71t20.5 68.5t7.5 56q0 31 -10.5 49t-26 28t-33.5 13t-33 3q-27 0 -49.5 -4t-36.5 -11zM227 697l-49 28l3 13q12 2 29.5 4t36.5 5q18 3 35.5 7.5t35.5 9.5
l11 -4l-89 -321q17 6 45 12t66 6q26 0 53 -6t48.5 -20.5t35.5 -38.5t14 -59q0 -34 -11.5 -72.5t-31 -77t-47 -74.5t-59.5 -63.5t-68 -44t-72 -16.5q-22 0 -42.5 8t-37.5 21l-49 -188l80 -13l-4 -26q-21 0 -41.5 -0.5t-46.5 -4.5q-22 -2 -37 -4.5t-32 -5.5l-6 8l152 607
l-60 -22t-59 -26l7 39q29 13 59 23.5t62 21.5z" />
    <glyph glyph-name="ydieresis" unicode="&#xff;" horiz-adv-x="500" 
d="M175 610q0 21 14 35t34 14q21 0 35.5 -14t14.5 -35q0 -20 -14.5 -34.5t-35.5 -14.5q-20 0 -34 14.5t-14 34.5zM375 610q0 21 14 35t34 14q21 0 35.5 -14t14.5 -35q0 -20 -14.5 -34.5t-35.5 -14.5q-20 0 -34 14.5t-14 34.5zM51 292l-24 14q0 25 5.5 51.5t18 48.5
t33.5 36.5t51 14.5q35 0 59 -23.5t40 -61t25.5 -83.5t15.5 -91.5t10 -85t9 -63.5q16 28 35 61t35.5 67.5t27.5 69.5t11 68q0 28 -6 44.5t-6 37.5q0 23 12 41.5t35 18.5q22 0 30.5 -16.5t8.5 -36.5q0 -27 -12.5 -67t-32 -85t-45 -93t-51 -91.5t-49.5 -80t-42 -58.5
q-16 -21 -36.5 -48t-45 -51t-52 -41t-57.5 -17q-16 0 -28.5 11.5t-12.5 28.5t9 29t27 12q10 0 20 -3.5t22 -3.5q17 0 38.5 9.5t46.5 38.5l54 63l-3 52l-9 83q-6 43 -16 94t-24 94.5t-33.5 73t-43.5 29.5q-21 0 -34.5 -13t-13.5 -33t7 -38z" />
    <glyph glyph-name="dotlessi" unicode="&#x131;" horiz-adv-x="278" 
d="M49 327q11 16 29 38.5t39.5 43t45 34.5t44.5 14q31 0 31 -25q0 -11 -5 -28t-9 -28l-82 -254q-5 -14 -7.5 -24.5t-2.5 -17.5q0 -15 13 -15q5 0 16 8.5t23 20t22.5 22l14.5 14.5l16 -13q-12 -16 -30 -38.5t-39.5 -43.5t-45 -35.5t-44.5 -14.5q-22 0 -30 11.5t-8 28.5
q0 18 11 49l86 254q4 11 6.5 20.5t2.5 16.5q0 12 -12 12q-8 0 -18.5 -8t-20.5 -18.5t-19 -21t-13 -16.5z" />
    <glyph glyph-name="Lslash" unicode="&#x141;" horiz-adv-x="667" 
d="M165 261l-93 -69l11 68l94 70l51 286q4 21 -4.5 33t-23 17.5t-31.5 6t-30 -0.5l5 26q38 0 75.5 -1t75.5 -1q32 0 64.5 1t64.5 1l-5 -26q-24 0 -40.5 -1t-27.5 -7t-18 -19.5t-13 -37.5l-36 -199l213 158l-11 -68l-214 -158l-57 -308h212q72 0 114.5 37.5t62.5 104.5h24
l-54 -174q-77 1 -153.5 1.5t-153.5 0.5h-118q-58 0 -117 -2l5 26h26q20 2 33 7.5t21.5 16t13.5 27.5t9 41z" />
    <glyph glyph-name="lslash" unicode="&#x142;" horiz-adv-x="278" 
d="M204 687l-60 31l5 15q17 1 35 3.5t38 6.5q17 3 34.5 8t38.5 13l7 -6l-72 -299l2 -2l78 59l-15 -61l-79 -58l-70 -291q-1 -4 -2.5 -11t-1.5 -14q1 -5 3 -10.5t11 -5.5q7 0 18.5 10t23 23t21.5 25.5t14 18.5l12 -21q-12 -16 -28.5 -39.5t-36 -45t-41.5 -36.5t-45 -15
t-30.5 14.5t-7.5 34.5q1 14 3 27t4 22l60 255l-2 2l-74 -58l15 64l74 51z" />
    <glyph glyph-name="OE" unicode="&#x152;" horiz-adv-x="1000" 
d="M580 570q2 15 3.5 27.5t1.5 28.5q0 21 -13.5 33t-33 18t-41.5 8t-38 2q-75 0 -131.5 -33t-94 -86.5t-56.5 -121t-19 -135.5q0 -55 14 -108.5t43 -96t74 -69t108 -26.5q34 0 55.5 10t34.5 29t20 46.5t12 62.5zM638 382h126q24 0 40 2.5t27 10t18.5 20.5t14.5 35l11 35h22
l-41 -237h-22q1 8 1.5 21.5t0.5 24.5q0 17 -5 26.5t-15.5 14t-27.5 5.5t-41 1h-115l-29 -189q-1 -5 -3 -17t-4 -24.5t-3.5 -24.5t-1.5 -17q0 -26 39 -31.5t110 -5.5q35 0 65.5 2t55.5 11t44 27.5t31 51.5l14 43h26l-47 -167h-205q-48 0 -96.5 -2.5t-92.5 -5t-82.5 -5
t-68.5 -2.5q-77 0 -137 25t-101.5 68.5t-63.5 103t-22 128.5q0 96 32 170.5t86.5 126.5t127.5 79t156 27q21 0 50 -2t64 -4t75 -6.5t84 -4.5q61 0 121.5 1t121.5 1l-11 -140h-20v24q0 31 -6.5 48t-26.5 25t-57 9.5t-98 1.5h-76z" />
    <glyph glyph-name="oe" unicode="&#x153;" horiz-adv-x="778" 
d="M462 219q34 2 73 13.5t72 32t55 50.5t22 71q0 20 -13 29.5t-32 9.5q-36 0 -66 -20.5t-53 -51.5t-38 -67t-20 -67zM217 11q49 0 83.5 33t56.5 79.5t32.5 98t10.5 90.5q0 23 -5 43.5t-16 36t-29 24.5t-44 9q-45 0 -79.5 -30.5t-58.5 -74t-36 -92t-12 -85.5q0 -24 4.5 -47.5
t16 -42t30 -30.5t46.5 -12zM730 108q-23 -25 -49 -47t-55.5 -39t-62.5 -27t-69 -10q-37 0 -64.5 23t-41.5 59q-21 -20 -40 -35.5t-39 -26t-43.5 -15.5t-53.5 -5q-41 0 -73 13.5t-54 38t-33.5 58t-11.5 73.5q0 54 21.5 106t58 92.5t86 65.5t105.5 25q106 0 153 -98
q38 40 86.5 69t105.5 29q19 0 37.5 -4t32.5 -13t23 -24t9 -37q0 -34 -15.5 -60t-41 -46t-57.5 -34t-65.5 -23.5t-65.5 -15t-57 -7.5q-1 -10 -2 -22t-1 -26q0 -21 4 -40.5t14 -34t26 -23t40 -8.5q25 0 49 7.5t46 19.5t42.5 27t40.5 30z" />
    <glyph glyph-name="Scaron" unicode="&#x160;" horiz-adv-x="500" 
d="M217 904h33l82 -107l135 107h37l-161 -167h-38zM70 203q2 -30 3.5 -55.5t13.5 -54.5q14 -35 49 -55.5t74 -20.5q28 0 53 8t43.5 24t29.5 38.5t11 51.5q0 36 -16.5 67.5t-41.5 61t-53.5 59t-53.5 60.5t-41.5 66t-16.5 76q0 40 13.5 74t38.5 58.5t59 38t76 13.5
q33 0 56.5 -4t52.5 -14q7 -2 14 -4.5t14 -2.5q8 0 11.5 3t8.5 6h17l-31 -176h-22q0 11 1 21t1 21q0 56 -33.5 87t-88.5 31q-50 0 -79 -27t-29 -78q0 -35 17.5 -65.5t43.5 -60.5t56.5 -60t56.5 -62t43.5 -68t17.5 -77q0 -42 -16.5 -78.5t-46 -63t-68.5 -41.5t-84 -15
q-48 0 -82.5 12t-62.5 24l-33 -30h-23l27 212h20z" />
    <glyph glyph-name="scaron" unicode="&#x161;" horiz-adv-x="389" 
d="M137 713h33l82 -107l135 107h37l-161 -167h-38zM50 125q4 -21 17 -36.5t31 -25t38.5 -14t40.5 -4.5q10 0 25.5 1.5t29.5 6.5t24 14t10 23q0 17 -11 32.5t-28 29.5t-37.5 28t-40 27.5t-35.5 28.5t-23 31q-5 11 -7 23t-2 23q0 19 11.5 37t28.5 34t35.5 29t33.5 22
q20 13 35 17.5t39 4.5q15 0 30.5 -2.5t28 -9t20.5 -18.5t8 -30q0 -5 -1.5 -12.5t-4.5 -14.5t-7 -12.5t-8 -5.5h-12q-6 0 -8.5 4.5t-5.5 10.5q-7 14 -32 25t-50 11q-13 0 -26 -3.5t-24 -10.5t-18 -17.5t-7 -25.5q0 -21 13 -37t33 -30.5t42.5 -28.5t42.5 -30t33 -36t13 -46
q0 -15 -6.5 -30t-16.5 -29t-21 -26.5t-21 -21.5q-25 -25 -54.5 -35.5t-64.5 -10.5q-18 0 -40 3t-41.5 12t-32.5 24t-13 39q0 17 7.5 32t15.5 30h13z" />
    <glyph glyph-name="Ydieresis" unicode="&#x178;" horiz-adv-x="667" 
d="M284 801q0 21 14 35t34 14q21 0 35.5 -14t14.5 -35q0 -20 -14.5 -34.5t-35.5 -14.5q-20 0 -34 14.5t-14 34.5zM484 801q0 21 14 35t34 14q21 0 35.5 -14t14.5 -35q0 -20 -14.5 -34.5t-35.5 -14.5q-20 0 -34 14.5t-14 34.5zM346 672h-36q-15 0 -28.5 -8t-4.5 -29l128 -303
l182 285q8 13 10.5 21.5t2.5 12.5q0 7 -6.5 11.5t-15.5 6.5t-20 2.5t-20 0.5h-17l4 26q30 -2 60 -2h61h37t37 2l-5 -26q-22 2 -38.5 -14t-28.5 -33l-10 -15l-220 -323l-37 -196q-5 -24 -0.5 -37.5t15.5 -19.5t27 -7t35 -1h18l-5 -26q-38 0 -77 1t-77 1q-32 0 -64.5 -0.5
t-64.5 -1.5l4 26h22q22 0 35.5 2.5t21.5 9.5t12 19t7 29l38 199l-154 352q-8 18 -28.5 26.5t-42.5 8.5h-10l4 26q31 -2 61 -2h62q33 0 65.5 1t65.5 1z" />
    <glyph glyph-name="Zcaron" unicode="&#x17d;" horiz-adv-x="722" 
d="M328 904h33l82 -107l135 107h37l-161 -167h-38zM21 8l548 652h-233q-42 0 -72 -2.5t-52.5 -13.5t-39.5 -33.5t-32 -63.5h-24l44 151h544v-8l-542 -649h316q27 0 45.5 3.5t31 9t20.5 12t14 11.5q9 7 17 19.5t15.5 27.5t14 30.5t10.5 28.5h23l-47 -183q-78 1 -154.5 1.5
t-154.5 0.5q-73 0 -146 -1t-146 -1v8z" />
    <glyph glyph-name="zcaron" unicode="&#x17e;" horiz-adv-x="444" 
d="M164 713h33l82 -107l135 107h37l-161 -167h-38zM319 351q-30 -2 -57.5 7t-54.5 21q-13 5 -28 8.5t-29 3.5q-17 0 -31.5 -10.5t-14.5 -27.5q0 -3 5.5 -12t3.5 -18q-3 -22 -23 -22q-14 0 -20 11t-6 23q0 19 10 32t23 26q10 10 22 21.5t25.5 21t27.5 15.5t29 6q18 0 39 -8
t41.5 -18t39.5 -18t35 -8q18 0 27 6q6 3 6 6q0 4 1 11q1 14 6 24.5t22 10.5q19 0 19 -20q0 -5 -5.5 -13.5t-13 -18.5t-17 -20t-16.5 -17l-260 -269q23 2 51.5 -14.5t56.5 -37.5t54 -38.5t45 -17.5q16 0 27 10t3 27q-1 6 -8 18t-7 22q0 6 7 14t19 8q14 0 20.5 -12t6.5 -23
q0 -22 -10 -45t-26.5 -42t-37.5 -31t-44 -12t-49 20t-52.5 43.5t-52.5 43.5t-48 20q-8 0 -17.5 -5t-9.5 -14q0 -14 3.5 -19.5t3.5 -13.5q0 -10 -6 -15t-15 -6q-12 -2 -19 7t-7 20q0 14 3.5 23t14.5 20z" />
    <glyph glyph-name="florin" unicode="&#x192;" 
d="M455 417h-119l-72 -327q-5 -20 -12.5 -52t-19 -67t-26.5 -70.5t-34.5 -64t-43.5 -46.5t-52 -18q-32 0 -48 17.5t-16 40.5t10 32.5t22 9.5q15 0 24.5 -6t9.5 -22q0 -8 -3.5 -14t-3.5 -13q-1 -9 4.5 -14t14.5 -5q20 0 37.5 35.5t34.5 114.5l90 469h-97l7 32h98q7 37 22 83
t39 86t59 67.5t83 27.5q14 0 29.5 -4t28 -12.5t20.5 -21.5t8 -30q0 -15 -7.5 -31t-28.5 -16q-38 0 -38 37q0 8 2.5 16.5t2.5 16.5q0 11 -10 15t-19 4q-20 0 -35 -14t-26 -36t-19 -49.5t-13 -54t-8.5 -49t-6.5 -35.5h118z" />
    <glyph glyph-name="circumflex" unicode="&#x2c6;" horiz-adv-x="278" 
d="M344 546h-33l-82 107l-135 -107h-37l161 167h38z" />
    <glyph glyph-name="caron" unicode="&#x2c7;" horiz-adv-x="278" 
d="M81 713h33l82 -107l135 107h37l-161 -167h-38z" />
    <glyph glyph-name="breve" unicode="&#x2d8;" horiz-adv-x="278" 
d="M100 705q4 -49 32 -75t77 -26q51 0 84.5 27.5t50.5 73.5h26q-7 -33 -20.5 -62t-34 -51t-49 -35t-64.5 -13t-61 12.5t-40 34t-21.5 51t-5.5 63.5h26z" />
    <glyph glyph-name="dotaccent" unicode="&#x2d9;" horiz-adv-x="278" 
d="M164 610q0 21 14 35t34 14q21 0 35.5 -14t14.5 -35q0 -20 -14.5 -34.5t-35.5 -14.5q-20 0 -34 14.5t-14 34.5z" />
    <glyph glyph-name="ring" unicode="&#x2da;" horiz-adv-x="278" 
d="M179 558q27 0 46.5 19.5t19.5 46.5t-19.5 46.5t-46.5 19.5t-46.5 -19.5t-19.5 -46.5t19.5 -46.5t46.5 -19.5zM179 526q-41 0 -69.5 28.5t-28.5 69.5t28.5 69.5t69.5 28.5t69.5 -28.5t28.5 -69.5t-28.5 -69.5t-69.5 -28.5z" />
    <glyph glyph-name="ogonek" unicode="&#x2db;" horiz-adv-x="278" 
d="M201 -148q-23 -32 -52.5 -48.5t-52.5 -16.5q-6 0 -19 1t-26 6.5t-22.5 17.5t-9.5 35q0 27 14 50t35 42.5t45 34.5t45 26h38q-17 -12 -36 -27t-36 -33t-28 -38.5t-11 -42.5q1 -14 10 -22.5t21 -8.5q20 0 37.5 10t29.5 24z" />
    <glyph glyph-name="tilde" unicode="&#x2dc;" horiz-adv-x="278" 
d="M34 568q10 39 37.5 67.5t70.5 28.5q16 0 34 -7t36 -15t34 -15t28 -7q24 0 37 15t22 34h26q-3 -18 -12 -36t-23.5 -32t-32.5 -23t-37 -9q-14 0 -32 7t-36 15q-17 8 -34 17t-31 9q-26 0 -37.5 -13t-22.5 -36h-27z" />
    <glyph glyph-name="hungarumlaut" unicode="&#x2dd;" horiz-adv-x="278" 
d="M249 546l152 148q9 7 16.5 13t17.5 6q12 0 22 -9.5t10 -23.5t-13.5 -24t-21.5 -15l-115 -75q-12 -8 -24.5 -14t-17.5 -6h-26zM49 546l152 148q9 7 16.5 13t17.5 6q12 0 22 -9.5t10 -23.5t-13.5 -24t-21.5 -15l-115 -75q-12 -8 -24.5 -14t-17.5 -6h-26z" />
    <glyph glyph-name="endash" unicode="&#x2013;" horiz-adv-x="500" 
d="M11 277h500l-22 -66h-500z" />
    <glyph glyph-name="emdash" unicode="&#x2014;" horiz-adv-x="1000" 
d="M11 277h1000l-22 -66h-1000z" />
    <glyph glyph-name="quoteleft" unicode="&#x2018;" horiz-adv-x="278" 
d="M305 678q-17 1 -39.5 -3.5t-42.5 -14t-33.5 -25t-13.5 -37.5q0 -14 4.5 -18.5t12.5 -7t19 -6t24 -14.5q5 -3 8 -11.5t3 -13.5q0 -29 -17 -45.5t-46 -16.5q-17 0 -29.5 7.5t-21 20t-12.5 28.5t-4 32q0 34 16 61.5t41.5 46.5t57 28.5t62.5 8.5z" />
    <glyph glyph-name="quoteright" unicode="&#x2019;" horiz-adv-x="278" 
d="M81 485q17 -1 39.5 3.5t42.5 14t33.5 25t13.5 37.5q0 13 -4.5 18t-12.5 7.5t-19 6t-24 14.5q-5 3 -8 11.5t-3 13.5q0 29 17 45.5t46 16.5q17 0 29.5 -7.5t21 -20t12.5 -28.5t4 -32q0 -34 -16 -61.5t-41.5 -46.5t-57 -28.5t-62.5 -8.5z" />
    <glyph glyph-name="quotesinglbase" unicode="&#x201a;" horiz-adv-x="278" 
d="M45 -104q17 -1 39.5 3.5t42.5 14t33.5 25t13.5 37.5q0 13 -4.5 18t-12.5 7.5t-19 6t-24 14.5q-5 3 -8 11.5t-3 13.5q0 29 17 45.5t46 16.5q17 0 29.5 -7.5t21 -20t12.5 -28.5t4 -32q0 -34 -16 -61.5t-41.5 -46.5t-57 -28.5t-62.5 -8.5z" />
    <glyph glyph-name="quotedblleft" unicode="&#x201c;" 
d="M538 678q-17 1 -39.5 -3.5t-42.5 -14t-33.5 -25t-13.5 -37.5q0 -14 4.5 -18.5t12.5 -7t19 -6t24 -14.5q5 -3 8 -11.5t3 -13.5q0 -29 -17 -45.5t-46 -16.5q-17 0 -29.5 7.5t-21 20t-12.5 28.5t-4 32q0 34 16 61.5t41.5 46.5t57 28.5t62.5 8.5zM341 678q-17 1 -39.5 -3.5
t-42.5 -14t-33.5 -25t-13.5 -37.5q0 -14 4.5 -18.5t12.5 -7t19 -6t24 -14.5q5 -3 8 -11.5t3 -13.5q0 -29 -17 -45.5t-46 -16.5q-17 0 -29.5 7.5t-21 20t-12.5 28.5t-4 32q0 34 16 61.5t41.5 46.5t57 28.5t62.5 8.5z" />
    <glyph glyph-name="quotedblright" unicode="&#x201d;" 
d="M323 485q17 -1 39.5 3.5t42.5 14t33.5 25t13.5 37.5q0 13 -4.5 18t-12.5 7.5t-19 6t-24 14.5q-5 3 -8 11.5t-3 13.5q0 29 17 45.5t46 16.5q17 0 29.5 -7.5t21 -20t12.5 -28.5t4 -32q0 -34 -16 -61.5t-41.5 -46.5t-57 -28.5t-62.5 -8.5zM126 485q17 -1 39.5 3.5t42.5 14
t33.5 25t13.5 37.5q0 13 -4.5 18t-12.5 7.5t-19 6t-24 14.5q-5 3 -8 11.5t-3 13.5q0 29 17 45.5t46 16.5q17 0 29.5 -7.5t21 -20t12.5 -28.5t4 -32q0 -34 -16 -61.5t-41.5 -46.5t-57 -28.5t-62.5 -8.5z" />
    <glyph glyph-name="quotedblbase" unicode="&#x201e;" 
d="M60 -104q17 -1 39.5 3.5t42.5 14t33.5 25t13.5 37.5q0 13 -4.5 18t-12.5 7.5t-19 6t-24 14.5q-5 3 -8 11.5t-3 13.5q0 29 17 45.5t46 16.5q17 0 29.5 -7.5t21 -20t12.5 -28.5t4 -32q0 -34 -16 -61.5t-41.5 -46.5t-57 -28.5t-62.5 -8.5zM257 -104q17 -1 39.5 3.5t42.5 14
t33.5 25t13.5 37.5q0 13 -4.5 18t-12.5 7.5t-19 6t-24 14.5q-5 3 -8 11.5t-3 13.5q0 29 17 45.5t46 16.5q17 0 29.5 -7.5t21 -20t12.5 -28.5t4 -32q0 -34 -16 -61.5t-41.5 -46.5t-57 -28.5t-62.5 -8.5z" />
    <glyph glyph-name="dagger" unicode="&#x2020;" 
d="M198 409v-2q17 0 8 0q-8 0 -29 -1t-47 -2t-42 -3l-6 6q3 11 4 15t1.5 6.5t1 6.5t2.5 16l6 6q11 -1 30 -2.5t41.5 -3t45.5 -2.5t42 -1h33l29 168q3 18 6 40t3 36l6 6q11 0 18.5 -1.5t15.5 -1.5t16 1.5t16 1.5l6 -6q-5 -14 -10.5 -36t-10.5 -40l-41 -168h26q19 0 41.5 1
t44.5 2.5t42.5 3t37.5 2.5l6 -6q-5 -11 -7 -23t-2 -21l-6 -6q-11 1 -29 2t-39.5 2t-45.5 1.5t-46 0.5h-32q-12 -57 -25 -121t-26 -131.5l-26 -135t-24 -130.5q-3 -18 -6 -40t-4 -36l-6 -6q-10 0 -18 1.5t-16 1.5t-16 -1.5t-16 -1.5l-6 6q5 14 11 36t11 40q15 63 30.5 130.5
t30 135t27.5 131.5t25 121z" />
    <glyph glyph-name="daggerdbl" unicode="&#x2021;" 
d="M198 412v-3q17 0 8 0q-8 0 -29 -1t-47 -2t-42 -2l-6 6q3 11 4 15l1.5 6t1 6t2.5 16l6 6q11 -1 30 -2.5t41.5 -3t45.5 -2.5t42 -1h33l29 167q3 18 6 39.5t3 35.5l6 6q11 0 18.5 -1.5t15.5 -1.5t16 1.5t16 1.5l6 -6q-5 -14 -10.5 -35.5t-10.5 -39.5l-41 -167h26
q19 0 41.5 1t44.5 2.5t42.5 3t37.5 2.5l6 -6q-5 -10 -7 -22t-2 -21l-6 -6q-11 1 -29 1.5t-39.5 1.5t-45.5 1.5t-46 0.5h-32l-7 -27q-11 -50 -14.5 -82t-4.5 -48q-5 -12 -15.5 -46t-20.5 -85l-3 -26l82 2v-2q9 0 23 0.5t29.5 1.5t31 1.5t26.5 2.5l6 -6q-3 -11 -4 -15l-1.5 -6
t-1 -6t-2.5 -16l-6 -6q-11 1 -30 2.5t-41.5 2.5t-45.5 2t-42 1h-33l-29 -166q-3 -18 -6 -39.5t-3 -35.5l-6 -6q-11 0 -18.5 1.5t-15.5 1.5t-16 -1.5t-16 -1.5l-6 6q5 14 10.5 35.5t10.5 39.5l41 166h-26q-20 0 -42 -1l-44 -2t-43 -2.5t-37 -2.5l-6 6q5 10 7 22t2 21l6 6
q11 -1 29 -2t39.5 -2t45 -1.5t46.5 -0.5h32l5 26q11 51 17.5 85t4.5 46q7 12 15 46t18 84l5 27z" />
    <glyph glyph-name="bullet" unicode="&#x2022;" horiz-adv-x="500" 
d="M85 349q0 36 13.5 68t37.5 56t56 37.5t68 13.5t68 -13.5t56 -37.5t37.5 -56t13.5 -68t-13.5 -68t-37.5 -56t-56 -37.5t-68 -13.5t-68 13.5t-56 37.5t-37.5 56t-13.5 68z" />
    <glyph glyph-name="ellipsis" unicode="&#x2026;" horiz-adv-x="1000" 
d="M481 -15q-26 0 -46 19t-20 46q0 26 20 46.5t46 20.5t46 -20t20 -47t-19.5 -46t-46.5 -19zM814 -15q-26 0 -46 19t-20 46q0 26 20 46.5t46 20.5t46 -20t20 -47t-19.5 -46t-46.5 -19zM148 -15q-26 0 -46 19t-20 46q0 26 20 46.5t46 20.5t46 -20t20 -47t-19.5 -46t-46.5 -19
z" />
    <glyph glyph-name="perthousand" unicode="&#x2030;" horiz-adv-x="1000" 
d="M145 487q0 -28 12 -48t43 -20q27 0 46 21.5t31 51t17.5 61t5.5 52.5q0 39 -15.5 56.5t-40.5 17.5q-30 0 -49 -22.5t-30.5 -53.5t-15.5 -63.5t-4 -52.5zM752 79q0 -28 12 -48t43 -20q27 0 46 21.5t31 51t17.5 61t5.5 52.5q0 39 -15.5 56.5t-40.5 17.5q-30 0 -49 -22.5
t-30.5 -53.5t-15.5 -63.5t-4 -52.5zM418 79q0 -28 12 -48t43 -20q27 0 46 21.5t31 51t17.5 61t5.5 52.5q0 39 -15.5 56.5t-40.5 17.5q-30 0 -49 -22.5t-30.5 -53.5t-15.5 -63.5t-4 -52.5zM556 713h47l-447 -736h-48zM352 121q0 34 12 66t34 56.5t52 39t66 14.5
q56 0 89.5 -36t33.5 -91q0 -34 -13 -67t-35.5 -59.5t-53 -42.5t-66.5 -16q-30 0 -52.5 11t-37 29.5t-22 43t-7.5 52.5zM686 121q0 34 12 66t34 56.5t52 39t66 14.5q56 0 89.5 -36t33.5 -91q0 -34 -13 -67t-35.5 -59.5t-53 -42.5t-66.5 -16q-30 0 -52.5 11t-37 29.5t-22 43
t-7.5 52.5zM79 529q0 34 12 66t34 56.5t52 39t66 14.5q56 0 89.5 -36t33.5 -91q0 -34 -13 -67t-35.5 -59.5t-53 -42.5t-66.5 -16q-30 0 -52.5 11t-37 29.5t-22 43t-7.5 52.5z" />
    <glyph glyph-name="guilsinglleft" unicode="&#x2039;" horiz-adv-x="278" 
d="M277 407l-141 -163l83 -167l-17 -10l-152 177l212 177z" />
    <glyph glyph-name="guilsinglright" unicode="&#x203a;" horiz-adv-x="278" 
d="M14 81l141 163l-83 167l17 10l152 -177l-212 -177z" />
    <glyph glyph-name="fraction" unicode="&#x2044;" horiz-adv-x="167" 
d="M302 713h47l-447 -736h-48z" />
    <glyph glyph-name="fraction" unicode="&#x2215;" horiz-adv-x="167" 
d="M302 713h47l-447 -736h-48z" />
    <glyph glyph-name="Euro" unicode="&#x20ac;" 
d="M555 516q3 13 3 26q0 33 -12 58.5t-31.5 43t-45.5 26.5t-54 9q-51 0 -90.5 -23t-68 -61t-47 -86t-27.5 -98h314l-14 -41h-307q-2 -18 -3 -35.5t-1 -34.5v-7h285l-13 -41h-270q5 -42 18.5 -83.5t38 -74t60.5 -52.5t85 -20q35 0 70.5 14.5t61.5 38.5l15 -18
q-30 -32 -75.5 -52t-93.5 -20q-60 0 -107 22t-80 58.5t-52.5 85t-25.5 101.5h-72l14 41h55v9q0 17 1.5 34t3.5 34h-61l13 41h56q14 59 42 113.5t68 96.5t91 67t111 25q34 0 59 -6.5t43 -14t31 -13.5t22 -6q10 0 17.5 5t14.5 11h11l-32 -173h-21z" />
    <glyph glyph-name="trademark" unicode="&#x2122;" horiz-adv-x="990" 
d="M271 353q0 -12 1.5 -19t6.5 -10.5t14.5 -5.5t26.5 -4v-20h-172v20q16 2 26 4t15 5.5t6.5 10.5t1.5 19v325h-48q-32 0 -46.5 -20t-20.5 -48h-20v88h344v-88h-20q-6 28 -20.5 48t-45.5 20h-49v-325zM547 598h-2v-219q0 -33 9.5 -47t43.5 -18v-20h-131v20q33 4 42.5 18
t9.5 47v249q-9 22 -28 35.5t-41 13.5v21h121l154 -309l160 309h103v-21q-31 -2 -42 -15t-11 -39v-270q0 -12 1.5 -19t6.5 -10.5t14.5 -5.5t26.5 -4v-20h-172v20q16 2 26 4t15 5.5t6.5 10.5t1.5 19v247h-2l-152 -306h-11z" />
    <glyph glyph-name="minus" unicode="&#x2212;" 
d="M57 188v66h442v-66h-442z" />
    <glyph glyph-name="fi" unicode="&#xfb01;" 
d="M42 442h97q9 44 21.5 83t31 72.5t44.5 63.5t62 56q32 23 66 35t73 12q17 0 36 -3.5t34.5 -12.5t26 -23t10.5 -35q0 -20 -12.5 -34.5t-32.5 -14.5q-14 0 -21.5 3t-7.5 17q0 17 -6 29t-16.5 19.5t-23.5 10.5t-26 3q-35 0 -61 -18.5t-46 -46.5q-20 -29 -32 -61.5t-18 -61.5
l-19 -93h278l9 -9l-93 -309q-5 -15 -7.5 -25.5t-2.5 -18.5q0 -15 13 -15q5 0 16 9t23 20.5t22.5 22.5t14.5 15l16 -13q-12 -16 -30 -39t-39.5 -44t-45 -36t-44.5 -15q-22 0 -30 12.5t-8 29.5q0 9 2.5 22t7.5 27l92 325h-203l-141 -596l-62 -33l-8 5l130 624h-102z" />
    <glyph glyph-name="fl" unicode="&#xfb02;" 
d="M42 442h97l10 45q10 48 39 97.5t68 89t84.5 65t89.5 25.5q23 0 58 -13l9 -3l45 14l12 -9l-155 -648q-2 -5 -3 -11.5t-1 -11.5q0 -7 3.5 -12t13.5 -5q7 0 20.5 9t28 20.5t27 23t18.5 17.5l14 -14q-13 -15 -33.5 -38.5t-44.5 -45t-49 -37t-47 -15.5q-20 0 -31.5 12.5
t-11.5 31.5q0 8 2 19.5t4.5 24.5t5.5 25l5 20l136 563q-15 13 -33 21t-47 8q-37 0 -62 -21t-41.5 -54t-26.5 -74t-17 -81l-7 -38h110l-12 -41h-107l-141 -596l-62 -33l-8 5l130 624h-102z" />
    <glyph glyph-name="nonbreakingspace" horiz-adv-x="278" 
 />
    </font>
</defs>
</svg>
